%TF.GenerationSoftware,KiCad,Pcbnew,5.99.0-unknown-r18419-5b078893*%
%TF.CreationDate,2020-05-18T11:47:00+06:00*%
%TF.ProjectId,Flatpack,466c6174-7061-4636-9b2e-6b696361645f,rev?*%
%TF.SameCoordinates,Original*%
%TF.FileFunction,Legend,Top*%
%TF.FilePolarity,Positive*%
%FSLAX46Y46*%
G04 Gerber Fmt 4.6, Leading zero omitted, Abs format (unit mm)*
G04 Created by KiCad (PCBNEW 5.99.0-unknown-r18419-5b078893) date 2020-05-18 11:47:00*
%MOMM*%
%LPD*%
G01*
G04 APERTURE LIST*
%ADD10C,0.150000*%
%ADD11C,0.120000*%
%ADD12C,0.100000*%
%ADD13C,0.010000*%
G04 APERTURE END LIST*
D10*
X137552727Y-100859862D02*
X137505108Y-100907481D01*
X137362251Y-100955100D01*
X137267013Y-100955100D01*
X137124156Y-100907481D01*
X137028918Y-100812243D01*
X136981299Y-100717005D01*
X136933680Y-100526529D01*
X136933680Y-100383672D01*
X136981299Y-100193196D01*
X137028918Y-100097958D01*
X137124156Y-100002720D01*
X137267013Y-99955100D01*
X137362251Y-99955100D01*
X137505108Y-100002720D01*
X137552727Y-100050339D01*
X137933680Y-100669386D02*
X138409870Y-100669386D01*
X137838441Y-100955100D02*
X138171775Y-99955100D01*
X138505108Y-100955100D01*
X138838441Y-100955100D02*
X138838441Y-99955100D01*
X139409870Y-100955100D01*
X139409870Y-99955100D01*
X140981299Y-100431291D02*
X141124156Y-100478910D01*
X141171775Y-100526529D01*
X141219394Y-100621767D01*
X141219394Y-100764624D01*
X141171775Y-100859862D01*
X141124156Y-100907481D01*
X141028918Y-100955100D01*
X140647965Y-100955100D01*
X140647965Y-99955100D01*
X140981299Y-99955100D01*
X141076537Y-100002720D01*
X141124156Y-100050339D01*
X141171775Y-100145577D01*
X141171775Y-100240815D01*
X141124156Y-100336053D01*
X141076537Y-100383672D01*
X140981299Y-100431291D01*
X140647965Y-100431291D01*
X142076537Y-100288434D02*
X142076537Y-100955100D01*
X141647965Y-100288434D02*
X141647965Y-100812243D01*
X141695584Y-100907481D01*
X141790822Y-100955100D01*
X141933680Y-100955100D01*
X142028918Y-100907481D01*
X142076537Y-100859862D01*
X142505108Y-100907481D02*
X142600346Y-100955100D01*
X142790822Y-100955100D01*
X142886060Y-100907481D01*
X142933680Y-100812243D01*
X142933680Y-100764624D01*
X142886060Y-100669386D01*
X142790822Y-100621767D01*
X142647965Y-100621767D01*
X142552727Y-100574148D01*
X142505108Y-100478910D01*
X142505108Y-100431291D01*
X142552727Y-100336053D01*
X142647965Y-100288434D01*
X142790822Y-100288434D01*
X142886060Y-100336053D01*
X172462747Y-86670401D02*
X171510366Y-86670401D01*
X171510366Y-84670401D01*
D11*
X146867880Y-99943920D02*
X146867880Y-109984540D01*
X140723620Y-92986860D02*
X146867880Y-99943920D01*
X140726160Y-80007460D02*
X140723620Y-92986860D01*
X132679440Y-97299780D02*
X132712460Y-110002320D01*
X128092200Y-92791280D02*
X132676900Y-97302320D01*
X128013460Y-80058260D02*
X128079500Y-92778580D01*
D12*
X135997142Y-107873076D02*
X135663809Y-107873076D01*
X135949523Y-107873076D02*
X135973333Y-107896885D01*
X135997142Y-107944504D01*
X135997142Y-108015933D01*
X135973333Y-108063552D01*
X135925714Y-108087361D01*
X135663809Y-108087361D01*
X135711428Y-108325457D02*
X135687619Y-108349266D01*
X135663809Y-108325457D01*
X135687619Y-108301647D01*
X135711428Y-108325457D01*
X135663809Y-108325457D01*
X135687619Y-108777838D02*
X135663809Y-108730219D01*
X135663809Y-108634980D01*
X135687619Y-108587361D01*
X135711428Y-108563552D01*
X135759047Y-108539742D01*
X135901904Y-108539742D01*
X135949523Y-108563552D01*
X135973333Y-108587361D01*
X135997142Y-108634980D01*
X135997142Y-108730219D01*
X135973333Y-108777838D01*
X135711428Y-108992123D02*
X135687619Y-109015933D01*
X135663809Y-108992123D01*
X135687619Y-108968314D01*
X135711428Y-108992123D01*
X135663809Y-108992123D01*
X138680000Y-108071967D02*
X138703809Y-108024348D01*
X138703809Y-107952920D01*
X138680000Y-107881491D01*
X138632380Y-107833872D01*
X138584761Y-107810062D01*
X138489523Y-107786253D01*
X138418095Y-107786253D01*
X138322857Y-107810062D01*
X138275238Y-107833872D01*
X138227619Y-107881491D01*
X138203809Y-107952920D01*
X138203809Y-108000539D01*
X138227619Y-108071967D01*
X138251428Y-108095777D01*
X138418095Y-108095777D01*
X138418095Y-108000539D01*
X138203809Y-108310062D02*
X138703809Y-108310062D01*
X138203809Y-108595777D01*
X138703809Y-108595777D01*
X138203809Y-108833872D02*
X138703809Y-108833872D01*
X138703809Y-108952920D01*
X138680000Y-109024348D01*
X138632380Y-109071967D01*
X138584761Y-109095777D01*
X138489523Y-109119586D01*
X138418095Y-109119586D01*
X138322857Y-109095777D01*
X138275238Y-109071967D01*
X138227619Y-109024348D01*
X138203809Y-108952920D01*
X138203809Y-108833872D01*
X140730468Y-107573866D02*
X140706659Y-107550057D01*
X140682849Y-107478628D01*
X140682849Y-107431009D01*
X140706659Y-107359580D01*
X140754278Y-107311961D01*
X140801897Y-107288152D01*
X140897135Y-107264342D01*
X140968563Y-107264342D01*
X141063801Y-107288152D01*
X141111420Y-107311961D01*
X141159040Y-107359580D01*
X141182849Y-107431009D01*
X141182849Y-107478628D01*
X141159040Y-107550057D01*
X141135230Y-107573866D01*
X140825706Y-107764342D02*
X140825706Y-108002438D01*
X140682849Y-107716723D02*
X141182849Y-107883390D01*
X140682849Y-108050057D01*
X140682849Y-108216723D02*
X141182849Y-108216723D01*
X140682849Y-108502438D01*
X141182849Y-108502438D01*
X140873325Y-108740533D02*
X140873325Y-109121485D01*
X140682849Y-109597676D02*
X140682849Y-109359580D01*
X141182849Y-109359580D01*
X143229828Y-107560062D02*
X143206019Y-107536253D01*
X143182209Y-107464824D01*
X143182209Y-107417205D01*
X143206019Y-107345777D01*
X143253638Y-107298158D01*
X143301257Y-107274348D01*
X143396495Y-107250539D01*
X143467923Y-107250539D01*
X143563161Y-107274348D01*
X143610780Y-107298158D01*
X143658400Y-107345777D01*
X143682209Y-107417205D01*
X143682209Y-107464824D01*
X143658400Y-107536253D01*
X143634590Y-107560062D01*
X143325066Y-107750539D02*
X143325066Y-107988634D01*
X143182209Y-107702920D02*
X143682209Y-107869586D01*
X143182209Y-108036253D01*
X143182209Y-108202920D02*
X143682209Y-108202920D01*
X143182209Y-108488634D01*
X143682209Y-108488634D01*
X143372685Y-108726729D02*
X143372685Y-109107681D01*
X143182209Y-109345777D02*
X143682209Y-109345777D01*
X143444114Y-109345777D02*
X143444114Y-109631491D01*
X143182209Y-109631491D02*
X143682209Y-109631491D01*
D10*
X161398295Y-97313001D02*
X161398295Y-95313001D01*
X161874485Y-95313001D01*
X162160200Y-95408240D01*
X162350676Y-95598716D01*
X162445914Y-95789192D01*
X162541152Y-96170144D01*
X162541152Y-96455859D01*
X162445914Y-96836811D01*
X162350676Y-97027287D01*
X162160200Y-97217763D01*
X161874485Y-97313001D01*
X161398295Y-97313001D01*
X164541152Y-97122525D02*
X164445914Y-97217763D01*
X164160200Y-97313001D01*
X163969723Y-97313001D01*
X163684009Y-97217763D01*
X163493533Y-97027287D01*
X163398295Y-96836811D01*
X163303057Y-96455859D01*
X163303057Y-96170144D01*
X163398295Y-95789192D01*
X163493533Y-95598716D01*
X163684009Y-95408240D01*
X163969723Y-95313001D01*
X164160200Y-95313001D01*
X164445914Y-95408240D01*
X164541152Y-95503478D01*
X165398295Y-96551097D02*
X166922104Y-96551097D01*
X148396035Y-97252041D02*
X148396035Y-95252041D01*
X148872225Y-95252041D01*
X149157940Y-95347280D01*
X149348416Y-95537756D01*
X149443654Y-95728232D01*
X149538892Y-96109184D01*
X149538892Y-96394899D01*
X149443654Y-96775851D01*
X149348416Y-96966327D01*
X149157940Y-97156803D01*
X148872225Y-97252041D01*
X148396035Y-97252041D01*
X151538892Y-97061565D02*
X151443654Y-97156803D01*
X151157940Y-97252041D01*
X150967463Y-97252041D01*
X150681749Y-97156803D01*
X150491273Y-96966327D01*
X150396035Y-96775851D01*
X150300797Y-96394899D01*
X150300797Y-96109184D01*
X150396035Y-95728232D01*
X150491273Y-95537756D01*
X150681749Y-95347280D01*
X150967463Y-95252041D01*
X151157940Y-95252041D01*
X151443654Y-95347280D01*
X151538892Y-95442518D01*
X152396035Y-96490137D02*
X153919844Y-96490137D01*
X153157940Y-97252041D02*
X153157940Y-95728232D01*
X125520628Y-97203781D02*
X125520628Y-95203781D01*
X126282533Y-95203781D01*
X126473009Y-95299020D01*
X126568247Y-95394258D01*
X126663485Y-95584734D01*
X126663485Y-95870448D01*
X126568247Y-96060924D01*
X126473009Y-96156162D01*
X126282533Y-96251400D01*
X125520628Y-96251400D01*
X127520628Y-96156162D02*
X128187295Y-96156162D01*
X128473009Y-97203781D02*
X127520628Y-97203781D01*
X127520628Y-95203781D01*
X128473009Y-95203781D01*
X118379311Y-97183461D02*
X118379311Y-95183461D01*
X119522168Y-97183461D01*
X119522168Y-95183461D01*
X105023207Y-97013281D02*
X104070826Y-97013281D01*
X104070826Y-95013281D01*
%TO.C,J1*%
X145378846Y-101037140D02*
X145378846Y-101751426D01*
X145331227Y-101894283D01*
X145235989Y-101989521D01*
X145093132Y-102037140D01*
X144997894Y-102037140D01*
X146378846Y-102037140D02*
X145807418Y-102037140D01*
X146093132Y-102037140D02*
X146093132Y-101037140D01*
X145997894Y-101179998D01*
X145902656Y-101275236D01*
X145807418Y-101322855D01*
%TO.C,J3*%
X166801206Y-98598740D02*
X166801206Y-99313026D01*
X166753587Y-99455883D01*
X166658349Y-99551121D01*
X166515492Y-99598740D01*
X166420254Y-99598740D01*
X167182159Y-98598740D02*
X167801206Y-98598740D01*
X167467873Y-98979693D01*
X167610730Y-98979693D01*
X167705968Y-99027312D01*
X167753587Y-99074931D01*
X167801206Y-99170169D01*
X167801206Y-99408264D01*
X167753587Y-99503502D01*
X167705968Y-99551121D01*
X167610730Y-99598740D01*
X167325016Y-99598740D01*
X167229778Y-99551121D01*
X167182159Y-99503502D01*
%TO.C,J2*%
X130618906Y-98596200D02*
X130618906Y-99310486D01*
X130571287Y-99453343D01*
X130476049Y-99548581D01*
X130333192Y-99596200D01*
X130237954Y-99596200D01*
X131047478Y-98691439D02*
X131095097Y-98643820D01*
X131190335Y-98596200D01*
X131428430Y-98596200D01*
X131523668Y-98643820D01*
X131571287Y-98691439D01*
X131618906Y-98786677D01*
X131618906Y-98881915D01*
X131571287Y-99024772D01*
X130999859Y-99596200D01*
X131618906Y-99596200D01*
%TO.C,G\u002A\u002A\u002A*%
G36*
X111729482Y-92719481D02*
G01*
X111748554Y-92772371D01*
X111748897Y-92787355D01*
X111762330Y-92849245D01*
X111815220Y-92868317D01*
X111830203Y-92868661D01*
X111892094Y-92882093D01*
X111911166Y-92934983D01*
X111911509Y-92949967D01*
X111898077Y-93011857D01*
X111845187Y-93030929D01*
X111830203Y-93031273D01*
X111768313Y-93017840D01*
X111749240Y-92964950D01*
X111748897Y-92949967D01*
X111735464Y-92888076D01*
X111682574Y-92869004D01*
X111667591Y-92868661D01*
X111605700Y-92855228D01*
X111586628Y-92802338D01*
X111586285Y-92787355D01*
X111599718Y-92725464D01*
X111652608Y-92706392D01*
X111667591Y-92706049D01*
X111729482Y-92719481D01*
G37*
G36*
X111404258Y-93044705D02*
G01*
X111423330Y-93097595D01*
X111423673Y-93112579D01*
X111410240Y-93174469D01*
X111357350Y-93193541D01*
X111342367Y-93193885D01*
X111280476Y-93180452D01*
X111261404Y-93127562D01*
X111261061Y-93112579D01*
X111274494Y-93050688D01*
X111327384Y-93031616D01*
X111342367Y-93031273D01*
X111404258Y-93044705D01*
G37*
G36*
X110916421Y-92719481D02*
G01*
X110935494Y-92772371D01*
X110935837Y-92787355D01*
X110922404Y-92849245D01*
X110869514Y-92868317D01*
X110854531Y-92868661D01*
X110806277Y-92873933D01*
X110782204Y-92900839D01*
X110773995Y-92966013D01*
X110773225Y-93031273D01*
X110770589Y-93127781D01*
X110757136Y-93175927D01*
X110724549Y-93192344D01*
X110691919Y-93193885D01*
X110630028Y-93207317D01*
X110610956Y-93260207D01*
X110610613Y-93275191D01*
X110597180Y-93337081D01*
X110544290Y-93356154D01*
X110529307Y-93356497D01*
X110481052Y-93351225D01*
X110456980Y-93324319D01*
X110448771Y-93259145D01*
X110448001Y-93193885D01*
X110450637Y-93097376D01*
X110464090Y-93049230D01*
X110496677Y-93032813D01*
X110529307Y-93031273D01*
X110591197Y-93017840D01*
X110610269Y-92964950D01*
X110610613Y-92949967D01*
X110624045Y-92888076D01*
X110676935Y-92869004D01*
X110691919Y-92868661D01*
X110753809Y-92855228D01*
X110772881Y-92802338D01*
X110773225Y-92787355D01*
X110786657Y-92725464D01*
X110839547Y-92706392D01*
X110854531Y-92706049D01*
X110916421Y-92719481D01*
G37*
G36*
X112203681Y-94012217D02*
G01*
X112227754Y-94039123D01*
X112235963Y-94104297D01*
X112236733Y-94169557D01*
X112236733Y-94332169D01*
X112074121Y-94332169D01*
X111977613Y-94329533D01*
X111929467Y-94316080D01*
X111913050Y-94283493D01*
X111911509Y-94250863D01*
X111924942Y-94188973D01*
X111977832Y-94169900D01*
X111992815Y-94169557D01*
X112054706Y-94156124D01*
X112073778Y-94103234D01*
X112074121Y-94088251D01*
X112087554Y-94026360D01*
X112140444Y-94007288D01*
X112155427Y-94006945D01*
X112203681Y-94012217D01*
G37*
G36*
X111729482Y-94182990D02*
G01*
X111748554Y-94235880D01*
X111748897Y-94250863D01*
X111735464Y-94312754D01*
X111682574Y-94331826D01*
X111667591Y-94332169D01*
X111605700Y-94318737D01*
X111586628Y-94265847D01*
X111586285Y-94250863D01*
X111599718Y-94188973D01*
X111652608Y-94169900D01*
X111667591Y-94169557D01*
X111729482Y-94182990D01*
G37*
G36*
X112705154Y-94996050D02*
G01*
X112724226Y-95048940D01*
X112724569Y-95063923D01*
X112711137Y-95125814D01*
X112658247Y-95144886D01*
X112643263Y-95145229D01*
X112581373Y-95131797D01*
X112562301Y-95078907D01*
X112561957Y-95063923D01*
X112575390Y-95002033D01*
X112628280Y-94982961D01*
X112643263Y-94982617D01*
X112705154Y-94996050D01*
G37*
G36*
X112821078Y-95310477D02*
G01*
X112869224Y-95323930D01*
X112885641Y-95356517D01*
X112887181Y-95389147D01*
X112881909Y-95437402D01*
X112855003Y-95461475D01*
X112789829Y-95469683D01*
X112724569Y-95470453D01*
X112628061Y-95467817D01*
X112579915Y-95454364D01*
X112563498Y-95421777D01*
X112561957Y-95389147D01*
X112567229Y-95340893D01*
X112594135Y-95316820D01*
X112659309Y-95308612D01*
X112724569Y-95307841D01*
X112821078Y-95310477D01*
G37*
G36*
X114350690Y-91079928D02*
G01*
X114350690Y-91892989D01*
X113537629Y-91892989D01*
X113537629Y-91242540D01*
X113700241Y-91242540D01*
X113700241Y-91730377D01*
X114188078Y-91730377D01*
X114188078Y-91242540D01*
X113700241Y-91242540D01*
X113537629Y-91242540D01*
X113537629Y-91079928D01*
X114350690Y-91079928D01*
G37*
G36*
X109472329Y-91079928D02*
G01*
X109472329Y-91892989D01*
X108659268Y-91892989D01*
X108659268Y-91242540D01*
X108821880Y-91242540D01*
X108821880Y-91730377D01*
X109309717Y-91730377D01*
X109309717Y-91242540D01*
X108821880Y-91242540D01*
X108659268Y-91242540D01*
X108659268Y-91079928D01*
X109472329Y-91079928D01*
G37*
G36*
X111892094Y-91093361D02*
G01*
X111911166Y-91146251D01*
X111911509Y-91161234D01*
X111898077Y-91223125D01*
X111845187Y-91242197D01*
X111830203Y-91242540D01*
X111768313Y-91229108D01*
X111749240Y-91176218D01*
X111748897Y-91161234D01*
X111762330Y-91099344D01*
X111815220Y-91080272D01*
X111830203Y-91079928D01*
X111892094Y-91093361D01*
G37*
G36*
X110103361Y-91255973D02*
G01*
X110122433Y-91308863D01*
X110122777Y-91323846D01*
X110109344Y-91385737D01*
X110056454Y-91404809D01*
X110041471Y-91405152D01*
X109979580Y-91391720D01*
X109960508Y-91338830D01*
X109960165Y-91323846D01*
X109973597Y-91261956D01*
X110026487Y-91242884D01*
X110041471Y-91242540D01*
X110103361Y-91255973D01*
G37*
G36*
X111241645Y-91255973D02*
G01*
X111260718Y-91308863D01*
X111261061Y-91323846D01*
X111274494Y-91385737D01*
X111327384Y-91404809D01*
X111342367Y-91405152D01*
X111404258Y-91418585D01*
X111423330Y-91471475D01*
X111423673Y-91486458D01*
X111437106Y-91548349D01*
X111489996Y-91567421D01*
X111504979Y-91567764D01*
X111566870Y-91581197D01*
X111585942Y-91634087D01*
X111586285Y-91649071D01*
X111581013Y-91697325D01*
X111554107Y-91721398D01*
X111488933Y-91729606D01*
X111423673Y-91730377D01*
X111261061Y-91730377D01*
X111261061Y-91567764D01*
X111258425Y-91471256D01*
X111244972Y-91423110D01*
X111212385Y-91406693D01*
X111179755Y-91405152D01*
X111117864Y-91391720D01*
X111098792Y-91338830D01*
X111098449Y-91323846D01*
X111111881Y-91261956D01*
X111164772Y-91242884D01*
X111179755Y-91242540D01*
X111241645Y-91255973D01*
G37*
G36*
X110219285Y-91570401D02*
G01*
X110267431Y-91583854D01*
X110283848Y-91616440D01*
X110285389Y-91649071D01*
X110280117Y-91697325D01*
X110253211Y-91721398D01*
X110188037Y-91729606D01*
X110122777Y-91730377D01*
X110026268Y-91727740D01*
X109978122Y-91714287D01*
X109961705Y-91681701D01*
X109960165Y-91649071D01*
X109965437Y-91600816D01*
X109992343Y-91576743D01*
X110057517Y-91568535D01*
X110122777Y-91567764D01*
X110219285Y-91570401D01*
G37*
G36*
X112379930Y-91906421D02*
G01*
X112399002Y-91959311D01*
X112399345Y-91974295D01*
X112385913Y-92036185D01*
X112333023Y-92055257D01*
X112318039Y-92055601D01*
X112256149Y-92042168D01*
X112237077Y-91989278D01*
X112236733Y-91974295D01*
X112250166Y-91912404D01*
X112303056Y-91893332D01*
X112318039Y-91892989D01*
X112379930Y-91906421D01*
G37*
G36*
X110103361Y-91906421D02*
G01*
X110122433Y-91959311D01*
X110122777Y-91974295D01*
X110109344Y-92036185D01*
X110056454Y-92055257D01*
X110041471Y-92055601D01*
X109979580Y-92042168D01*
X109960508Y-91989278D01*
X109960165Y-91974295D01*
X109973597Y-91912404D01*
X110026487Y-91893332D01*
X110041471Y-91892989D01*
X110103361Y-91906421D01*
G37*
G36*
X109615525Y-92394257D02*
G01*
X109634597Y-92447147D01*
X109634941Y-92462131D01*
X109621508Y-92524021D01*
X109568618Y-92543093D01*
X109553635Y-92543437D01*
X109491744Y-92530004D01*
X109472672Y-92477114D01*
X109472329Y-92462131D01*
X109485761Y-92400240D01*
X109538651Y-92381168D01*
X109553635Y-92380825D01*
X109615525Y-92394257D01*
G37*
G36*
X113680826Y-92556869D02*
G01*
X113699898Y-92609759D01*
X113700241Y-92624743D01*
X113686809Y-92686633D01*
X113633919Y-92705705D01*
X113618935Y-92706049D01*
X113557045Y-92692616D01*
X113537973Y-92639726D01*
X113537629Y-92624743D01*
X113551062Y-92562852D01*
X113603952Y-92543780D01*
X113618935Y-92543437D01*
X113680826Y-92556869D01*
G37*
G36*
X108802465Y-93532541D02*
G01*
X108821537Y-93585432D01*
X108821880Y-93600415D01*
X108808448Y-93662305D01*
X108755558Y-93681378D01*
X108740574Y-93681721D01*
X108678684Y-93668288D01*
X108659612Y-93615398D01*
X108659268Y-93600415D01*
X108672701Y-93538524D01*
X108725591Y-93519452D01*
X108740574Y-93519109D01*
X108802465Y-93532541D01*
G37*
G36*
X109114053Y-93524381D02*
G01*
X109138126Y-93551287D01*
X109146334Y-93616461D01*
X109147104Y-93681721D01*
X109144468Y-93778230D01*
X109131015Y-93826375D01*
X109098428Y-93842793D01*
X109065798Y-93844333D01*
X109017544Y-93839061D01*
X108993471Y-93812155D01*
X108985263Y-93746981D01*
X108984492Y-93681721D01*
X108987129Y-93585212D01*
X109000582Y-93537066D01*
X109033168Y-93520649D01*
X109065798Y-93519109D01*
X109114053Y-93524381D01*
G37*
G36*
X114331274Y-95321274D02*
G01*
X114350346Y-95374164D01*
X114350690Y-95389147D01*
X114337257Y-95451038D01*
X114284367Y-95470110D01*
X114269384Y-95470453D01*
X114207493Y-95457021D01*
X114188421Y-95404131D01*
X114188078Y-95389147D01*
X114201510Y-95327257D01*
X114254400Y-95308185D01*
X114269384Y-95307841D01*
X114331274Y-95321274D01*
G37*
G36*
X113700241Y-95633065D02*
G01*
X113700241Y-96120901D01*
X113212405Y-96120901D01*
X113212405Y-95876983D01*
X113375017Y-95876983D01*
X113388450Y-95938874D01*
X113441340Y-95957946D01*
X113456323Y-95958289D01*
X113518214Y-95944857D01*
X113537286Y-95891967D01*
X113537629Y-95876983D01*
X113524197Y-95815093D01*
X113471307Y-95796021D01*
X113456323Y-95795677D01*
X113394433Y-95809110D01*
X113375361Y-95862000D01*
X113375017Y-95876983D01*
X113212405Y-95876983D01*
X113212405Y-95633065D01*
X113700241Y-95633065D01*
G37*
G36*
X110591197Y-96134334D02*
G01*
X110610269Y-96187224D01*
X110610613Y-96202208D01*
X110597180Y-96264098D01*
X110544290Y-96283170D01*
X110529307Y-96283514D01*
X110467416Y-96270081D01*
X110448344Y-96217191D01*
X110448001Y-96202208D01*
X110461433Y-96140317D01*
X110514323Y-96121245D01*
X110529307Y-96120901D01*
X110591197Y-96134334D01*
G37*
G36*
X110265973Y-96296946D02*
G01*
X110285045Y-96349836D01*
X110285389Y-96364820D01*
X110271956Y-96426710D01*
X110219066Y-96445782D01*
X110204083Y-96446126D01*
X110142192Y-96432693D01*
X110123120Y-96379803D01*
X110122777Y-96364820D01*
X110136209Y-96302929D01*
X110189099Y-96283857D01*
X110204083Y-96283514D01*
X110265973Y-96296946D01*
G37*
G36*
X113308914Y-96286150D02*
G01*
X113357060Y-96299603D01*
X113373477Y-96332190D01*
X113375017Y-96364820D01*
X113388450Y-96426710D01*
X113441340Y-96445782D01*
X113456323Y-96446126D01*
X113518214Y-96459558D01*
X113537286Y-96512448D01*
X113537629Y-96527432D01*
X113524197Y-96589322D01*
X113471307Y-96608394D01*
X113456323Y-96608738D01*
X113394433Y-96595305D01*
X113375361Y-96542415D01*
X113375017Y-96527432D01*
X113369745Y-96479177D01*
X113342839Y-96455104D01*
X113277665Y-96446896D01*
X113212405Y-96446126D01*
X113115897Y-96443489D01*
X113067751Y-96430036D01*
X113051334Y-96397450D01*
X113049793Y-96364820D01*
X113055066Y-96316565D01*
X113081972Y-96292492D01*
X113147145Y-96284284D01*
X113212405Y-96283514D01*
X113308914Y-96286150D01*
G37*
G36*
X114155026Y-94662665D02*
G01*
X114179099Y-94689571D01*
X114187307Y-94754745D01*
X114188078Y-94820005D01*
X114185441Y-94916514D01*
X114171989Y-94964660D01*
X114139402Y-94981077D01*
X114106772Y-94982617D01*
X114025466Y-94982617D01*
X114025466Y-94820005D01*
X114028102Y-94723497D01*
X114041555Y-94675351D01*
X114074142Y-94658934D01*
X114106772Y-94657393D01*
X114155026Y-94662665D01*
G37*
G36*
X112908475Y-94185266D02*
G01*
X112955643Y-94173571D01*
X113045427Y-94169856D01*
X113131099Y-94169557D01*
X113375017Y-94169557D01*
X113375017Y-94006945D01*
X113372797Y-93925639D01*
X113537629Y-93925639D01*
X113551062Y-93987530D01*
X113603952Y-94006602D01*
X113618935Y-94006945D01*
X113680826Y-93993512D01*
X113699898Y-93940622D01*
X113700241Y-93925639D01*
X113686809Y-93863748D01*
X113633919Y-93844676D01*
X113618935Y-93844333D01*
X113557045Y-93857766D01*
X113537973Y-93910656D01*
X113537629Y-93925639D01*
X113372797Y-93925639D01*
X113372381Y-93910436D01*
X113358928Y-93862291D01*
X113326341Y-93845873D01*
X113293711Y-93844333D01*
X113231821Y-93857766D01*
X113212749Y-93910656D01*
X113212405Y-93925639D01*
X113198973Y-93987530D01*
X113146083Y-94006602D01*
X113131099Y-94006945D01*
X113069209Y-93993512D01*
X113050137Y-93940622D01*
X113049793Y-93925639D01*
X113063226Y-93863748D01*
X113116116Y-93844676D01*
X113131099Y-93844333D01*
X113192990Y-93830900D01*
X113212062Y-93778010D01*
X113212405Y-93763027D01*
X113198973Y-93701136D01*
X113146083Y-93682064D01*
X113131099Y-93681721D01*
X113089744Y-93678681D01*
X113065502Y-93660428D01*
X113053807Y-93613259D01*
X113053276Y-93600415D01*
X113212405Y-93600415D01*
X113217678Y-93648669D01*
X113244584Y-93672742D01*
X113309757Y-93680951D01*
X113375017Y-93681721D01*
X113471526Y-93679085D01*
X113519672Y-93665632D01*
X113536089Y-93633045D01*
X113537629Y-93600415D01*
X113700241Y-93600415D01*
X113713674Y-93662305D01*
X113766564Y-93681378D01*
X113781548Y-93681721D01*
X113843438Y-93668288D01*
X113862510Y-93615398D01*
X113862854Y-93600415D01*
X113849421Y-93538524D01*
X113796531Y-93519452D01*
X113781548Y-93519109D01*
X113719657Y-93532541D01*
X113700585Y-93585432D01*
X113700241Y-93600415D01*
X113537629Y-93600415D01*
X113532357Y-93552161D01*
X113505451Y-93528088D01*
X113440277Y-93519879D01*
X113375017Y-93519109D01*
X113278509Y-93521745D01*
X113230363Y-93535198D01*
X113213946Y-93567785D01*
X113212405Y-93600415D01*
X113053276Y-93600415D01*
X113050092Y-93523475D01*
X113049793Y-93437803D01*
X113050807Y-93313736D01*
X113056891Y-93241011D01*
X113072614Y-93205926D01*
X113102542Y-93194782D01*
X113131099Y-93193885D01*
X113192990Y-93207317D01*
X113212062Y-93260207D01*
X113212405Y-93275191D01*
X113225838Y-93337081D01*
X113278728Y-93356154D01*
X113293711Y-93356497D01*
X113341966Y-93351225D01*
X113366039Y-93324319D01*
X113374247Y-93259145D01*
X113375017Y-93193885D01*
X113377654Y-93097376D01*
X113391107Y-93049230D01*
X113423693Y-93032813D01*
X113456323Y-93031273D01*
X113504578Y-93036545D01*
X113528651Y-93063451D01*
X113536859Y-93128625D01*
X113537629Y-93193885D01*
X113540266Y-93290393D01*
X113553719Y-93338539D01*
X113586305Y-93354956D01*
X113618935Y-93356497D01*
X113660291Y-93353457D01*
X113684533Y-93335204D01*
X113696228Y-93288035D01*
X113699943Y-93198251D01*
X113700241Y-93112579D01*
X113701255Y-92988512D01*
X113707339Y-92915787D01*
X113723062Y-92880702D01*
X113752990Y-92869557D01*
X113781548Y-92868661D01*
X113843438Y-92882093D01*
X113862510Y-92934983D01*
X113862854Y-92949967D01*
X113876286Y-93011857D01*
X113929176Y-93030929D01*
X113944160Y-93031273D01*
X113992414Y-93026001D01*
X114016487Y-92999095D01*
X114024695Y-92933921D01*
X114025466Y-92868661D01*
X114028102Y-92772152D01*
X114041555Y-92724006D01*
X114074142Y-92707589D01*
X114106772Y-92706049D01*
X114155026Y-92711321D01*
X114179099Y-92738227D01*
X114187307Y-92803401D01*
X114188078Y-92868661D01*
X114185441Y-92965169D01*
X114171989Y-93013315D01*
X114139402Y-93029732D01*
X114106772Y-93031273D01*
X114044881Y-93044705D01*
X114025809Y-93097595D01*
X114025466Y-93112579D01*
X114038898Y-93174469D01*
X114091788Y-93193541D01*
X114106772Y-93193885D01*
X114168662Y-93207317D01*
X114187734Y-93260207D01*
X114188078Y-93275191D01*
X114201510Y-93337081D01*
X114254400Y-93356154D01*
X114269384Y-93356497D01*
X114331274Y-93369929D01*
X114350346Y-93422819D01*
X114350690Y-93437803D01*
X114337257Y-93499693D01*
X114284367Y-93518766D01*
X114269384Y-93519109D01*
X114207493Y-93505676D01*
X114188421Y-93452786D01*
X114188078Y-93437803D01*
X114174645Y-93375912D01*
X114121755Y-93356840D01*
X114106772Y-93356497D01*
X114044881Y-93343064D01*
X114025809Y-93290174D01*
X114025466Y-93275191D01*
X114012033Y-93213300D01*
X113959143Y-93194228D01*
X113944160Y-93193885D01*
X113895905Y-93199157D01*
X113871832Y-93226063D01*
X113863624Y-93291237D01*
X113862854Y-93356497D01*
X113865490Y-93453005D01*
X113878943Y-93501151D01*
X113911530Y-93517569D01*
X113944160Y-93519109D01*
X113992414Y-93524381D01*
X114016487Y-93551287D01*
X114024695Y-93616461D01*
X114025466Y-93681721D01*
X114022829Y-93778230D01*
X114009376Y-93826375D01*
X113976790Y-93842793D01*
X113944160Y-93844333D01*
X113895905Y-93849605D01*
X113871832Y-93876511D01*
X113863624Y-93941685D01*
X113862854Y-94006945D01*
X113865490Y-94103454D01*
X113878943Y-94151600D01*
X113911530Y-94168017D01*
X113944160Y-94169557D01*
X113992414Y-94174829D01*
X114016487Y-94201735D01*
X114024695Y-94266909D01*
X114025466Y-94332169D01*
X114022829Y-94428678D01*
X114009376Y-94476824D01*
X113976790Y-94493241D01*
X113944160Y-94494781D01*
X113895905Y-94500053D01*
X113871832Y-94526959D01*
X113863624Y-94592133D01*
X113862854Y-94657393D01*
X113860217Y-94753902D01*
X113846764Y-94802048D01*
X113814178Y-94818465D01*
X113781548Y-94820005D01*
X113719657Y-94806573D01*
X113700585Y-94753683D01*
X113700241Y-94738699D01*
X113686809Y-94676809D01*
X113633919Y-94657737D01*
X113618935Y-94657393D01*
X113557045Y-94643961D01*
X113537973Y-94591071D01*
X113537629Y-94576087D01*
X113524197Y-94514197D01*
X113471307Y-94495125D01*
X113456323Y-94494781D01*
X113394433Y-94508214D01*
X113375361Y-94561104D01*
X113375017Y-94576087D01*
X113361585Y-94637978D01*
X113308695Y-94657050D01*
X113293711Y-94657393D01*
X113231821Y-94670826D01*
X113212749Y-94723716D01*
X113212405Y-94738699D01*
X113198973Y-94800590D01*
X113146083Y-94819662D01*
X113131099Y-94820005D01*
X113082845Y-94825277D01*
X113058772Y-94852183D01*
X113050564Y-94917357D01*
X113049793Y-94982617D01*
X113049793Y-95145229D01*
X113212405Y-95145229D01*
X113308914Y-95147865D01*
X113357060Y-95161318D01*
X113373477Y-95193905D01*
X113375017Y-95226535D01*
X113388450Y-95288426D01*
X113441340Y-95307498D01*
X113456323Y-95307841D01*
X113504578Y-95302569D01*
X113528651Y-95275663D01*
X113536859Y-95210489D01*
X113537629Y-95145229D01*
X113537629Y-94982617D01*
X114025466Y-94982617D01*
X114025466Y-95633065D01*
X114106772Y-95633065D01*
X114168662Y-95646498D01*
X114187734Y-95699388D01*
X114188078Y-95714371D01*
X114201510Y-95776262D01*
X114254400Y-95795334D01*
X114269384Y-95795677D01*
X114331274Y-95809110D01*
X114350346Y-95862000D01*
X114350690Y-95876983D01*
X114337257Y-95938874D01*
X114284367Y-95957946D01*
X114269384Y-95958289D01*
X114207493Y-95971722D01*
X114188421Y-96024612D01*
X114188078Y-96039595D01*
X114174645Y-96101486D01*
X114121755Y-96120558D01*
X114106772Y-96120901D01*
X114044881Y-96134334D01*
X114025809Y-96187224D01*
X114025466Y-96202208D01*
X114012033Y-96264098D01*
X113959143Y-96283170D01*
X113944160Y-96283514D01*
X113882269Y-96270081D01*
X113863197Y-96217191D01*
X113862854Y-96202208D01*
X113876286Y-96140317D01*
X113929176Y-96121245D01*
X113944160Y-96120901D01*
X114006050Y-96107469D01*
X114025122Y-96054579D01*
X114025466Y-96039595D01*
X114038898Y-95977705D01*
X114091788Y-95958633D01*
X114106772Y-95958289D01*
X114168662Y-95944857D01*
X114187734Y-95891967D01*
X114188078Y-95876983D01*
X114174645Y-95815093D01*
X114121755Y-95796021D01*
X114106772Y-95795677D01*
X114044881Y-95782245D01*
X114025809Y-95729355D01*
X114025466Y-95714371D01*
X114012033Y-95652481D01*
X113959143Y-95633409D01*
X113944160Y-95633065D01*
X113902804Y-95630026D01*
X113878562Y-95611772D01*
X113866867Y-95564604D01*
X113863152Y-95474820D01*
X113862854Y-95389147D01*
X113861840Y-95265080D01*
X113855756Y-95192355D01*
X113840033Y-95157271D01*
X113810105Y-95146126D01*
X113781548Y-95145229D01*
X113733293Y-95150501D01*
X113709220Y-95177407D01*
X113701012Y-95242581D01*
X113700241Y-95307841D01*
X113700241Y-95470453D01*
X113537629Y-95470453D01*
X113441121Y-95467817D01*
X113392975Y-95454364D01*
X113376558Y-95421777D01*
X113375017Y-95389147D01*
X113361585Y-95327257D01*
X113308695Y-95308185D01*
X113293711Y-95307841D01*
X113231821Y-95321274D01*
X113212749Y-95374164D01*
X113212405Y-95389147D01*
X113198973Y-95451038D01*
X113146083Y-95470110D01*
X113131099Y-95470453D01*
X113082845Y-95475726D01*
X113058772Y-95502632D01*
X113050564Y-95567805D01*
X113049793Y-95633065D01*
X113049793Y-95795677D01*
X112887181Y-95795677D01*
X112790673Y-95798314D01*
X112742527Y-95811767D01*
X112726110Y-95844353D01*
X112724569Y-95876983D01*
X112738002Y-95938874D01*
X112790892Y-95957946D01*
X112805875Y-95958289D01*
X112867766Y-95971722D01*
X112886838Y-96024612D01*
X112887181Y-96039595D01*
X112881909Y-96087850D01*
X112855003Y-96111923D01*
X112789829Y-96120131D01*
X112724569Y-96120901D01*
X112561957Y-96120901D01*
X112561957Y-95958289D01*
X112559321Y-95861781D01*
X112545868Y-95813635D01*
X112513281Y-95797218D01*
X112480651Y-95795677D01*
X112418761Y-95782245D01*
X112399689Y-95729355D01*
X112399345Y-95714371D01*
X112396305Y-95673016D01*
X112378052Y-95648774D01*
X112330884Y-95637079D01*
X112241099Y-95633364D01*
X112155427Y-95633065D01*
X112031360Y-95634079D01*
X111958635Y-95640163D01*
X111923551Y-95655886D01*
X111912406Y-95685814D01*
X111911509Y-95714371D01*
X111898077Y-95776262D01*
X111845187Y-95795334D01*
X111830203Y-95795677D01*
X111781949Y-95800950D01*
X111757876Y-95827856D01*
X111749667Y-95893029D01*
X111748897Y-95958289D01*
X111751533Y-96054798D01*
X111764986Y-96102944D01*
X111797573Y-96119361D01*
X111830203Y-96120901D01*
X111892094Y-96134334D01*
X111911166Y-96187224D01*
X111911509Y-96202208D01*
X111908469Y-96243563D01*
X111890216Y-96267805D01*
X111843047Y-96279500D01*
X111753263Y-96283215D01*
X111667591Y-96283514D01*
X111423673Y-96283514D01*
X111423673Y-96446126D01*
X111426309Y-96542634D01*
X111439762Y-96590780D01*
X111472349Y-96607197D01*
X111504979Y-96608738D01*
X111566870Y-96595305D01*
X111585942Y-96542415D01*
X111586285Y-96527432D01*
X111589325Y-96486076D01*
X111607578Y-96461834D01*
X111654747Y-96450139D01*
X111744531Y-96446424D01*
X111830203Y-96446126D01*
X111954270Y-96447139D01*
X112026995Y-96453223D01*
X112062080Y-96468946D01*
X112073224Y-96498874D01*
X112074121Y-96527432D01*
X112087554Y-96589322D01*
X112140444Y-96608394D01*
X112155427Y-96608738D01*
X112217318Y-96622170D01*
X112236390Y-96675060D01*
X112236733Y-96690044D01*
X112236733Y-96771350D01*
X111423673Y-96771350D01*
X111423673Y-96690044D01*
X111410240Y-96628153D01*
X111357350Y-96609081D01*
X111342367Y-96608738D01*
X111280476Y-96622170D01*
X111261404Y-96675060D01*
X111261061Y-96690044D01*
X111255789Y-96738298D01*
X111228883Y-96762371D01*
X111163709Y-96770579D01*
X111098449Y-96771350D01*
X111001940Y-96768714D01*
X110953794Y-96755261D01*
X110937377Y-96722674D01*
X110935837Y-96690044D01*
X110922404Y-96628153D01*
X110869514Y-96609081D01*
X110854531Y-96608738D01*
X110792640Y-96595305D01*
X110773568Y-96542415D01*
X110773225Y-96527432D01*
X110786657Y-96465541D01*
X110839547Y-96446469D01*
X110854531Y-96446126D01*
X110916421Y-96459558D01*
X110935494Y-96512448D01*
X110935837Y-96527432D01*
X110941109Y-96575686D01*
X110968015Y-96599759D01*
X111033189Y-96607967D01*
X111098449Y-96608738D01*
X111261061Y-96608738D01*
X111261061Y-96446126D01*
X111258425Y-96349617D01*
X111244972Y-96301471D01*
X111212385Y-96285054D01*
X111179755Y-96283514D01*
X111117864Y-96270081D01*
X111098792Y-96217191D01*
X111098449Y-96202208D01*
X111101489Y-96160852D01*
X111119742Y-96136610D01*
X111166911Y-96124915D01*
X111256695Y-96121200D01*
X111342367Y-96120901D01*
X111466434Y-96119888D01*
X111539159Y-96113804D01*
X111574244Y-96098081D01*
X111585388Y-96068153D01*
X111586285Y-96039595D01*
X111572852Y-95977705D01*
X111519962Y-95958633D01*
X111504979Y-95958289D01*
X111443088Y-95944857D01*
X111424016Y-95891967D01*
X111423673Y-95876983D01*
X111418401Y-95828729D01*
X111391495Y-95804656D01*
X111326321Y-95796448D01*
X111261061Y-95795677D01*
X111164552Y-95798314D01*
X111116406Y-95811767D01*
X111099989Y-95844353D01*
X111098449Y-95876983D01*
X111085016Y-95938874D01*
X111032126Y-95957946D01*
X111017143Y-95958289D01*
X110968889Y-95963562D01*
X110944816Y-95990468D01*
X110936607Y-96055641D01*
X110935837Y-96120901D01*
X110933201Y-96217410D01*
X110919748Y-96265556D01*
X110887161Y-96281973D01*
X110854531Y-96283514D01*
X110806277Y-96278241D01*
X110782204Y-96251335D01*
X110773995Y-96186162D01*
X110773225Y-96120901D01*
X110775861Y-96024393D01*
X110789314Y-95976247D01*
X110821901Y-95959830D01*
X110854531Y-95958289D01*
X110895887Y-95955250D01*
X110920128Y-95936996D01*
X110931823Y-95889828D01*
X110935538Y-95800044D01*
X110935837Y-95714371D01*
X111423673Y-95714371D01*
X111428945Y-95762626D01*
X111455851Y-95786699D01*
X111521025Y-95794907D01*
X111586285Y-95795677D01*
X111682794Y-95793041D01*
X111730940Y-95779588D01*
X111747357Y-95747001D01*
X111748897Y-95714371D01*
X111762330Y-95652481D01*
X111815220Y-95633409D01*
X111830203Y-95633065D01*
X111878457Y-95627793D01*
X111902530Y-95600887D01*
X111910739Y-95535713D01*
X111911509Y-95470453D01*
X111908873Y-95373945D01*
X111895420Y-95325799D01*
X111862833Y-95309382D01*
X111830203Y-95307841D01*
X111781949Y-95313114D01*
X111757876Y-95340020D01*
X111749667Y-95405193D01*
X111748897Y-95470453D01*
X111748897Y-95633065D01*
X111586285Y-95633065D01*
X111489776Y-95635701D01*
X111441631Y-95649154D01*
X111425213Y-95681741D01*
X111423673Y-95714371D01*
X110935837Y-95714371D01*
X110936850Y-95590304D01*
X110942935Y-95517579D01*
X110958657Y-95482495D01*
X110988585Y-95471350D01*
X111017143Y-95470453D01*
X111079033Y-95483886D01*
X111098106Y-95536776D01*
X111098449Y-95551759D01*
X111103721Y-95600014D01*
X111130627Y-95624087D01*
X111195801Y-95632295D01*
X111261061Y-95633065D01*
X111357570Y-95630429D01*
X111405715Y-95616976D01*
X111422133Y-95584389D01*
X111423673Y-95551759D01*
X111410240Y-95489869D01*
X111357350Y-95470797D01*
X111342367Y-95470453D01*
X111280476Y-95457021D01*
X111261404Y-95404131D01*
X111261061Y-95389147D01*
X111274494Y-95327257D01*
X111327384Y-95308185D01*
X111342367Y-95307841D01*
X111404258Y-95321274D01*
X111423330Y-95374164D01*
X111423673Y-95389147D01*
X111437106Y-95451038D01*
X111489996Y-95470110D01*
X111504979Y-95470453D01*
X111553233Y-95465181D01*
X111577306Y-95438275D01*
X111585515Y-95373101D01*
X111586285Y-95307841D01*
X111583649Y-95211333D01*
X111570196Y-95163187D01*
X111537609Y-95146770D01*
X111504979Y-95145229D01*
X111443088Y-95131797D01*
X111424016Y-95078907D01*
X111423673Y-95063923D01*
X111748897Y-95063923D01*
X111754169Y-95112178D01*
X111781075Y-95136250D01*
X111846249Y-95144459D01*
X111911509Y-95145229D01*
X112008018Y-95147865D01*
X112056164Y-95161318D01*
X112072581Y-95193905D01*
X112074121Y-95226535D01*
X112087554Y-95288426D01*
X112140444Y-95307498D01*
X112155427Y-95307841D01*
X112217318Y-95294409D01*
X112236390Y-95241519D01*
X112236733Y-95226535D01*
X112223301Y-95164645D01*
X112170411Y-95145573D01*
X112155427Y-95145229D01*
X112093537Y-95131797D01*
X112074465Y-95078907D01*
X112074121Y-95063923D01*
X112079393Y-95015669D01*
X112106299Y-94991596D01*
X112171473Y-94983387D01*
X112236733Y-94982617D01*
X112333242Y-94985253D01*
X112381388Y-94998706D01*
X112397805Y-95031293D01*
X112399345Y-95063923D01*
X112412778Y-95125814D01*
X112465668Y-95144886D01*
X112480651Y-95145229D01*
X112542542Y-95158662D01*
X112561614Y-95211552D01*
X112561957Y-95226535D01*
X112548525Y-95288426D01*
X112495635Y-95307498D01*
X112480651Y-95307841D01*
X112432397Y-95313114D01*
X112408324Y-95340020D01*
X112400115Y-95405193D01*
X112399345Y-95470453D01*
X112401981Y-95566962D01*
X112415434Y-95615108D01*
X112448021Y-95631525D01*
X112480651Y-95633065D01*
X112542542Y-95646498D01*
X112561614Y-95699388D01*
X112561957Y-95714371D01*
X112575390Y-95776262D01*
X112628280Y-95795334D01*
X112643263Y-95795677D01*
X112705154Y-95782245D01*
X112724226Y-95729355D01*
X112724569Y-95714371D01*
X112738002Y-95652481D01*
X112790892Y-95633409D01*
X112805875Y-95633065D01*
X112867766Y-95619633D01*
X112886838Y-95566743D01*
X112887181Y-95551759D01*
X112900614Y-95489869D01*
X112953504Y-95470797D01*
X112968487Y-95470453D01*
X113030378Y-95457021D01*
X113049450Y-95404131D01*
X113049793Y-95389147D01*
X113036361Y-95327257D01*
X112983471Y-95308185D01*
X112968487Y-95307841D01*
X112927132Y-95304801D01*
X112902890Y-95286548D01*
X112891195Y-95239380D01*
X112887480Y-95149595D01*
X112887181Y-95063923D01*
X112888195Y-94939856D01*
X112894279Y-94867131D01*
X112910002Y-94832047D01*
X112939930Y-94820902D01*
X112968487Y-94820005D01*
X113016742Y-94814733D01*
X113040815Y-94787827D01*
X113049023Y-94722653D01*
X113049793Y-94657393D01*
X113052429Y-94560885D01*
X113065882Y-94512739D01*
X113098469Y-94496322D01*
X113131099Y-94494781D01*
X113192990Y-94481349D01*
X113212062Y-94428459D01*
X113212405Y-94413475D01*
X113207133Y-94365221D01*
X113180227Y-94341148D01*
X113115053Y-94332939D01*
X113049793Y-94332169D01*
X112887181Y-94332169D01*
X112887181Y-94494781D01*
X112884545Y-94591290D01*
X112871092Y-94639436D01*
X112838505Y-94655853D01*
X112805875Y-94657393D01*
X112743985Y-94670826D01*
X112724913Y-94723716D01*
X112724569Y-94738699D01*
X112711137Y-94800590D01*
X112658247Y-94819662D01*
X112643263Y-94820005D01*
X112581373Y-94833438D01*
X112562301Y-94886328D01*
X112561957Y-94901311D01*
X112548525Y-94963202D01*
X112495635Y-94982274D01*
X112480651Y-94982617D01*
X112418761Y-94969185D01*
X112399689Y-94916295D01*
X112399345Y-94901311D01*
X112394073Y-94853057D01*
X112367167Y-94828984D01*
X112301993Y-94820775D01*
X112236733Y-94820005D01*
X112140225Y-94822641D01*
X112092079Y-94836094D01*
X112075662Y-94868681D01*
X112074121Y-94901311D01*
X112068849Y-94949566D01*
X112041943Y-94973638D01*
X111976769Y-94981847D01*
X111911509Y-94982617D01*
X111815001Y-94985253D01*
X111766855Y-94998706D01*
X111750437Y-95031293D01*
X111748897Y-95063923D01*
X111423673Y-95063923D01*
X111418401Y-95015669D01*
X111391495Y-94991596D01*
X111326321Y-94983387D01*
X111261061Y-94982617D01*
X111164552Y-94985253D01*
X111116406Y-94998706D01*
X111099989Y-95031293D01*
X111098449Y-95063923D01*
X111085016Y-95125814D01*
X111032126Y-95144886D01*
X111017143Y-95145229D01*
X110968889Y-95139957D01*
X110944816Y-95113051D01*
X110936607Y-95047877D01*
X110935837Y-94982617D01*
X110935837Y-94820005D01*
X111748897Y-94820005D01*
X111748897Y-94738699D01*
X111735464Y-94676809D01*
X111682574Y-94657737D01*
X111667591Y-94657393D01*
X111605700Y-94643961D01*
X111586628Y-94591071D01*
X111586285Y-94576087D01*
X111581013Y-94527833D01*
X111554107Y-94503760D01*
X111488933Y-94495551D01*
X111423673Y-94494781D01*
X111327164Y-94492145D01*
X111279019Y-94478692D01*
X111262601Y-94446105D01*
X111261061Y-94413475D01*
X111247628Y-94351585D01*
X111194738Y-94332512D01*
X111179755Y-94332169D01*
X111138399Y-94329129D01*
X111114158Y-94310876D01*
X111102463Y-94263707D01*
X111098748Y-94173923D01*
X111098449Y-94088251D01*
X111097436Y-93964184D01*
X111091351Y-93891459D01*
X111075628Y-93856374D01*
X111045700Y-93845230D01*
X111017143Y-93844333D01*
X110955252Y-93857766D01*
X110936180Y-93910656D01*
X110935837Y-93925639D01*
X110922404Y-93987530D01*
X110869514Y-94006602D01*
X110854531Y-94006945D01*
X110806277Y-94001673D01*
X110782204Y-93974767D01*
X110773995Y-93909593D01*
X110773225Y-93844333D01*
X110770589Y-93747824D01*
X110757136Y-93699679D01*
X110724549Y-93683261D01*
X110691919Y-93681721D01*
X110630028Y-93695154D01*
X110610956Y-93748044D01*
X110610613Y-93763027D01*
X110605341Y-93811281D01*
X110578435Y-93835354D01*
X110513261Y-93843563D01*
X110448001Y-93844333D01*
X110351492Y-93846969D01*
X110303346Y-93860422D01*
X110286929Y-93893009D01*
X110285389Y-93925639D01*
X110298821Y-93987530D01*
X110351711Y-94006602D01*
X110366695Y-94006945D01*
X110428585Y-94020378D01*
X110447657Y-94073268D01*
X110448001Y-94088251D01*
X110461433Y-94150142D01*
X110514323Y-94169214D01*
X110529307Y-94169557D01*
X110591197Y-94182990D01*
X110610269Y-94235880D01*
X110610613Y-94250863D01*
X110624045Y-94312754D01*
X110676935Y-94331826D01*
X110691919Y-94332169D01*
X110753809Y-94318737D01*
X110772881Y-94265847D01*
X110773225Y-94250863D01*
X110786657Y-94188973D01*
X110839547Y-94169900D01*
X110854531Y-94169557D01*
X110895887Y-94172597D01*
X110920128Y-94190850D01*
X110931823Y-94238019D01*
X110935538Y-94327803D01*
X110935837Y-94413475D01*
X110934824Y-94537542D01*
X110928739Y-94610267D01*
X110913016Y-94645352D01*
X110883088Y-94656497D01*
X110854531Y-94657393D01*
X110792640Y-94643961D01*
X110773568Y-94591071D01*
X110773225Y-94576087D01*
X110759792Y-94514197D01*
X110706902Y-94495125D01*
X110691919Y-94494781D01*
X110650563Y-94497821D01*
X110626321Y-94516074D01*
X110614627Y-94563243D01*
X110610912Y-94653027D01*
X110610613Y-94738699D01*
X110609600Y-94862766D01*
X110603515Y-94935491D01*
X110587792Y-94970576D01*
X110557864Y-94981721D01*
X110529307Y-94982617D01*
X110467416Y-94996050D01*
X110448344Y-95048940D01*
X110448001Y-95063923D01*
X110453273Y-95112178D01*
X110480179Y-95136250D01*
X110545353Y-95144459D01*
X110610613Y-95145229D01*
X110773225Y-95145229D01*
X110773225Y-95389147D01*
X110772212Y-95513214D01*
X110766127Y-95585939D01*
X110750404Y-95621024D01*
X110720476Y-95632169D01*
X110691919Y-95633065D01*
X110630028Y-95619633D01*
X110610956Y-95566743D01*
X110610613Y-95551759D01*
X110597180Y-95489869D01*
X110544290Y-95470797D01*
X110529307Y-95470453D01*
X110467416Y-95483886D01*
X110448344Y-95536776D01*
X110448001Y-95551759D01*
X110434568Y-95613650D01*
X110381678Y-95632722D01*
X110366695Y-95633065D01*
X110304804Y-95619633D01*
X110285732Y-95566743D01*
X110285389Y-95551759D01*
X110271956Y-95489869D01*
X110219066Y-95470797D01*
X110204083Y-95470453D01*
X110142192Y-95457021D01*
X110123120Y-95404131D01*
X110122777Y-95389147D01*
X110285389Y-95389147D01*
X110298821Y-95451038D01*
X110351711Y-95470110D01*
X110366695Y-95470453D01*
X110428585Y-95457021D01*
X110447657Y-95404131D01*
X110448001Y-95389147D01*
X110434568Y-95327257D01*
X110381678Y-95308185D01*
X110366695Y-95307841D01*
X110304804Y-95321274D01*
X110285732Y-95374164D01*
X110285389Y-95389147D01*
X110122777Y-95389147D01*
X110136209Y-95327257D01*
X110189099Y-95308185D01*
X110204083Y-95307841D01*
X110265973Y-95294409D01*
X110285045Y-95241519D01*
X110285389Y-95226535D01*
X110280117Y-95178281D01*
X110253211Y-95154208D01*
X110188037Y-95145999D01*
X110122777Y-95145229D01*
X110026268Y-95142593D01*
X109978122Y-95129140D01*
X109961705Y-95096553D01*
X109960165Y-95063923D01*
X109946732Y-95002033D01*
X109893842Y-94982961D01*
X109878859Y-94982617D01*
X109816968Y-94996050D01*
X109797896Y-95048940D01*
X109797553Y-95063923D01*
X109792280Y-95112178D01*
X109765374Y-95136250D01*
X109700201Y-95144459D01*
X109634941Y-95145229D01*
X109538432Y-95147865D01*
X109490286Y-95161318D01*
X109473869Y-95193905D01*
X109472329Y-95226535D01*
X109469289Y-95267891D01*
X109451035Y-95292133D01*
X109403867Y-95303827D01*
X109314083Y-95307542D01*
X109228411Y-95307841D01*
X108984492Y-95307841D01*
X108984492Y-95063923D01*
X108985506Y-94939856D01*
X108991590Y-94867131D01*
X109007313Y-94832047D01*
X109037241Y-94820902D01*
X109065798Y-94820005D01*
X109147104Y-94820005D01*
X109147104Y-95145229D01*
X109309717Y-95145229D01*
X109406225Y-95142593D01*
X109454371Y-95129140D01*
X109470788Y-95096553D01*
X109472329Y-95063923D01*
X109477601Y-95015669D01*
X109504507Y-94991596D01*
X109569681Y-94983387D01*
X109634941Y-94982617D01*
X109731449Y-94979981D01*
X109779595Y-94966528D01*
X109796012Y-94933941D01*
X109797553Y-94901311D01*
X109810985Y-94839421D01*
X109863875Y-94820349D01*
X109878859Y-94820005D01*
X109940749Y-94833438D01*
X109959821Y-94886328D01*
X109960165Y-94901311D01*
X109973597Y-94963202D01*
X110026487Y-94982274D01*
X110041471Y-94982617D01*
X110089725Y-94977345D01*
X110113798Y-94950439D01*
X110122007Y-94885265D01*
X110122777Y-94820005D01*
X110125413Y-94723497D01*
X110138866Y-94675351D01*
X110171453Y-94658934D01*
X110204083Y-94657393D01*
X110265973Y-94643961D01*
X110285045Y-94591071D01*
X110285389Y-94576087D01*
X110280117Y-94527833D01*
X110253211Y-94503760D01*
X110188037Y-94495551D01*
X110122777Y-94494781D01*
X110026268Y-94497417D01*
X109978122Y-94510870D01*
X109961705Y-94543457D01*
X109960165Y-94576087D01*
X109946732Y-94637978D01*
X109893842Y-94657050D01*
X109878859Y-94657393D01*
X109816968Y-94670826D01*
X109797896Y-94723716D01*
X109797553Y-94738699D01*
X109797553Y-94820005D01*
X109147104Y-94820005D01*
X109065798Y-94820005D01*
X109127689Y-94806573D01*
X109146761Y-94753683D01*
X109147104Y-94738699D01*
X109147104Y-94657393D01*
X109797553Y-94657393D01*
X109797553Y-94494781D01*
X109794917Y-94398273D01*
X109781464Y-94350127D01*
X109748877Y-94333710D01*
X109716247Y-94332169D01*
X109654356Y-94345602D01*
X109635284Y-94398492D01*
X109634941Y-94413475D01*
X109631901Y-94454831D01*
X109613647Y-94479072D01*
X109566479Y-94490767D01*
X109476695Y-94494482D01*
X109391023Y-94494781D01*
X109266956Y-94493768D01*
X109194230Y-94487683D01*
X109159146Y-94471961D01*
X109148001Y-94442033D01*
X109147104Y-94413475D01*
X109150144Y-94372119D01*
X109168398Y-94347878D01*
X109215566Y-94336183D01*
X109305350Y-94332468D01*
X109391023Y-94332169D01*
X109515089Y-94331156D01*
X109587815Y-94325071D01*
X109622899Y-94309349D01*
X109634044Y-94279420D01*
X109634941Y-94250863D01*
X109634941Y-94169557D01*
X108984492Y-94169557D01*
X108984492Y-94250863D01*
X108971060Y-94312754D01*
X108918170Y-94331826D01*
X108903186Y-94332169D01*
X108854932Y-94326897D01*
X108830859Y-94299991D01*
X108822651Y-94234817D01*
X108821880Y-94169557D01*
X108821880Y-94088251D01*
X109797553Y-94088251D01*
X109810985Y-94150142D01*
X109863875Y-94169214D01*
X109878859Y-94169557D01*
X109940749Y-94156124D01*
X109959821Y-94103234D01*
X109960165Y-94088251D01*
X109946732Y-94026360D01*
X109893842Y-94007288D01*
X109878859Y-94006945D01*
X109816968Y-94020378D01*
X109797896Y-94073268D01*
X109797553Y-94088251D01*
X108821880Y-94088251D01*
X108821880Y-94006945D01*
X109797553Y-94006945D01*
X109797553Y-93925639D01*
X109794513Y-93884283D01*
X109776259Y-93860042D01*
X109729091Y-93848347D01*
X109639307Y-93844632D01*
X109553635Y-93844333D01*
X109309717Y-93844333D01*
X109309717Y-93600415D01*
X109472329Y-93600415D01*
X109485761Y-93662305D01*
X109538651Y-93681378D01*
X109553635Y-93681721D01*
X109615525Y-93668288D01*
X109634597Y-93615398D01*
X109634941Y-93600415D01*
X109621508Y-93538524D01*
X109568618Y-93519452D01*
X109553635Y-93519109D01*
X109491744Y-93532541D01*
X109472672Y-93585432D01*
X109472329Y-93600415D01*
X109309717Y-93600415D01*
X109309717Y-93356497D01*
X109147104Y-93356497D01*
X109050596Y-93353861D01*
X109002450Y-93340408D01*
X108986033Y-93307821D01*
X108984492Y-93275191D01*
X109472329Y-93275191D01*
X109477601Y-93323445D01*
X109504507Y-93347518D01*
X109569681Y-93355727D01*
X109634941Y-93356497D01*
X109731449Y-93359133D01*
X109779595Y-93372586D01*
X109796012Y-93405173D01*
X109797553Y-93437803D01*
X109810985Y-93499693D01*
X109863875Y-93518766D01*
X109878859Y-93519109D01*
X109940749Y-93532541D01*
X109959821Y-93585432D01*
X109960165Y-93600415D01*
X109965437Y-93648669D01*
X109992343Y-93672742D01*
X110057517Y-93680951D01*
X110122777Y-93681721D01*
X110219285Y-93679085D01*
X110267431Y-93665632D01*
X110283848Y-93633045D01*
X110285389Y-93600415D01*
X110298821Y-93538524D01*
X110351711Y-93519452D01*
X110366695Y-93519109D01*
X110428585Y-93532541D01*
X110447657Y-93585432D01*
X110448001Y-93600415D01*
X110461433Y-93662305D01*
X110514323Y-93681378D01*
X110529307Y-93681721D01*
X110577561Y-93676449D01*
X110601634Y-93649543D01*
X110609843Y-93584369D01*
X110610613Y-93519109D01*
X110613249Y-93422600D01*
X110626702Y-93374454D01*
X110659289Y-93358037D01*
X110691919Y-93356497D01*
X110740173Y-93361769D01*
X110764246Y-93388675D01*
X110772455Y-93453849D01*
X110773225Y-93519109D01*
X110773225Y-93681721D01*
X110935837Y-93681721D01*
X111032345Y-93679085D01*
X111080491Y-93665632D01*
X111096909Y-93633045D01*
X111098449Y-93600415D01*
X111085016Y-93538524D01*
X111032126Y-93519452D01*
X111017143Y-93519109D01*
X110935837Y-93519109D01*
X110935837Y-92868661D01*
X111017143Y-92868661D01*
X111065397Y-92873933D01*
X111089470Y-92900839D01*
X111097679Y-92966013D01*
X111098449Y-93031273D01*
X111101085Y-93127781D01*
X111114538Y-93175927D01*
X111147125Y-93192344D01*
X111179755Y-93193885D01*
X111261061Y-93193885D01*
X111261061Y-94006945D01*
X111342367Y-94006945D01*
X111404258Y-93993512D01*
X111423330Y-93940622D01*
X111423673Y-93925639D01*
X111437106Y-93863748D01*
X111489996Y-93844676D01*
X111504979Y-93844333D01*
X111553233Y-93849605D01*
X111577306Y-93876511D01*
X111585515Y-93941685D01*
X111586285Y-94006945D01*
X111586285Y-94169557D01*
X111423673Y-94169557D01*
X111327164Y-94172193D01*
X111279019Y-94185646D01*
X111262601Y-94218233D01*
X111261061Y-94250863D01*
X111266333Y-94299117D01*
X111293239Y-94323190D01*
X111358413Y-94331399D01*
X111423673Y-94332169D01*
X111520182Y-94334805D01*
X111568327Y-94348258D01*
X111584745Y-94380845D01*
X111586285Y-94413475D01*
X111589325Y-94454831D01*
X111607578Y-94479072D01*
X111654747Y-94490767D01*
X111744531Y-94494482D01*
X111830203Y-94494781D01*
X111954270Y-94495794D01*
X112026995Y-94501879D01*
X112062080Y-94517602D01*
X112073224Y-94547530D01*
X112074121Y-94576087D01*
X112079393Y-94624341D01*
X112106299Y-94648414D01*
X112171473Y-94656623D01*
X112236733Y-94657393D01*
X112333242Y-94654757D01*
X112381388Y-94641304D01*
X112397805Y-94608717D01*
X112399345Y-94576087D01*
X112385913Y-94514197D01*
X112333023Y-94495125D01*
X112318039Y-94494781D01*
X112256149Y-94481349D01*
X112237077Y-94428459D01*
X112236733Y-94413475D01*
X112250166Y-94351585D01*
X112303056Y-94332512D01*
X112318039Y-94332169D01*
X112366293Y-94326897D01*
X112390366Y-94299991D01*
X112398575Y-94234817D01*
X112399345Y-94169557D01*
X112396709Y-94073048D01*
X112383256Y-94024903D01*
X112350669Y-94008485D01*
X112318039Y-94006945D01*
X112256149Y-93993512D01*
X112237077Y-93940622D01*
X112236733Y-93925639D01*
X112223301Y-93863748D01*
X112170411Y-93844676D01*
X112155427Y-93844333D01*
X112093537Y-93830900D01*
X112074465Y-93778010D01*
X112074121Y-93763027D01*
X112060689Y-93701136D01*
X112007799Y-93682064D01*
X111992815Y-93681721D01*
X111930925Y-93695154D01*
X111911852Y-93748044D01*
X111911509Y-93763027D01*
X111898077Y-93824918D01*
X111845187Y-93843990D01*
X111830203Y-93844333D01*
X111768313Y-93830900D01*
X111749240Y-93778010D01*
X111748897Y-93763027D01*
X111743625Y-93714773D01*
X111716719Y-93690700D01*
X111651545Y-93682491D01*
X111586285Y-93681721D01*
X111489776Y-93679085D01*
X111441631Y-93665632D01*
X111425213Y-93633045D01*
X111423673Y-93600415D01*
X111428945Y-93552161D01*
X111455851Y-93528088D01*
X111521025Y-93519879D01*
X111586285Y-93519109D01*
X111682794Y-93516473D01*
X111730940Y-93503020D01*
X111747357Y-93470433D01*
X111748897Y-93437803D01*
X111735464Y-93375912D01*
X111682574Y-93356840D01*
X111667591Y-93356497D01*
X111619337Y-93351225D01*
X111595264Y-93324319D01*
X111587055Y-93259145D01*
X111586285Y-93193885D01*
X111588921Y-93097376D01*
X111602374Y-93049230D01*
X111634961Y-93032813D01*
X111667591Y-93031273D01*
X111729482Y-93044705D01*
X111748554Y-93097595D01*
X111748897Y-93112579D01*
X111754169Y-93160833D01*
X111781075Y-93184906D01*
X111846249Y-93193115D01*
X111911509Y-93193885D01*
X112008018Y-93196521D01*
X112056164Y-93209974D01*
X112072581Y-93242561D01*
X112074121Y-93275191D01*
X112087554Y-93337081D01*
X112140444Y-93356154D01*
X112155427Y-93356497D01*
X112217318Y-93343064D01*
X112236390Y-93290174D01*
X112236733Y-93275191D01*
X112223301Y-93213300D01*
X112170411Y-93194228D01*
X112155427Y-93193885D01*
X112093537Y-93180452D01*
X112074465Y-93127562D01*
X112074121Y-93112579D01*
X112077161Y-93071223D01*
X112095414Y-93046981D01*
X112142583Y-93035287D01*
X112232367Y-93031572D01*
X112318039Y-93031273D01*
X112442106Y-93030260D01*
X112514831Y-93024175D01*
X112549916Y-93008452D01*
X112561061Y-92978524D01*
X112561957Y-92949967D01*
X112556685Y-92901712D01*
X112529779Y-92877640D01*
X112464605Y-92869431D01*
X112399345Y-92868661D01*
X112302837Y-92866025D01*
X112254691Y-92852572D01*
X112238274Y-92819985D01*
X112236733Y-92787355D01*
X112250166Y-92725464D01*
X112303056Y-92706392D01*
X112318039Y-92706049D01*
X112366293Y-92700777D01*
X112390366Y-92673871D01*
X112398575Y-92608697D01*
X112399345Y-92543437D01*
X112396709Y-92446928D01*
X112383256Y-92398782D01*
X112350669Y-92382365D01*
X112318039Y-92380825D01*
X112256149Y-92394257D01*
X112237077Y-92447147D01*
X112236733Y-92462131D01*
X112236733Y-92543437D01*
X111586285Y-92543437D01*
X111586285Y-92624743D01*
X111572852Y-92686633D01*
X111519962Y-92705705D01*
X111504979Y-92706049D01*
X111443088Y-92719481D01*
X111424016Y-92772371D01*
X111423673Y-92787355D01*
X111410240Y-92849245D01*
X111357350Y-92868317D01*
X111342367Y-92868661D01*
X111280476Y-92855228D01*
X111261404Y-92802338D01*
X111261061Y-92787355D01*
X111255789Y-92739100D01*
X111228883Y-92715028D01*
X111163709Y-92706819D01*
X111098449Y-92706049D01*
X111001940Y-92703413D01*
X110953794Y-92689960D01*
X110937377Y-92657373D01*
X110935837Y-92624743D01*
X110922404Y-92562852D01*
X110869514Y-92543780D01*
X110854531Y-92543437D01*
X110792640Y-92556869D01*
X110773568Y-92609759D01*
X110773225Y-92624743D01*
X110759792Y-92686633D01*
X110706902Y-92705705D01*
X110691919Y-92706049D01*
X110630028Y-92692616D01*
X110610956Y-92639726D01*
X110610613Y-92624743D01*
X110597180Y-92562852D01*
X110544290Y-92543780D01*
X110529307Y-92543437D01*
X110467416Y-92530004D01*
X110448344Y-92477114D01*
X110448001Y-92462131D01*
X111261061Y-92462131D01*
X111274494Y-92524021D01*
X111327384Y-92543093D01*
X111342367Y-92543437D01*
X111404258Y-92530004D01*
X111423330Y-92477114D01*
X111423673Y-92462131D01*
X111410240Y-92400240D01*
X111357350Y-92381168D01*
X111342367Y-92380825D01*
X111280476Y-92394257D01*
X111261404Y-92447147D01*
X111261061Y-92462131D01*
X110448001Y-92462131D01*
X110461433Y-92400240D01*
X110514323Y-92381168D01*
X110529307Y-92380825D01*
X110591197Y-92367392D01*
X110610269Y-92314502D01*
X110610613Y-92299519D01*
X110773225Y-92299519D01*
X110786657Y-92361409D01*
X110839547Y-92380481D01*
X110854531Y-92380825D01*
X110916421Y-92367392D01*
X110935494Y-92314502D01*
X110935837Y-92299519D01*
X110922404Y-92237628D01*
X110869514Y-92218556D01*
X110854531Y-92218213D01*
X110792640Y-92231645D01*
X110773568Y-92284535D01*
X110773225Y-92299519D01*
X110610613Y-92299519D01*
X110597180Y-92237628D01*
X110544290Y-92218556D01*
X110529307Y-92218213D01*
X110467416Y-92231645D01*
X110448344Y-92284535D01*
X110448001Y-92299519D01*
X110434568Y-92361409D01*
X110381678Y-92380481D01*
X110366695Y-92380825D01*
X110304804Y-92394257D01*
X110285732Y-92447147D01*
X110285389Y-92462131D01*
X110298821Y-92524021D01*
X110351711Y-92543093D01*
X110366695Y-92543437D01*
X110414949Y-92548709D01*
X110439022Y-92575615D01*
X110447231Y-92640789D01*
X110448001Y-92706049D01*
X110445365Y-92802557D01*
X110431912Y-92850703D01*
X110399325Y-92867120D01*
X110366695Y-92868661D01*
X110325339Y-92871701D01*
X110301097Y-92889954D01*
X110289403Y-92937122D01*
X110285688Y-93026907D01*
X110285389Y-93112579D01*
X110285389Y-93356497D01*
X110122777Y-93356497D01*
X110026268Y-93353861D01*
X109978122Y-93340408D01*
X109961705Y-93307821D01*
X109960165Y-93275191D01*
X109957125Y-93233835D01*
X109938871Y-93209594D01*
X109891703Y-93197899D01*
X109801919Y-93194184D01*
X109716247Y-93193885D01*
X109592180Y-93194898D01*
X109519455Y-93200983D01*
X109484370Y-93216705D01*
X109473225Y-93246633D01*
X109472329Y-93275191D01*
X108984492Y-93275191D01*
X108989765Y-93226937D01*
X109016671Y-93202864D01*
X109081844Y-93194655D01*
X109147104Y-93193885D01*
X109243613Y-93191249D01*
X109291759Y-93177796D01*
X109308176Y-93145209D01*
X109309717Y-93112579D01*
X109309717Y-93031273D01*
X109960165Y-93031273D01*
X109960165Y-92949967D01*
X109957125Y-92908611D01*
X109938871Y-92884369D01*
X109891703Y-92872675D01*
X109801919Y-92868960D01*
X109716247Y-92868661D01*
X109592180Y-92867648D01*
X109519455Y-92861563D01*
X109484370Y-92845840D01*
X109473225Y-92815912D01*
X109472329Y-92787355D01*
X109472329Y-92706049D01*
X110122777Y-92706049D01*
X110122777Y-92543437D01*
X110125413Y-92446928D01*
X110138866Y-92398782D01*
X110171453Y-92382365D01*
X110204083Y-92380825D01*
X110245438Y-92377785D01*
X110269680Y-92359531D01*
X110281375Y-92312363D01*
X110285090Y-92222579D01*
X110285389Y-92136907D01*
X110286402Y-92012840D01*
X110292487Y-91940115D01*
X110308209Y-91905030D01*
X110338137Y-91893885D01*
X110366695Y-91892989D01*
X110428585Y-91906421D01*
X110447657Y-91959311D01*
X110448001Y-91974295D01*
X110461433Y-92036185D01*
X110514323Y-92055257D01*
X110529307Y-92055601D01*
X110591197Y-92042168D01*
X110610269Y-91989278D01*
X110610613Y-91974295D01*
X110624045Y-91912404D01*
X110676935Y-91893332D01*
X110691919Y-91892989D01*
X110753809Y-91906421D01*
X110772881Y-91959311D01*
X110773225Y-91974295D01*
X110786657Y-92036185D01*
X110839547Y-92055257D01*
X110854531Y-92055601D01*
X110916421Y-92042168D01*
X110935494Y-91989278D01*
X110935837Y-91974295D01*
X110949269Y-91912404D01*
X111002159Y-91893332D01*
X111017143Y-91892989D01*
X111058499Y-91896028D01*
X111082740Y-91914282D01*
X111094435Y-91961450D01*
X111098150Y-92051234D01*
X111098449Y-92136907D01*
X111099462Y-92260974D01*
X111105547Y-92333699D01*
X111121269Y-92368783D01*
X111151198Y-92379928D01*
X111179755Y-92380825D01*
X111241645Y-92367392D01*
X111260718Y-92314502D01*
X111261061Y-92299519D01*
X111274494Y-92237628D01*
X111327384Y-92218556D01*
X111342367Y-92218213D01*
X111404258Y-92204780D01*
X111423330Y-92151890D01*
X111423673Y-92136907D01*
X111410240Y-92075016D01*
X111357350Y-92055944D01*
X111342367Y-92055601D01*
X111280476Y-92042168D01*
X111261404Y-91989278D01*
X111261061Y-91974295D01*
X111274494Y-91912404D01*
X111327384Y-91893332D01*
X111342367Y-91892989D01*
X111404258Y-91906421D01*
X111423330Y-91959311D01*
X111423673Y-91974295D01*
X111437106Y-92036185D01*
X111489996Y-92055257D01*
X111504979Y-92055601D01*
X111566870Y-92069033D01*
X111585942Y-92121923D01*
X111586285Y-92136907D01*
X111591557Y-92185161D01*
X111618463Y-92209234D01*
X111683637Y-92217442D01*
X111748897Y-92218213D01*
X111845406Y-92220849D01*
X111893552Y-92234302D01*
X111909969Y-92266889D01*
X111911509Y-92299519D01*
X111916781Y-92347773D01*
X111943687Y-92371846D01*
X112008861Y-92380054D01*
X112074121Y-92380825D01*
X112170630Y-92378189D01*
X112218776Y-92364736D01*
X112235193Y-92332149D01*
X112236733Y-92299519D01*
X112239773Y-92258163D01*
X112258027Y-92233921D01*
X112305195Y-92222226D01*
X112394979Y-92218512D01*
X112480651Y-92218213D01*
X112604718Y-92217199D01*
X112677443Y-92211115D01*
X112712528Y-92195392D01*
X112723673Y-92165464D01*
X112724569Y-92136907D01*
X112711137Y-92075016D01*
X112658247Y-92055944D01*
X112643263Y-92055601D01*
X112581373Y-92042168D01*
X112562301Y-91989278D01*
X112561957Y-91974295D01*
X112575390Y-91912404D01*
X112628280Y-91893332D01*
X112643263Y-91892989D01*
X112705154Y-91906421D01*
X112724226Y-91959311D01*
X112724569Y-91974295D01*
X112738002Y-92036185D01*
X112790892Y-92055257D01*
X112805875Y-92055601D01*
X112867766Y-92069033D01*
X112886838Y-92121923D01*
X112887181Y-92136907D01*
X112900614Y-92198797D01*
X112953504Y-92217869D01*
X112968487Y-92218213D01*
X113016742Y-92223485D01*
X113040815Y-92250391D01*
X113049023Y-92315565D01*
X113049793Y-92380825D01*
X113047157Y-92477333D01*
X113033704Y-92525479D01*
X113001117Y-92541896D01*
X112968487Y-92543437D01*
X112920233Y-92538164D01*
X112896160Y-92511259D01*
X112887952Y-92446085D01*
X112887181Y-92380825D01*
X112884545Y-92284316D01*
X112871092Y-92236170D01*
X112838505Y-92219753D01*
X112805875Y-92218213D01*
X112743985Y-92231645D01*
X112724913Y-92284535D01*
X112724569Y-92299519D01*
X112711137Y-92361409D01*
X112658247Y-92380481D01*
X112643263Y-92380825D01*
X112595009Y-92386097D01*
X112570936Y-92413003D01*
X112562727Y-92478177D01*
X112561957Y-92543437D01*
X112564593Y-92639945D01*
X112578046Y-92688091D01*
X112610633Y-92704508D01*
X112643263Y-92706049D01*
X112705154Y-92719481D01*
X112724226Y-92772371D01*
X112724569Y-92787355D01*
X112738002Y-92849245D01*
X112790892Y-92868317D01*
X112805875Y-92868661D01*
X112854130Y-92873933D01*
X112878203Y-92900839D01*
X112886411Y-92966013D01*
X112887181Y-93031273D01*
X112884545Y-93127781D01*
X112871092Y-93175927D01*
X112838505Y-93192344D01*
X112805875Y-93193885D01*
X112743985Y-93180452D01*
X112724913Y-93127562D01*
X112724569Y-93112579D01*
X112711137Y-93050688D01*
X112658247Y-93031616D01*
X112643263Y-93031273D01*
X112581373Y-93044705D01*
X112562301Y-93097595D01*
X112561957Y-93112579D01*
X112548525Y-93174469D01*
X112495635Y-93193541D01*
X112480651Y-93193885D01*
X112418761Y-93207317D01*
X112399689Y-93260207D01*
X112399345Y-93275191D01*
X112385913Y-93337081D01*
X112333023Y-93356154D01*
X112318039Y-93356497D01*
X112256149Y-93369929D01*
X112237077Y-93422819D01*
X112236733Y-93437803D01*
X112223301Y-93499693D01*
X112170411Y-93518766D01*
X112155427Y-93519109D01*
X112093537Y-93532541D01*
X112074465Y-93585432D01*
X112074121Y-93600415D01*
X112087554Y-93662305D01*
X112140444Y-93681378D01*
X112155427Y-93681721D01*
X112217318Y-93695154D01*
X112236390Y-93748044D01*
X112236733Y-93763027D01*
X112250166Y-93824918D01*
X112303056Y-93843990D01*
X112318039Y-93844333D01*
X112366293Y-93839061D01*
X112390366Y-93812155D01*
X112398575Y-93746981D01*
X112399345Y-93681721D01*
X112401981Y-93585212D01*
X112415434Y-93537066D01*
X112448021Y-93520649D01*
X112480651Y-93519109D01*
X112542542Y-93505676D01*
X112561614Y-93452786D01*
X112561957Y-93437803D01*
X112567229Y-93389549D01*
X112594135Y-93365476D01*
X112659309Y-93357267D01*
X112724569Y-93356497D01*
X112821078Y-93359133D01*
X112869224Y-93372586D01*
X112885641Y-93405173D01*
X112887181Y-93437803D01*
X112881909Y-93486057D01*
X112855003Y-93510130D01*
X112789829Y-93518339D01*
X112724569Y-93519109D01*
X112628061Y-93521745D01*
X112579915Y-93535198D01*
X112563498Y-93567785D01*
X112561957Y-93600415D01*
X112575390Y-93662305D01*
X112628280Y-93681378D01*
X112643263Y-93681721D01*
X112705154Y-93695154D01*
X112724226Y-93748044D01*
X112724569Y-93763027D01*
X112719297Y-93811281D01*
X112692391Y-93835354D01*
X112627217Y-93843563D01*
X112561957Y-93844333D01*
X112465449Y-93846969D01*
X112417303Y-93860422D01*
X112400886Y-93893009D01*
X112399345Y-93925639D01*
X112404617Y-93973893D01*
X112431523Y-93997966D01*
X112496697Y-94006175D01*
X112561957Y-94006945D01*
X112658466Y-94009581D01*
X112706612Y-94023034D01*
X112723029Y-94055621D01*
X112724569Y-94088251D01*
X112711137Y-94150142D01*
X112658247Y-94169214D01*
X112643263Y-94169557D01*
X112581373Y-94182990D01*
X112562301Y-94235880D01*
X112561957Y-94250863D01*
X112567229Y-94299117D01*
X112594135Y-94323190D01*
X112659309Y-94331399D01*
X112724569Y-94332169D01*
X112821078Y-94329533D01*
X112869224Y-94316080D01*
X112885641Y-94283493D01*
X112887181Y-94250863D01*
X113375017Y-94250863D01*
X113388450Y-94312754D01*
X113441340Y-94331826D01*
X113456323Y-94332169D01*
X113518214Y-94345602D01*
X113537286Y-94398492D01*
X113537629Y-94413475D01*
X113542902Y-94461729D01*
X113569808Y-94485802D01*
X113634981Y-94494011D01*
X113700241Y-94494781D01*
X113862854Y-94494781D01*
X113862854Y-94169557D01*
X113618935Y-94169557D01*
X113494869Y-94170570D01*
X113422143Y-94176655D01*
X113387059Y-94192378D01*
X113375914Y-94222306D01*
X113375017Y-94250863D01*
X112887181Y-94250863D01*
X112890221Y-94209507D01*
X112908475Y-94185266D01*
G37*
G36*
X109472329Y-95958289D02*
G01*
X109472329Y-96771350D01*
X108659268Y-96771350D01*
X108659268Y-96120901D01*
X108821880Y-96120901D01*
X108821880Y-96608738D01*
X109309717Y-96608738D01*
X109309717Y-96120901D01*
X108821880Y-96120901D01*
X108659268Y-96120901D01*
X108659268Y-95958289D01*
X109472329Y-95958289D01*
G37*
G36*
X114773481Y-90689660D02*
G01*
X114773481Y-97194141D01*
X108269000Y-97194141D01*
X108269000Y-95795677D01*
X108496656Y-95795677D01*
X108496656Y-96933962D01*
X109634941Y-96933962D01*
X109634941Y-95795677D01*
X108496656Y-95795677D01*
X108269000Y-95795677D01*
X108269000Y-94982617D01*
X108496656Y-94982617D01*
X108496656Y-95633065D01*
X108659268Y-95633065D01*
X108659268Y-94982617D01*
X108496656Y-94982617D01*
X108269000Y-94982617D01*
X108269000Y-92624743D01*
X108496656Y-92624743D01*
X108496656Y-92706049D01*
X109309717Y-92706049D01*
X109309717Y-93031273D01*
X109147104Y-93031273D01*
X109050596Y-93033909D01*
X109002450Y-93047362D01*
X108986033Y-93079949D01*
X108984492Y-93112579D01*
X108971060Y-93174469D01*
X108918170Y-93193541D01*
X108903186Y-93193885D01*
X108841296Y-93180452D01*
X108822224Y-93127562D01*
X108821880Y-93112579D01*
X108808448Y-93050688D01*
X108755558Y-93031616D01*
X108740574Y-93031273D01*
X108678684Y-93044705D01*
X108659612Y-93097595D01*
X108659268Y-93112579D01*
X108645836Y-93174469D01*
X108592946Y-93193541D01*
X108577962Y-93193885D01*
X108496656Y-93193885D01*
X108496656Y-93844333D01*
X108577962Y-93844333D01*
X108619318Y-93847373D01*
X108643560Y-93865626D01*
X108655255Y-93912795D01*
X108658969Y-94002579D01*
X108659268Y-94088251D01*
X108658255Y-94212318D01*
X108652171Y-94285043D01*
X108636448Y-94320128D01*
X108606520Y-94331272D01*
X108577962Y-94332169D01*
X108516072Y-94345602D01*
X108497000Y-94398492D01*
X108496656Y-94413475D01*
X108510089Y-94475366D01*
X108562979Y-94494438D01*
X108577962Y-94494781D01*
X108639853Y-94481349D01*
X108658925Y-94428459D01*
X108659268Y-94413475D01*
X108672701Y-94351585D01*
X108725591Y-94332512D01*
X108740574Y-94332169D01*
X108802465Y-94345602D01*
X108821537Y-94398492D01*
X108821880Y-94413475D01*
X108827153Y-94461729D01*
X108854059Y-94485802D01*
X108919232Y-94494011D01*
X108984492Y-94494781D01*
X109081001Y-94497417D01*
X109129147Y-94510870D01*
X109145564Y-94543457D01*
X109147104Y-94576087D01*
X109147104Y-94657393D01*
X108496656Y-94657393D01*
X108496656Y-94738699D01*
X108501929Y-94786953D01*
X108528835Y-94811026D01*
X108594008Y-94819235D01*
X108659268Y-94820005D01*
X108821880Y-94820005D01*
X108821880Y-95633065D01*
X108984492Y-95633065D01*
X109081001Y-95630429D01*
X109129147Y-95616976D01*
X109145564Y-95584389D01*
X109147104Y-95551759D01*
X109160537Y-95489869D01*
X109213427Y-95470797D01*
X109228411Y-95470453D01*
X109290301Y-95483886D01*
X109309373Y-95536776D01*
X109309717Y-95551759D01*
X109314989Y-95600014D01*
X109341895Y-95624087D01*
X109407069Y-95632295D01*
X109472329Y-95633065D01*
X109568837Y-95630429D01*
X109616983Y-95616976D01*
X109633400Y-95584389D01*
X109634941Y-95551759D01*
X109621508Y-95489869D01*
X109568618Y-95470797D01*
X109553635Y-95470453D01*
X109491744Y-95457021D01*
X109472672Y-95404131D01*
X109472329Y-95389147D01*
X109477601Y-95340893D01*
X109504507Y-95316820D01*
X109569681Y-95308612D01*
X109634941Y-95307841D01*
X109797553Y-95307841D01*
X109797553Y-95551759D01*
X109798566Y-95675826D01*
X109804650Y-95748551D01*
X109820373Y-95783636D01*
X109850301Y-95794781D01*
X109878859Y-95795677D01*
X109927113Y-95790405D01*
X109951186Y-95763499D01*
X109959394Y-95698325D01*
X109960165Y-95633065D01*
X109962801Y-95536557D01*
X109976254Y-95488411D01*
X110008841Y-95471994D01*
X110041471Y-95470453D01*
X110103361Y-95483886D01*
X110122433Y-95536776D01*
X110122777Y-95551759D01*
X110136209Y-95613650D01*
X110189099Y-95632722D01*
X110204083Y-95633065D01*
X110245438Y-95636105D01*
X110269680Y-95654359D01*
X110281375Y-95701527D01*
X110285090Y-95791311D01*
X110285389Y-95876983D01*
X110284375Y-96001050D01*
X110278291Y-96073776D01*
X110262568Y-96108860D01*
X110232640Y-96120005D01*
X110204083Y-96120901D01*
X110142192Y-96107469D01*
X110123120Y-96054579D01*
X110122777Y-96039595D01*
X110117504Y-95991341D01*
X110090599Y-95967268D01*
X110025425Y-95959060D01*
X109960165Y-95958289D01*
X109863656Y-95960926D01*
X109815510Y-95974379D01*
X109799093Y-96006965D01*
X109797553Y-96039595D01*
X109802825Y-96087850D01*
X109829731Y-96111923D01*
X109894905Y-96120131D01*
X109960165Y-96120901D01*
X110056673Y-96123538D01*
X110104819Y-96136991D01*
X110121236Y-96169577D01*
X110122777Y-96202208D01*
X110109344Y-96264098D01*
X110056454Y-96283170D01*
X110041471Y-96283514D01*
X109993216Y-96288786D01*
X109969143Y-96315692D01*
X109960935Y-96380866D01*
X109960165Y-96446126D01*
X109960165Y-96608738D01*
X110204083Y-96608738D01*
X110328150Y-96607724D01*
X110400875Y-96601640D01*
X110435959Y-96585917D01*
X110447104Y-96555989D01*
X110448001Y-96527432D01*
X110461433Y-96465541D01*
X110514323Y-96446469D01*
X110529307Y-96446126D01*
X110591197Y-96459558D01*
X110610269Y-96512448D01*
X110610613Y-96527432D01*
X110624045Y-96589322D01*
X110676935Y-96608394D01*
X110691919Y-96608738D01*
X110753809Y-96622170D01*
X110772881Y-96675060D01*
X110773225Y-96690044D01*
X110767953Y-96738298D01*
X110741047Y-96762371D01*
X110675873Y-96770579D01*
X110610613Y-96771350D01*
X110514104Y-96773986D01*
X110465958Y-96787439D01*
X110449541Y-96820026D01*
X110448001Y-96852656D01*
X110453273Y-96900910D01*
X110480179Y-96924983D01*
X110545353Y-96933191D01*
X110610613Y-96933962D01*
X110707121Y-96931326D01*
X110755267Y-96917873D01*
X110771684Y-96885286D01*
X110773225Y-96852656D01*
X110786657Y-96790765D01*
X110839547Y-96771693D01*
X110854531Y-96771350D01*
X110916421Y-96784782D01*
X110935494Y-96837672D01*
X110935837Y-96852656D01*
X110935837Y-96933962D01*
X112236733Y-96933962D01*
X112236733Y-96852656D01*
X112250166Y-96790765D01*
X112303056Y-96771693D01*
X112318039Y-96771350D01*
X112379930Y-96757917D01*
X112399002Y-96705027D01*
X112399345Y-96690044D01*
X112412778Y-96628153D01*
X112465668Y-96609081D01*
X112480651Y-96608738D01*
X112542542Y-96595305D01*
X112561614Y-96542415D01*
X112561957Y-96527432D01*
X112556685Y-96479177D01*
X112529779Y-96455104D01*
X112464605Y-96446896D01*
X112399345Y-96446126D01*
X112236733Y-96446126D01*
X112236733Y-96120901D01*
X112074121Y-96120901D01*
X111977613Y-96118265D01*
X111929467Y-96104812D01*
X111913050Y-96072225D01*
X111911509Y-96039595D01*
X111914549Y-95998240D01*
X111932802Y-95973998D01*
X111979971Y-95962303D01*
X112069755Y-95958588D01*
X112155427Y-95958289D01*
X112399345Y-95958289D01*
X112399345Y-96283514D01*
X112643263Y-96283514D01*
X112767330Y-96284527D01*
X112840055Y-96290611D01*
X112875140Y-96306334D01*
X112886285Y-96336262D01*
X112887181Y-96364820D01*
X112873749Y-96426710D01*
X112820859Y-96445782D01*
X112805875Y-96446126D01*
X112743985Y-96459558D01*
X112724913Y-96512448D01*
X112724569Y-96527432D01*
X112738002Y-96589322D01*
X112790892Y-96608394D01*
X112805875Y-96608738D01*
X112867766Y-96595305D01*
X112886838Y-96542415D01*
X112887181Y-96527432D01*
X112900614Y-96465541D01*
X112953504Y-96446469D01*
X112968487Y-96446126D01*
X113009843Y-96449165D01*
X113034085Y-96467419D01*
X113045780Y-96514587D01*
X113049494Y-96604371D01*
X113049793Y-96690044D01*
X113050807Y-96814111D01*
X113056891Y-96886836D01*
X113072614Y-96921920D01*
X113102542Y-96933065D01*
X113131099Y-96933962D01*
X113179354Y-96928689D01*
X113203427Y-96901783D01*
X113209614Y-96852656D01*
X113700241Y-96852656D01*
X113705514Y-96900910D01*
X113732420Y-96924983D01*
X113797593Y-96933191D01*
X113862854Y-96933962D01*
X114025466Y-96933962D01*
X114025466Y-96771350D01*
X114023245Y-96690044D01*
X114350690Y-96690044D01*
X114351703Y-96814111D01*
X114357787Y-96886836D01*
X114373510Y-96921920D01*
X114403438Y-96933065D01*
X114431996Y-96933962D01*
X114473351Y-96930922D01*
X114497593Y-96912668D01*
X114509288Y-96865500D01*
X114513003Y-96775716D01*
X114513302Y-96690044D01*
X114512288Y-96565977D01*
X114506204Y-96493252D01*
X114490481Y-96458167D01*
X114460553Y-96447022D01*
X114431996Y-96446126D01*
X114390640Y-96449165D01*
X114366398Y-96467419D01*
X114354703Y-96514587D01*
X114350989Y-96604371D01*
X114350690Y-96690044D01*
X114023245Y-96690044D01*
X114022829Y-96674841D01*
X114009376Y-96626695D01*
X113976790Y-96610278D01*
X113944160Y-96608738D01*
X113882269Y-96622170D01*
X113863197Y-96675060D01*
X113862854Y-96690044D01*
X113849421Y-96751934D01*
X113796531Y-96771006D01*
X113781548Y-96771350D01*
X113719657Y-96784782D01*
X113700585Y-96837672D01*
X113700241Y-96852656D01*
X113209614Y-96852656D01*
X113211635Y-96836610D01*
X113212405Y-96771350D01*
X113215041Y-96674841D01*
X113228494Y-96626695D01*
X113261081Y-96610278D01*
X113293711Y-96608738D01*
X113355602Y-96622170D01*
X113374674Y-96675060D01*
X113375017Y-96690044D01*
X113388450Y-96751934D01*
X113441340Y-96771006D01*
X113456323Y-96771350D01*
X113518214Y-96757917D01*
X113537286Y-96705027D01*
X113537629Y-96690044D01*
X113551062Y-96628153D01*
X113603952Y-96609081D01*
X113618935Y-96608738D01*
X113680826Y-96595305D01*
X113699898Y-96542415D01*
X113700241Y-96527432D01*
X113686809Y-96465541D01*
X113633919Y-96446469D01*
X113618935Y-96446126D01*
X113557045Y-96432693D01*
X113537973Y-96379803D01*
X113537629Y-96364820D01*
X113542902Y-96316565D01*
X113569808Y-96292492D01*
X113634981Y-96284284D01*
X113700241Y-96283514D01*
X113796750Y-96286150D01*
X113844896Y-96299603D01*
X113861313Y-96332190D01*
X113862854Y-96364820D01*
X113868126Y-96413074D01*
X113895032Y-96437147D01*
X113960206Y-96445355D01*
X114025466Y-96446126D01*
X114188078Y-96446126D01*
X114188078Y-96120901D01*
X114513302Y-96120901D01*
X114513302Y-95958289D01*
X114510666Y-95861781D01*
X114497213Y-95813635D01*
X114464626Y-95797218D01*
X114431996Y-95795677D01*
X114370105Y-95782245D01*
X114351033Y-95729355D01*
X114350690Y-95714371D01*
X114364122Y-95652481D01*
X114417012Y-95633409D01*
X114431996Y-95633065D01*
X114473351Y-95630026D01*
X114497593Y-95611772D01*
X114509288Y-95564604D01*
X114513003Y-95474820D01*
X114513302Y-95389147D01*
X114513302Y-95145229D01*
X114350690Y-95145229D01*
X114254181Y-95142593D01*
X114206035Y-95129140D01*
X114189618Y-95096553D01*
X114188078Y-95063923D01*
X114193350Y-95015669D01*
X114220256Y-94991596D01*
X114285430Y-94983387D01*
X114350690Y-94982617D01*
X114513302Y-94982617D01*
X114513302Y-94494781D01*
X114350690Y-94494781D01*
X114254181Y-94492145D01*
X114206035Y-94478692D01*
X114189618Y-94446105D01*
X114188078Y-94413475D01*
X114193350Y-94365221D01*
X114220256Y-94341148D01*
X114285430Y-94332939D01*
X114350690Y-94332169D01*
X114513302Y-94332169D01*
X114513302Y-94088251D01*
X114512288Y-93964184D01*
X114506204Y-93891459D01*
X114490481Y-93856374D01*
X114460553Y-93845230D01*
X114431996Y-93844333D01*
X114383741Y-93849605D01*
X114359668Y-93876511D01*
X114351460Y-93941685D01*
X114350690Y-94006945D01*
X114350690Y-94169557D01*
X114188078Y-94169557D01*
X114091569Y-94166921D01*
X114043423Y-94153468D01*
X114027006Y-94120881D01*
X114025466Y-94088251D01*
X114038898Y-94026360D01*
X114091788Y-94007288D01*
X114106772Y-94006945D01*
X114155026Y-94001673D01*
X114179099Y-93974767D01*
X114187307Y-93909593D01*
X114188078Y-93844333D01*
X114188078Y-93681721D01*
X114513302Y-93681721D01*
X114513302Y-93193885D01*
X114350690Y-93193885D01*
X114254181Y-93191249D01*
X114206035Y-93177796D01*
X114189618Y-93145209D01*
X114188078Y-93112579D01*
X114193350Y-93064325D01*
X114220256Y-93040252D01*
X114285430Y-93032043D01*
X114350690Y-93031273D01*
X114513302Y-93031273D01*
X114513302Y-92787355D01*
X114512288Y-92663288D01*
X114506204Y-92590563D01*
X114490481Y-92555478D01*
X114460553Y-92544333D01*
X114431996Y-92543437D01*
X114370105Y-92530004D01*
X114351033Y-92477114D01*
X114350690Y-92462131D01*
X114364122Y-92400240D01*
X114417012Y-92381168D01*
X114431996Y-92380825D01*
X114493886Y-92367392D01*
X114512958Y-92314502D01*
X114513302Y-92299519D01*
X114499869Y-92237628D01*
X114446979Y-92218556D01*
X114431996Y-92218213D01*
X114370105Y-92231645D01*
X114351033Y-92284535D01*
X114350690Y-92299519D01*
X114337257Y-92361409D01*
X114284367Y-92380481D01*
X114269384Y-92380825D01*
X114207493Y-92367392D01*
X114188421Y-92314502D01*
X114188078Y-92299519D01*
X114174645Y-92237628D01*
X114121755Y-92218556D01*
X114106772Y-92218213D01*
X114065416Y-92221252D01*
X114041174Y-92239506D01*
X114029479Y-92286674D01*
X114025764Y-92376458D01*
X114025466Y-92462131D01*
X114024452Y-92586198D01*
X114018368Y-92658923D01*
X114002645Y-92694007D01*
X113972717Y-92705152D01*
X113944160Y-92706049D01*
X113882269Y-92692616D01*
X113863197Y-92639726D01*
X113862854Y-92624743D01*
X113849421Y-92562852D01*
X113796531Y-92543780D01*
X113781548Y-92543437D01*
X113719657Y-92530004D01*
X113700585Y-92477114D01*
X113700241Y-92462131D01*
X113713674Y-92400240D01*
X113766564Y-92381168D01*
X113781548Y-92380825D01*
X113843438Y-92367392D01*
X113862510Y-92314502D01*
X113862854Y-92299519D01*
X113849421Y-92237628D01*
X113796531Y-92218556D01*
X113781548Y-92218213D01*
X113719657Y-92231645D01*
X113700585Y-92284535D01*
X113700241Y-92299519D01*
X113686809Y-92361409D01*
X113633919Y-92380481D01*
X113618935Y-92380825D01*
X113557045Y-92367392D01*
X113537973Y-92314502D01*
X113537629Y-92299519D01*
X113524197Y-92237628D01*
X113471307Y-92218556D01*
X113456323Y-92218213D01*
X113375017Y-92218213D01*
X113375017Y-93031273D01*
X113293711Y-93031273D01*
X113231821Y-93017840D01*
X113212749Y-92964950D01*
X113212405Y-92949967D01*
X113207133Y-92901712D01*
X113180227Y-92877640D01*
X113115053Y-92869431D01*
X113049793Y-92868661D01*
X112953285Y-92866025D01*
X112905139Y-92852572D01*
X112888722Y-92819985D01*
X112887181Y-92787355D01*
X112892454Y-92739100D01*
X112919360Y-92715028D01*
X112984533Y-92706819D01*
X113049793Y-92706049D01*
X113212405Y-92706049D01*
X113212405Y-91730377D01*
X113131099Y-91730377D01*
X113082845Y-91735649D01*
X113058772Y-91762555D01*
X113050564Y-91827729D01*
X113049793Y-91892989D01*
X113047157Y-91989497D01*
X113033704Y-92037643D01*
X113001117Y-92054060D01*
X112968487Y-92055601D01*
X112920233Y-92050328D01*
X112896160Y-92023422D01*
X112887952Y-91958249D01*
X112887181Y-91892989D01*
X112884545Y-91796480D01*
X112871092Y-91748334D01*
X112838505Y-91731917D01*
X112805875Y-91730377D01*
X112757621Y-91725104D01*
X112733548Y-91698198D01*
X112725339Y-91633025D01*
X112724569Y-91567764D01*
X112724569Y-91405152D01*
X112561957Y-91405152D01*
X112465449Y-91402516D01*
X112417303Y-91389063D01*
X112400886Y-91356476D01*
X112399345Y-91323846D01*
X112394073Y-91275592D01*
X112367167Y-91251519D01*
X112301993Y-91243311D01*
X112236733Y-91242540D01*
X112074121Y-91242540D01*
X112074121Y-90998622D01*
X112399345Y-90998622D01*
X112412778Y-91060513D01*
X112465668Y-91079585D01*
X112480651Y-91079928D01*
X112724569Y-91079928D01*
X112727205Y-91176437D01*
X112740658Y-91224583D01*
X112773245Y-91241000D01*
X112805875Y-91242540D01*
X112854130Y-91247813D01*
X112878203Y-91274719D01*
X112886411Y-91339892D01*
X112887181Y-91405152D01*
X112887181Y-91567764D01*
X113212405Y-91567764D01*
X113212405Y-90917316D01*
X113375017Y-90917316D01*
X113375017Y-92055601D01*
X114513302Y-92055601D01*
X114513302Y-90917316D01*
X113375017Y-90917316D01*
X113212405Y-90917316D01*
X113131099Y-90917316D01*
X113082845Y-90922589D01*
X113058772Y-90949495D01*
X113050564Y-91014668D01*
X113049793Y-91079928D01*
X113047157Y-91176437D01*
X113033704Y-91224583D01*
X113001117Y-91241000D01*
X112968487Y-91242540D01*
X112920233Y-91237268D01*
X112896160Y-91210362D01*
X112887952Y-91145188D01*
X112887181Y-91079928D01*
X112884545Y-90983420D01*
X112871092Y-90935274D01*
X112838505Y-90918857D01*
X112805875Y-90917316D01*
X112757621Y-90922589D01*
X112733548Y-90949495D01*
X112725339Y-91014668D01*
X112724569Y-91079928D01*
X112480651Y-91079928D01*
X112542542Y-91066496D01*
X112561614Y-91013606D01*
X112561957Y-90998622D01*
X112548525Y-90936732D01*
X112495635Y-90917660D01*
X112480651Y-90917316D01*
X112418761Y-90930749D01*
X112399689Y-90983639D01*
X112399345Y-90998622D01*
X112074121Y-90998622D01*
X112074121Y-90917316D01*
X111911509Y-90917316D01*
X111815001Y-90919952D01*
X111766855Y-90933405D01*
X111750437Y-90965992D01*
X111748897Y-90998622D01*
X111735464Y-91060513D01*
X111682574Y-91079585D01*
X111667591Y-91079928D01*
X111605700Y-91066496D01*
X111586628Y-91013606D01*
X111586285Y-90998622D01*
X111572852Y-90936732D01*
X111519962Y-90917660D01*
X111504979Y-90917316D01*
X111443088Y-90930749D01*
X111424016Y-90983639D01*
X111423673Y-90998622D01*
X111437106Y-91060513D01*
X111489996Y-91079585D01*
X111504979Y-91079928D01*
X111566870Y-91093361D01*
X111585942Y-91146251D01*
X111586285Y-91161234D01*
X111599718Y-91223125D01*
X111652608Y-91242197D01*
X111667591Y-91242540D01*
X111729482Y-91255973D01*
X111748554Y-91308863D01*
X111748897Y-91323846D01*
X111754169Y-91372101D01*
X111781075Y-91396174D01*
X111846249Y-91404382D01*
X111911509Y-91405152D01*
X112074121Y-91405152D01*
X112074121Y-91567764D01*
X112076757Y-91664273D01*
X112090210Y-91712419D01*
X112122797Y-91728836D01*
X112155427Y-91730377D01*
X112217318Y-91743809D01*
X112236390Y-91796699D01*
X112236733Y-91811683D01*
X112223301Y-91873573D01*
X112170411Y-91892645D01*
X112155427Y-91892989D01*
X112093537Y-91906421D01*
X112074465Y-91959311D01*
X112074121Y-91974295D01*
X112060689Y-92036185D01*
X112007799Y-92055257D01*
X111992815Y-92055601D01*
X111930925Y-92042168D01*
X111911852Y-91989278D01*
X111911509Y-91974295D01*
X111898077Y-91912404D01*
X111845187Y-91893332D01*
X111830203Y-91892989D01*
X111768313Y-91906421D01*
X111749240Y-91959311D01*
X111748897Y-91974295D01*
X111735464Y-92036185D01*
X111682574Y-92055257D01*
X111667591Y-92055601D01*
X111619337Y-92050328D01*
X111595264Y-92023422D01*
X111587055Y-91958249D01*
X111586285Y-91892989D01*
X111588921Y-91796480D01*
X111602374Y-91748334D01*
X111634961Y-91731917D01*
X111667591Y-91730377D01*
X111729482Y-91716944D01*
X111748554Y-91664054D01*
X111748897Y-91649071D01*
X111735464Y-91587180D01*
X111682574Y-91568108D01*
X111667591Y-91567764D01*
X111605700Y-91554332D01*
X111586628Y-91501442D01*
X111586285Y-91486458D01*
X111572852Y-91424568D01*
X111519962Y-91405496D01*
X111504979Y-91405152D01*
X111443088Y-91391720D01*
X111424016Y-91338830D01*
X111423673Y-91323846D01*
X111410240Y-91261956D01*
X111357350Y-91242884D01*
X111342367Y-91242540D01*
X111294113Y-91237268D01*
X111270040Y-91210362D01*
X111261831Y-91145188D01*
X111261061Y-91079928D01*
X111258425Y-90983420D01*
X111244972Y-90935274D01*
X111212385Y-90918857D01*
X111179755Y-90917316D01*
X111117864Y-90930749D01*
X111098792Y-90983639D01*
X111098449Y-90998622D01*
X111085016Y-91060513D01*
X111032126Y-91079585D01*
X111017143Y-91079928D01*
X110955252Y-91066496D01*
X110936180Y-91013606D01*
X110935837Y-90998622D01*
X110922404Y-90936732D01*
X110869514Y-90917660D01*
X110854531Y-90917316D01*
X110792640Y-90930749D01*
X110773568Y-90983639D01*
X110773225Y-90998622D01*
X110786657Y-91060513D01*
X110839547Y-91079585D01*
X110854531Y-91079928D01*
X110895887Y-91082968D01*
X110920128Y-91101222D01*
X110931823Y-91148390D01*
X110935538Y-91238174D01*
X110935837Y-91323846D01*
X110935837Y-91567764D01*
X110773225Y-91567764D01*
X110676716Y-91570401D01*
X110628570Y-91583854D01*
X110612153Y-91616440D01*
X110610613Y-91649071D01*
X110597180Y-91710961D01*
X110544290Y-91730033D01*
X110529307Y-91730377D01*
X110467416Y-91716944D01*
X110448344Y-91664054D01*
X110448001Y-91649071D01*
X110434568Y-91587180D01*
X110381678Y-91568108D01*
X110366695Y-91567764D01*
X110304804Y-91554332D01*
X110285732Y-91501442D01*
X110285389Y-91486458D01*
X110298821Y-91424568D01*
X110351711Y-91405496D01*
X110366695Y-91405152D01*
X110428585Y-91391720D01*
X110447657Y-91338830D01*
X110448001Y-91323846D01*
X110610613Y-91323846D01*
X110624045Y-91385737D01*
X110676935Y-91404809D01*
X110691919Y-91405152D01*
X110753809Y-91391720D01*
X110772881Y-91338830D01*
X110773225Y-91323846D01*
X110759792Y-91261956D01*
X110706902Y-91242884D01*
X110691919Y-91242540D01*
X110630028Y-91255973D01*
X110610956Y-91308863D01*
X110610613Y-91323846D01*
X110448001Y-91323846D01*
X110442729Y-91275592D01*
X110415823Y-91251519D01*
X110350649Y-91243311D01*
X110285389Y-91242540D01*
X110122777Y-91242540D01*
X110122777Y-90917316D01*
X109960165Y-90917316D01*
X109863656Y-90919952D01*
X109815510Y-90933405D01*
X109799093Y-90965992D01*
X109797553Y-90998622D01*
X109810985Y-91060513D01*
X109863875Y-91079585D01*
X109878859Y-91079928D01*
X109940749Y-91093361D01*
X109959821Y-91146251D01*
X109960165Y-91161234D01*
X109946732Y-91223125D01*
X109893842Y-91242197D01*
X109878859Y-91242540D01*
X109816968Y-91255973D01*
X109797896Y-91308863D01*
X109797553Y-91323846D01*
X109810985Y-91385737D01*
X109863875Y-91404809D01*
X109878859Y-91405152D01*
X109940749Y-91418585D01*
X109959821Y-91471475D01*
X109960165Y-91486458D01*
X109946732Y-91548349D01*
X109893842Y-91567421D01*
X109878859Y-91567764D01*
X109816968Y-91581197D01*
X109797896Y-91634087D01*
X109797553Y-91649071D01*
X109810985Y-91710961D01*
X109863875Y-91730033D01*
X109878859Y-91730377D01*
X109940749Y-91743809D01*
X109959821Y-91796699D01*
X109960165Y-91811683D01*
X109946732Y-91873573D01*
X109893842Y-91892645D01*
X109878859Y-91892989D01*
X109830604Y-91898261D01*
X109806531Y-91925167D01*
X109798323Y-91990341D01*
X109797553Y-92055601D01*
X109797553Y-92218213D01*
X109960165Y-92218213D01*
X110056673Y-92220849D01*
X110104819Y-92234302D01*
X110121236Y-92266889D01*
X110122777Y-92299519D01*
X110109344Y-92361409D01*
X110056454Y-92380481D01*
X110041471Y-92380825D01*
X109979580Y-92394257D01*
X109960508Y-92447147D01*
X109960165Y-92462131D01*
X109946732Y-92524021D01*
X109893842Y-92543093D01*
X109878859Y-92543437D01*
X109816968Y-92530004D01*
X109797896Y-92477114D01*
X109797553Y-92462131D01*
X109784120Y-92400240D01*
X109731230Y-92381168D01*
X109716247Y-92380825D01*
X109654356Y-92367392D01*
X109635284Y-92314502D01*
X109634941Y-92299519D01*
X109629668Y-92251264D01*
X109602762Y-92227191D01*
X109537589Y-92218983D01*
X109472329Y-92218213D01*
X109309717Y-92218213D01*
X109309717Y-92543437D01*
X109065798Y-92543437D01*
X108941732Y-92542423D01*
X108869006Y-92536339D01*
X108833922Y-92520616D01*
X108822777Y-92490688D01*
X108821880Y-92462131D01*
X108808448Y-92400240D01*
X108755558Y-92381168D01*
X108740574Y-92380825D01*
X108678684Y-92394257D01*
X108659612Y-92447147D01*
X108659268Y-92462131D01*
X108645836Y-92524021D01*
X108592946Y-92543093D01*
X108577962Y-92543437D01*
X108516072Y-92556869D01*
X108497000Y-92609759D01*
X108496656Y-92624743D01*
X108269000Y-92624743D01*
X108269000Y-90917316D01*
X108496656Y-90917316D01*
X108496656Y-92055601D01*
X109634941Y-92055601D01*
X109634941Y-90917316D01*
X108496656Y-90917316D01*
X108269000Y-90917316D01*
X108269000Y-90689660D01*
X114773481Y-90689660D01*
G37*
%TO.C,REF\u002A\u002A*%
G36*
X137284014Y-92576691D02*
G01*
X137367835Y-93021315D01*
X137677120Y-93148813D01*
X137986406Y-93276311D01*
X138357446Y-93024006D01*
X138461357Y-92953756D01*
X138555287Y-92891032D01*
X138634852Y-92838698D01*
X138695670Y-92799617D01*
X138733357Y-92776653D01*
X138743621Y-92771702D01*
X138762110Y-92784436D01*
X138801620Y-92819642D01*
X138857722Y-92872822D01*
X138925987Y-92939478D01*
X139001986Y-93015114D01*
X139081292Y-93095232D01*
X139159475Y-93175334D01*
X139232107Y-93250924D01*
X139294759Y-93317505D01*
X139343003Y-93370578D01*
X139372410Y-93405647D01*
X139379441Y-93417383D01*
X139369323Y-93439020D01*
X139340959Y-93486422D01*
X139297329Y-93554953D01*
X139241418Y-93639975D01*
X139176206Y-93736853D01*
X139138419Y-93792110D01*
X139069543Y-93893008D01*
X139008340Y-93984059D01*
X138957778Y-94060730D01*
X138920828Y-94118488D01*
X138900458Y-94152803D01*
X138897397Y-94160014D01*
X138904336Y-94180508D01*
X138923251Y-94228273D01*
X138951287Y-94296592D01*
X138985591Y-94378749D01*
X139023309Y-94468030D01*
X139061587Y-94557718D01*
X139097570Y-94641098D01*
X139128406Y-94711454D01*
X139151239Y-94762070D01*
X139163217Y-94786231D01*
X139163924Y-94787182D01*
X139182731Y-94791796D01*
X139232818Y-94802088D01*
X139308993Y-94817047D01*
X139406065Y-94835661D01*
X139518843Y-94856919D01*
X139584642Y-94869178D01*
X139705150Y-94892122D01*
X139813997Y-94913955D01*
X139905676Y-94933482D01*
X139974681Y-94949508D01*
X140015504Y-94960839D01*
X140023711Y-94964434D01*
X140031748Y-94988766D01*
X140038233Y-95043719D01*
X140043170Y-95122868D01*
X140046564Y-95219786D01*
X140048418Y-95328047D01*
X140048738Y-95441225D01*
X140047527Y-95552895D01*
X140044790Y-95656628D01*
X140040531Y-95746001D01*
X140034755Y-95814586D01*
X140027467Y-95855957D01*
X140023095Y-95864570D01*
X139996964Y-95874893D01*
X139941593Y-95889652D01*
X139864307Y-95907112D01*
X139772430Y-95925540D01*
X139740358Y-95931501D01*
X139585724Y-95959826D01*
X139463575Y-95982636D01*
X139369873Y-96000840D01*
X139300584Y-96015343D01*
X139251671Y-96027052D01*
X139219097Y-96036875D01*
X139198828Y-96045716D01*
X139186826Y-96054484D01*
X139185147Y-96056217D01*
X139168384Y-96084131D01*
X139142814Y-96138455D01*
X139110988Y-96212537D01*
X139075460Y-96299725D01*
X139038783Y-96393368D01*
X139003511Y-96486812D01*
X138972196Y-96573407D01*
X138947393Y-96646500D01*
X138931654Y-96699438D01*
X138927532Y-96725571D01*
X138927876Y-96726486D01*
X138941841Y-96747846D01*
X138973522Y-96794844D01*
X139019591Y-96862587D01*
X139076718Y-96946183D01*
X139141573Y-97040742D01*
X139160043Y-97067614D01*
X139225899Y-97165035D01*
X139283850Y-97253923D01*
X139330738Y-97329172D01*
X139363407Y-97385680D01*
X139378700Y-97418341D01*
X139379441Y-97422353D01*
X139366592Y-97443444D01*
X139331088Y-97485224D01*
X139277493Y-97543205D01*
X139210371Y-97612895D01*
X139134287Y-97689805D01*
X139053804Y-97769443D01*
X138973487Y-97847321D01*
X138897899Y-97918946D01*
X138831605Y-97979830D01*
X138779169Y-98025481D01*
X138745155Y-98051410D01*
X138735745Y-98055643D01*
X138713843Y-98045672D01*
X138669000Y-98018780D01*
X138608521Y-97979496D01*
X138561989Y-97947877D01*
X138477675Y-97889858D01*
X138377826Y-97821544D01*
X138277673Y-97753339D01*
X138223827Y-97716835D01*
X138041571Y-97593560D01*
X137888581Y-97676280D01*
X137818882Y-97712519D01*
X137759614Y-97740686D01*
X137719511Y-97756751D01*
X137709303Y-97758986D01*
X137697029Y-97742482D01*
X137672813Y-97695842D01*
X137638463Y-97623369D01*
X137595788Y-97529366D01*
X137546594Y-97418134D01*
X137492690Y-97293975D01*
X137435884Y-97161192D01*
X137377982Y-97024087D01*
X137320793Y-96886962D01*
X137266124Y-96754118D01*
X137215784Y-96629858D01*
X137171580Y-96518485D01*
X137135319Y-96424299D01*
X137108809Y-96351604D01*
X137093858Y-96304701D01*
X137091454Y-96288593D01*
X137110511Y-96268046D01*
X137152236Y-96234693D01*
X137207906Y-96195462D01*
X137212578Y-96192359D01*
X137356464Y-96077183D01*
X137472483Y-95942813D01*
X137559630Y-95793544D01*
X137616899Y-95633673D01*
X137643286Y-95467497D01*
X137637785Y-95299312D01*
X137599390Y-95133415D01*
X137527095Y-94974102D01*
X137505826Y-94939247D01*
X137395196Y-94798497D01*
X137264502Y-94685474D01*
X137118264Y-94600763D01*
X136961008Y-94544954D01*
X136797257Y-94518634D01*
X136631533Y-94522390D01*
X136468362Y-94556810D01*
X136312265Y-94622483D01*
X136167767Y-94719995D01*
X136123069Y-94759573D01*
X136009312Y-94883463D01*
X135926418Y-95013884D01*
X135869556Y-95160075D01*
X135837887Y-95304848D01*
X135830069Y-95467620D01*
X135856138Y-95631200D01*
X135913445Y-95790058D01*
X135999344Y-95938666D01*
X136111186Y-96071495D01*
X136246323Y-96183016D01*
X136264083Y-96194771D01*
X136320350Y-96233268D01*
X136363123Y-96266623D01*
X136383572Y-96287920D01*
X136383869Y-96288593D01*
X136379479Y-96311631D01*
X136362076Y-96363917D01*
X136333468Y-96441150D01*
X136295465Y-96539028D01*
X136249874Y-96653251D01*
X136198503Y-96779518D01*
X136143162Y-96913527D01*
X136085658Y-97050978D01*
X136027801Y-97187568D01*
X135971398Y-97318997D01*
X135918258Y-97440965D01*
X135870190Y-97549169D01*
X135829001Y-97639309D01*
X135796501Y-97707083D01*
X135774497Y-97748190D01*
X135765636Y-97758986D01*
X135738560Y-97750579D01*
X135687897Y-97728032D01*
X135622383Y-97695373D01*
X135586359Y-97676280D01*
X135433368Y-97593560D01*
X135251112Y-97716835D01*
X135158075Y-97779988D01*
X135056215Y-97849487D01*
X134960762Y-97914925D01*
X134912950Y-97947877D01*
X134845705Y-97993033D01*
X134788764Y-98028817D01*
X134749554Y-98050698D01*
X134736819Y-98055323D01*
X134718283Y-98042845D01*
X134677259Y-98008012D01*
X134617725Y-97954438D01*
X134543658Y-97885743D01*
X134459035Y-97805541D01*
X134405515Y-97754046D01*
X134311881Y-97662046D01*
X134230959Y-97579759D01*
X134166023Y-97510705D01*
X134120342Y-97458404D01*
X134097189Y-97426376D01*
X134094968Y-97419876D01*
X134105276Y-97395154D01*
X134133761Y-97345165D01*
X134177263Y-97274972D01*
X134232623Y-97189635D01*
X134296680Y-97094216D01*
X134314897Y-97067614D01*
X134381273Y-96970927D01*
X134440822Y-96883877D01*
X134490216Y-96811355D01*
X134526125Y-96758253D01*
X134545219Y-96729463D01*
X134547064Y-96726486D01*
X134544305Y-96703542D01*
X134529662Y-96653096D01*
X134505687Y-96581801D01*
X134474934Y-96496307D01*
X134439956Y-96403267D01*
X134403307Y-96309334D01*
X134367539Y-96221159D01*
X134335206Y-96145394D01*
X134308862Y-96088691D01*
X134291058Y-96057703D01*
X134289793Y-96056217D01*
X134278906Y-96047361D01*
X134260518Y-96038603D01*
X134230594Y-96029037D01*
X134185097Y-96017756D01*
X134119991Y-96003853D01*
X134031239Y-95986423D01*
X133914807Y-95964558D01*
X133766658Y-95937351D01*
X133734582Y-95931501D01*
X133639514Y-95913134D01*
X133556635Y-95895165D01*
X133493270Y-95879329D01*
X133456742Y-95867360D01*
X133451844Y-95864570D01*
X133443773Y-95839832D01*
X133437213Y-95784550D01*
X133432167Y-95705149D01*
X133428641Y-95608056D01*
X133426639Y-95499698D01*
X133426164Y-95386500D01*
X133427223Y-95274888D01*
X133429818Y-95171289D01*
X133433954Y-95082128D01*
X133439637Y-95013832D01*
X133446869Y-94972826D01*
X133451229Y-94964434D01*
X133475502Y-94955968D01*
X133530774Y-94942195D01*
X133611538Y-94924310D01*
X133712288Y-94903508D01*
X133827517Y-94880983D01*
X133890298Y-94869178D01*
X134009413Y-94846911D01*
X134115635Y-94826739D01*
X134203773Y-94809675D01*
X134268634Y-94796729D01*
X134305026Y-94788915D01*
X134311016Y-94787182D01*
X134321139Y-94767650D01*
X134342538Y-94720603D01*
X134372361Y-94652763D01*
X134407755Y-94570851D01*
X134445868Y-94481588D01*
X134483847Y-94391695D01*
X134518840Y-94307895D01*
X134547994Y-94236907D01*
X134568457Y-94185454D01*
X134577377Y-94160257D01*
X134577543Y-94159156D01*
X134567431Y-94139279D01*
X134539083Y-94093537D01*
X134495477Y-94026477D01*
X134439594Y-93942644D01*
X134374413Y-93846586D01*
X134336521Y-93791410D01*
X134267475Y-93690241D01*
X134206150Y-93598390D01*
X134155537Y-93520504D01*
X134118629Y-93461229D01*
X134098418Y-93425211D01*
X134095499Y-93417137D01*
X134108047Y-93398344D01*
X134142737Y-93358217D01*
X134195137Y-93301253D01*
X134260816Y-93231945D01*
X134335344Y-93154791D01*
X134414287Y-93074285D01*
X134493217Y-92994923D01*
X134567700Y-92921200D01*
X134633306Y-92857612D01*
X134685604Y-92808654D01*
X134720161Y-92778821D01*
X134731722Y-92771702D01*
X134750546Y-92781713D01*
X134795569Y-92809838D01*
X134862413Y-92853214D01*
X134946701Y-92908978D01*
X135044056Y-92974266D01*
X135117493Y-93024006D01*
X135488533Y-93276311D01*
X136107105Y-93021315D01*
X136190925Y-92576691D01*
X136274746Y-92132067D01*
X137200194Y-92132067D01*
X137284014Y-92576691D01*
G37*
D13*
X137284014Y-92576691D02*
X137367835Y-93021315D01*
X137677120Y-93148813D01*
X137986406Y-93276311D01*
X138357446Y-93024006D01*
X138461357Y-92953756D01*
X138555287Y-92891032D01*
X138634852Y-92838698D01*
X138695670Y-92799617D01*
X138733357Y-92776653D01*
X138743621Y-92771702D01*
X138762110Y-92784436D01*
X138801620Y-92819642D01*
X138857722Y-92872822D01*
X138925987Y-92939478D01*
X139001986Y-93015114D01*
X139081292Y-93095232D01*
X139159475Y-93175334D01*
X139232107Y-93250924D01*
X139294759Y-93317505D01*
X139343003Y-93370578D01*
X139372410Y-93405647D01*
X139379441Y-93417383D01*
X139369323Y-93439020D01*
X139340959Y-93486422D01*
X139297329Y-93554953D01*
X139241418Y-93639975D01*
X139176206Y-93736853D01*
X139138419Y-93792110D01*
X139069543Y-93893008D01*
X139008340Y-93984059D01*
X138957778Y-94060730D01*
X138920828Y-94118488D01*
X138900458Y-94152803D01*
X138897397Y-94160014D01*
X138904336Y-94180508D01*
X138923251Y-94228273D01*
X138951287Y-94296592D01*
X138985591Y-94378749D01*
X139023309Y-94468030D01*
X139061587Y-94557718D01*
X139097570Y-94641098D01*
X139128406Y-94711454D01*
X139151239Y-94762070D01*
X139163217Y-94786231D01*
X139163924Y-94787182D01*
X139182731Y-94791796D01*
X139232818Y-94802088D01*
X139308993Y-94817047D01*
X139406065Y-94835661D01*
X139518843Y-94856919D01*
X139584642Y-94869178D01*
X139705150Y-94892122D01*
X139813997Y-94913955D01*
X139905676Y-94933482D01*
X139974681Y-94949508D01*
X140015504Y-94960839D01*
X140023711Y-94964434D01*
X140031748Y-94988766D01*
X140038233Y-95043719D01*
X140043170Y-95122868D01*
X140046564Y-95219786D01*
X140048418Y-95328047D01*
X140048738Y-95441225D01*
X140047527Y-95552895D01*
X140044790Y-95656628D01*
X140040531Y-95746001D01*
X140034755Y-95814586D01*
X140027467Y-95855957D01*
X140023095Y-95864570D01*
X139996964Y-95874893D01*
X139941593Y-95889652D01*
X139864307Y-95907112D01*
X139772430Y-95925540D01*
X139740358Y-95931501D01*
X139585724Y-95959826D01*
X139463575Y-95982636D01*
X139369873Y-96000840D01*
X139300584Y-96015343D01*
X139251671Y-96027052D01*
X139219097Y-96036875D01*
X139198828Y-96045716D01*
X139186826Y-96054484D01*
X139185147Y-96056217D01*
X139168384Y-96084131D01*
X139142814Y-96138455D01*
X139110988Y-96212537D01*
X139075460Y-96299725D01*
X139038783Y-96393368D01*
X139003511Y-96486812D01*
X138972196Y-96573407D01*
X138947393Y-96646500D01*
X138931654Y-96699438D01*
X138927532Y-96725571D01*
X138927876Y-96726486D01*
X138941841Y-96747846D01*
X138973522Y-96794844D01*
X139019591Y-96862587D01*
X139076718Y-96946183D01*
X139141573Y-97040742D01*
X139160043Y-97067614D01*
X139225899Y-97165035D01*
X139283850Y-97253923D01*
X139330738Y-97329172D01*
X139363407Y-97385680D01*
X139378700Y-97418341D01*
X139379441Y-97422353D01*
X139366592Y-97443444D01*
X139331088Y-97485224D01*
X139277493Y-97543205D01*
X139210371Y-97612895D01*
X139134287Y-97689805D01*
X139053804Y-97769443D01*
X138973487Y-97847321D01*
X138897899Y-97918946D01*
X138831605Y-97979830D01*
X138779169Y-98025481D01*
X138745155Y-98051410D01*
X138735745Y-98055643D01*
X138713843Y-98045672D01*
X138669000Y-98018780D01*
X138608521Y-97979496D01*
X138561989Y-97947877D01*
X138477675Y-97889858D01*
X138377826Y-97821544D01*
X138277673Y-97753339D01*
X138223827Y-97716835D01*
X138041571Y-97593560D01*
X137888581Y-97676280D01*
X137818882Y-97712519D01*
X137759614Y-97740686D01*
X137719511Y-97756751D01*
X137709303Y-97758986D01*
X137697029Y-97742482D01*
X137672813Y-97695842D01*
X137638463Y-97623369D01*
X137595788Y-97529366D01*
X137546594Y-97418134D01*
X137492690Y-97293975D01*
X137435884Y-97161192D01*
X137377982Y-97024087D01*
X137320793Y-96886962D01*
X137266124Y-96754118D01*
X137215784Y-96629858D01*
X137171580Y-96518485D01*
X137135319Y-96424299D01*
X137108809Y-96351604D01*
X137093858Y-96304701D01*
X137091454Y-96288593D01*
X137110511Y-96268046D01*
X137152236Y-96234693D01*
X137207906Y-96195462D01*
X137212578Y-96192359D01*
X137356464Y-96077183D01*
X137472483Y-95942813D01*
X137559630Y-95793544D01*
X137616899Y-95633673D01*
X137643286Y-95467497D01*
X137637785Y-95299312D01*
X137599390Y-95133415D01*
X137527095Y-94974102D01*
X137505826Y-94939247D01*
X137395196Y-94798497D01*
X137264502Y-94685474D01*
X137118264Y-94600763D01*
X136961008Y-94544954D01*
X136797257Y-94518634D01*
X136631533Y-94522390D01*
X136468362Y-94556810D01*
X136312265Y-94622483D01*
X136167767Y-94719995D01*
X136123069Y-94759573D01*
X136009312Y-94883463D01*
X135926418Y-95013884D01*
X135869556Y-95160075D01*
X135837887Y-95304848D01*
X135830069Y-95467620D01*
X135856138Y-95631200D01*
X135913445Y-95790058D01*
X135999344Y-95938666D01*
X136111186Y-96071495D01*
X136246323Y-96183016D01*
X136264083Y-96194771D01*
X136320350Y-96233268D01*
X136363123Y-96266623D01*
X136383572Y-96287920D01*
X136383869Y-96288593D01*
X136379479Y-96311631D01*
X136362076Y-96363917D01*
X136333468Y-96441150D01*
X136295465Y-96539028D01*
X136249874Y-96653251D01*
X136198503Y-96779518D01*
X136143162Y-96913527D01*
X136085658Y-97050978D01*
X136027801Y-97187568D01*
X135971398Y-97318997D01*
X135918258Y-97440965D01*
X135870190Y-97549169D01*
X135829001Y-97639309D01*
X135796501Y-97707083D01*
X135774497Y-97748190D01*
X135765636Y-97758986D01*
X135738560Y-97750579D01*
X135687897Y-97728032D01*
X135622383Y-97695373D01*
X135586359Y-97676280D01*
X135433368Y-97593560D01*
X135251112Y-97716835D01*
X135158075Y-97779988D01*
X135056215Y-97849487D01*
X134960762Y-97914925D01*
X134912950Y-97947877D01*
X134845705Y-97993033D01*
X134788764Y-98028817D01*
X134749554Y-98050698D01*
X134736819Y-98055323D01*
X134718283Y-98042845D01*
X134677259Y-98008012D01*
X134617725Y-97954438D01*
X134543658Y-97885743D01*
X134459035Y-97805541D01*
X134405515Y-97754046D01*
X134311881Y-97662046D01*
X134230959Y-97579759D01*
X134166023Y-97510705D01*
X134120342Y-97458404D01*
X134097189Y-97426376D01*
X134094968Y-97419876D01*
X134105276Y-97395154D01*
X134133761Y-97345165D01*
X134177263Y-97274972D01*
X134232623Y-97189635D01*
X134296680Y-97094216D01*
X134314897Y-97067614D01*
X134381273Y-96970927D01*
X134440822Y-96883877D01*
X134490216Y-96811355D01*
X134526125Y-96758253D01*
X134545219Y-96729463D01*
X134547064Y-96726486D01*
X134544305Y-96703542D01*
X134529662Y-96653096D01*
X134505687Y-96581801D01*
X134474934Y-96496307D01*
X134439956Y-96403267D01*
X134403307Y-96309334D01*
X134367539Y-96221159D01*
X134335206Y-96145394D01*
X134308862Y-96088691D01*
X134291058Y-96057703D01*
X134289793Y-96056217D01*
X134278906Y-96047361D01*
X134260518Y-96038603D01*
X134230594Y-96029037D01*
X134185097Y-96017756D01*
X134119991Y-96003853D01*
X134031239Y-95986423D01*
X133914807Y-95964558D01*
X133766658Y-95937351D01*
X133734582Y-95931501D01*
X133639514Y-95913134D01*
X133556635Y-95895165D01*
X133493270Y-95879329D01*
X133456742Y-95867360D01*
X133451844Y-95864570D01*
X133443773Y-95839832D01*
X133437213Y-95784550D01*
X133432167Y-95705149D01*
X133428641Y-95608056D01*
X133426639Y-95499698D01*
X133426164Y-95386500D01*
X133427223Y-95274888D01*
X133429818Y-95171289D01*
X133433954Y-95082128D01*
X133439637Y-95013832D01*
X133446869Y-94972826D01*
X133451229Y-94964434D01*
X133475502Y-94955968D01*
X133530774Y-94942195D01*
X133611538Y-94924310D01*
X133712288Y-94903508D01*
X133827517Y-94880983D01*
X133890298Y-94869178D01*
X134009413Y-94846911D01*
X134115635Y-94826739D01*
X134203773Y-94809675D01*
X134268634Y-94796729D01*
X134305026Y-94788915D01*
X134311016Y-94787182D01*
X134321139Y-94767650D01*
X134342538Y-94720603D01*
X134372361Y-94652763D01*
X134407755Y-94570851D01*
X134445868Y-94481588D01*
X134483847Y-94391695D01*
X134518840Y-94307895D01*
X134547994Y-94236907D01*
X134568457Y-94185454D01*
X134577377Y-94160257D01*
X134577543Y-94159156D01*
X134567431Y-94139279D01*
X134539083Y-94093537D01*
X134495477Y-94026477D01*
X134439594Y-93942644D01*
X134374413Y-93846586D01*
X134336521Y-93791410D01*
X134267475Y-93690241D01*
X134206150Y-93598390D01*
X134155537Y-93520504D01*
X134118629Y-93461229D01*
X134098418Y-93425211D01*
X134095499Y-93417137D01*
X134108047Y-93398344D01*
X134142737Y-93358217D01*
X134195137Y-93301253D01*
X134260816Y-93231945D01*
X134335344Y-93154791D01*
X134414287Y-93074285D01*
X134493217Y-92994923D01*
X134567700Y-92921200D01*
X134633306Y-92857612D01*
X134685604Y-92808654D01*
X134720161Y-92778821D01*
X134731722Y-92771702D01*
X134750546Y-92781713D01*
X134795569Y-92809838D01*
X134862413Y-92853214D01*
X134946701Y-92908978D01*
X135044056Y-92974266D01*
X135117493Y-93024006D01*
X135488533Y-93276311D01*
X136107105Y-93021315D01*
X136190925Y-92576691D01*
X136274746Y-92132067D01*
X137200194Y-92132067D01*
X137284014Y-92576691D01*
D11*
%TO.C,J1*%
X146360000Y-102390000D02*
X143860000Y-102390000D01*
X146360000Y-104890000D02*
X146360000Y-102390000D01*
X134340000Y-104190000D02*
X134340000Y-102690000D01*
X133340000Y-104190000D02*
X134340000Y-104190000D01*
X145060000Y-104190000D02*
X145060000Y-102690000D01*
X146060000Y-104190000D02*
X145060000Y-104190000D01*
X133840000Y-105000000D02*
X133340000Y-105000000D01*
X133840000Y-106210000D02*
X133840000Y-105000000D01*
X145560000Y-106210000D02*
X133840000Y-106210000D01*
X145560000Y-105000000D02*
X145560000Y-106210000D01*
X146060000Y-105000000D02*
X145560000Y-105000000D01*
X133340000Y-106710000D02*
X146060000Y-106710000D01*
X133340000Y-102690000D02*
X133340000Y-106710000D01*
X146060000Y-102690000D02*
X133340000Y-102690000D01*
X146060000Y-106710000D02*
X146060000Y-102690000D01*
%TO.C,J3*%
X147730000Y-109580000D02*
X148230000Y-109580000D01*
X147730000Y-108840000D02*
X147730000Y-109580000D01*
X164552000Y-104972000D02*
X164157000Y-105368000D01*
X167198000Y-102326000D02*
X166818000Y-102706000D01*
X164803000Y-105254000D02*
X164423000Y-105634000D01*
X167464000Y-102592000D02*
X167069000Y-102988000D01*
X159472000Y-104972000D02*
X159077000Y-105368000D01*
X162118000Y-102326000D02*
X161738000Y-102706000D01*
X159723000Y-105254000D02*
X159343000Y-105634000D01*
X162384000Y-102592000D02*
X161989000Y-102988000D01*
X154392000Y-104972000D02*
X153997000Y-105368000D01*
X157038000Y-102326000D02*
X156658000Y-102706000D01*
X154643000Y-105254000D02*
X154263000Y-105634000D01*
X157304000Y-102592000D02*
X156909000Y-102988000D01*
X149022000Y-105261000D02*
X148916000Y-105368000D01*
X151958000Y-102326000D02*
X151851000Y-102433000D01*
X149288000Y-105527000D02*
X149182000Y-105634000D01*
X152224000Y-102592000D02*
X152117000Y-102699000D01*
X168410000Y-98020000D02*
X168410000Y-109340000D01*
X147970000Y-98020000D02*
X147970000Y-109340000D01*
X147970000Y-109340000D02*
X168410000Y-109340000D01*
X147970000Y-98020000D02*
X168410000Y-98020000D01*
X147970000Y-100080000D02*
X168410000Y-100080000D01*
X147970000Y-106280000D02*
X168410000Y-106280000D01*
X147970000Y-108780000D02*
X168410000Y-108780000D01*
X167990000Y-103980000D02*
G75*
G03*
X167990000Y-103980000I-2180000J0D01*
G01*
X162910000Y-103980000D02*
G75*
G03*
X162910000Y-103980000I-2180000J0D01*
G01*
X157830000Y-103980000D02*
G75*
G03*
X157830000Y-103980000I-2180000J0D01*
G01*
X152750000Y-103980000D02*
G75*
G03*
X152750000Y-103980000I-2180000J0D01*
G01*
%TO.C,J2*%
X101160000Y-109600000D02*
X101660000Y-109600000D01*
X101160000Y-108860000D02*
X101160000Y-109600000D01*
X128142000Y-104992000D02*
X127747000Y-105388000D01*
X130788000Y-102346000D02*
X130408000Y-102726000D01*
X128393000Y-105274000D02*
X128013000Y-105654000D01*
X131054000Y-102612000D02*
X130659000Y-103008000D01*
X123062000Y-104992000D02*
X122667000Y-105388000D01*
X125708000Y-102346000D02*
X125328000Y-102726000D01*
X123313000Y-105274000D02*
X122933000Y-105654000D01*
X125974000Y-102612000D02*
X125579000Y-103008000D01*
X117982000Y-104992000D02*
X117587000Y-105388000D01*
X120628000Y-102346000D02*
X120248000Y-102726000D01*
X118233000Y-105274000D02*
X117853000Y-105654000D01*
X120894000Y-102612000D02*
X120499000Y-103008000D01*
X112902000Y-104992000D02*
X112507000Y-105388000D01*
X115548000Y-102346000D02*
X115168000Y-102726000D01*
X113153000Y-105274000D02*
X112773000Y-105654000D01*
X115814000Y-102612000D02*
X115419000Y-103008000D01*
X107822000Y-104992000D02*
X107427000Y-105388000D01*
X110468000Y-102346000D02*
X110088000Y-102726000D01*
X108073000Y-105274000D02*
X107693000Y-105654000D01*
X110734000Y-102612000D02*
X110339000Y-103008000D01*
X102452000Y-105281000D02*
X102346000Y-105388000D01*
X105388000Y-102346000D02*
X105281000Y-102453000D01*
X102718000Y-105547000D02*
X102612000Y-105654000D01*
X105654000Y-102612000D02*
X105547000Y-102719000D01*
X132000000Y-98040000D02*
X132000000Y-109360000D01*
X101400000Y-98040000D02*
X101400000Y-109360000D01*
X101400000Y-109360000D02*
X132000000Y-109360000D01*
X101400000Y-98040000D02*
X132000000Y-98040000D01*
X101400000Y-100100000D02*
X132000000Y-100100000D01*
X101400000Y-106300000D02*
X132000000Y-106300000D01*
X101400000Y-108800000D02*
X132000000Y-108800000D01*
X131580000Y-104000000D02*
G75*
G03*
X131580000Y-104000000I-2180000J0D01*
G01*
X126500000Y-104000000D02*
G75*
G03*
X126500000Y-104000000I-2180000J0D01*
G01*
X121420000Y-104000000D02*
G75*
G03*
X121420000Y-104000000I-2180000J0D01*
G01*
X116340000Y-104000000D02*
G75*
G03*
X116340000Y-104000000I-2180000J0D01*
G01*
X111260000Y-104000000D02*
G75*
G03*
X111260000Y-104000000I-2180000J0D01*
G01*
X106180000Y-104000000D02*
G75*
G03*
X106180000Y-104000000I-2180000J0D01*
G01*
%TD*%
M02*
