%TF.GenerationSoftware,KiCad,Pcbnew,5.99.0-unknown-r18419-5b078893*%
%TF.CreationDate,2020-05-18T11:47:01+06:00*%
%TF.ProjectId,Flatpack,466c6174-7061-4636-9b2e-6b696361645f,rev?*%
%TF.SameCoordinates,Original*%
%TF.FileFunction,Soldermask,Top*%
%TF.FilePolarity,Negative*%
%FSLAX46Y46*%
G04 Gerber Fmt 4.6, Leading zero omitted, Abs format (unit mm)*
G04 Created by KiCad (PCBNEW 5.99.0-unknown-r18419-5b078893) date 2020-05-18 11:47:01*
%MOMM*%
%LPD*%
G01*
G04 APERTURE LIST*
%ADD10C,0.500000*%
%ADD11C,0.100000*%
%ADD12O,1.800000X2.050000*%
%ADD13C,2.700000*%
G04 APERTURE END LIST*
D10*
X127482600Y-93144340D02*
X127480060Y-90893900D01*
X129385060Y-95150940D02*
X127434340Y-93192600D01*
X129377440Y-102428040D02*
X129405380Y-95150940D01*
D11*
G36*
X168711880Y-80137000D02*
G01*
X168757600Y-91033600D01*
X100319840Y-91018360D01*
X100314760Y-80126840D01*
X168711880Y-80137000D01*
G37*
X168711880Y-80137000D02*
X168757600Y-91033600D01*
X100319840Y-91018360D01*
X100314760Y-80126840D01*
X168711880Y-80137000D01*
D12*
%TO.C,J1*%
X135950000Y-105000000D03*
X138450000Y-105000000D03*
X140950000Y-105000000D03*
G36*
G01*
X144350000Y-104239705D02*
X144350000Y-105760295D01*
G75*
G02*
X144085295Y-106025000I-264705J0D01*
G01*
X142814705Y-106025000D01*
G75*
G02*
X142550000Y-105760295I0J264705D01*
G01*
X142550000Y-104239705D01*
G75*
G02*
X142814705Y-103975000I264705J0D01*
G01*
X144085295Y-103975000D01*
G75*
G02*
X144350000Y-104239705I0J-264705D01*
G01*
G37*
%TD*%
D13*
%TO.C,J3*%
X165810000Y-103980000D03*
X160730000Y-103980000D03*
X155650000Y-103980000D03*
G36*
G01*
X149220000Y-105280000D02*
X149220000Y-102680000D01*
G75*
G02*
X149270000Y-102630000I50000J0D01*
G01*
X151870000Y-102630000D01*
G75*
G02*
X151920000Y-102680000I0J-50000D01*
G01*
X151920000Y-105280000D01*
G75*
G02*
X151870000Y-105330000I-50000J0D01*
G01*
X149270000Y-105330000D01*
G75*
G02*
X149220000Y-105280000I0J50000D01*
G01*
G37*
%TD*%
%TO.C,J2*%
X129400000Y-104000000D03*
X124320000Y-104000000D03*
X119240000Y-104000000D03*
X114160000Y-104000000D03*
X109080000Y-104000000D03*
G36*
G01*
X102650000Y-105300000D02*
X102650000Y-102700000D01*
G75*
G02*
X102700000Y-102650000I50000J0D01*
G01*
X105300000Y-102650000D01*
G75*
G02*
X105350000Y-102700000I0J-50000D01*
G01*
X105350000Y-105300000D01*
G75*
G02*
X105300000Y-105350000I-50000J0D01*
G01*
X102700000Y-105350000D01*
G75*
G02*
X102650000Y-105300000I0J50000D01*
G01*
G37*
%TD*%
M02*
