%TF.GenerationSoftware,KiCad,Pcbnew,5.99.0-unknown-r18419-5b078893*%
%TF.CreationDate,2020-05-18T11:46:59+06:00*%
%TF.ProjectId,Flatpack,466c6174-7061-4636-9b2e-6b696361645f,rev?*%
%TF.SameCoordinates,Original*%
%TF.FileFunction,Copper,L2,Bot*%
%TF.FilePolarity,Positive*%
%FSLAX46Y46*%
G04 Gerber Fmt 4.6, Leading zero omitted, Abs format (unit mm)*
G04 Created by KiCad (PCBNEW 5.99.0-unknown-r18419-5b078893) date 2020-05-18 11:46:59*
%MOMM*%
%LPD*%
G01*
G04 APERTURE LIST*
%TA.AperFunction,ComponentPad*%
%ADD10O,1.700000X1.950000*%
%TD*%
%TA.AperFunction,ComponentPad*%
%ADD11C,2.600000*%
%TD*%
%TA.AperFunction,ComponentPad*%
%ADD12R,2.600000X2.600000*%
%TD*%
%TA.AperFunction,ViaPad*%
%ADD13C,0.800000*%
%TD*%
%TA.AperFunction,Conductor*%
%ADD14C,0.100000*%
%TD*%
G04 APERTURE END LIST*
D10*
%TO.P,J1,4,Pin_4*%
%TO.N,+1V0*%
X135950000Y-105000000D03*
%TO.P,J1,3,Pin_3*%
%TO.N,GNDD*%
X138450000Y-105000000D03*
%TO.P,J1,2,Pin_2*%
%TO.N,PRI_LO*%
X140950000Y-105000000D03*
%TO.P,J1,1,Pin_1*%
%TO.N,PRI_HI*%
%TA.AperFunction,ComponentPad*%
G36*
G01*
X144300000Y-104275000D02*
X144300000Y-105725000D01*
G75*
G02*
X144050000Y-105975000I-250000J0D01*
G01*
X142850000Y-105975000D01*
G75*
G02*
X142600000Y-105725000I0J250000D01*
G01*
X142600000Y-104275000D01*
G75*
G02*
X142850000Y-104025000I250000J0D01*
G01*
X144050000Y-104025000D01*
G75*
G02*
X144300000Y-104275000I0J-250000D01*
G01*
G37*
%TD.AperFunction*%
%TD*%
D11*
%TO.P,J3,4,Pin_4*%
%TO.N,GND*%
X165810000Y-103980000D03*
%TO.P,J3,3,Pin_3*%
X160730000Y-103980000D03*
%TO.P,J3,2,Pin_2*%
%TO.N,+48V*%
X155650000Y-103980000D03*
D12*
%TO.P,J3,1,Pin_1*%
X150570000Y-103980000D03*
%TD*%
D11*
%TO.P,J2,6,Pin_6*%
%TO.N,Earth*%
X129400000Y-104000000D03*
%TO.P,J2,5,Pin_5*%
X124320000Y-104000000D03*
%TO.P,J2,4,Pin_4*%
%TO.N,NEUT*%
X119240000Y-104000000D03*
%TO.P,J2,3,Pin_3*%
X114160000Y-104000000D03*
%TO.P,J2,2,Pin_2*%
%TO.N,LINE*%
X109080000Y-104000000D03*
D12*
%TO.P,J2,1,Pin_1*%
X104000000Y-104000000D03*
%TD*%
D13*
%TO.N,LINE*%
X101000000Y-96000000D03*
X103000000Y-96000000D03*
X105000000Y-96000000D03*
X107000000Y-96000000D03*
X106000000Y-94000000D03*
X104000000Y-94000000D03*
X102000000Y-94000000D03*
X101000000Y-92000000D03*
X103000000Y-92000000D03*
X105000000Y-92000000D03*
X107000000Y-92000000D03*
%TO.N,NEUT*%
X116000000Y-96000000D03*
X118000000Y-96000000D03*
X120000000Y-96000000D03*
X122000000Y-96000000D03*
X121000000Y-94000000D03*
X119000000Y-94000000D03*
X117000000Y-94000000D03*
X116000000Y-92000000D03*
X118000000Y-92000000D03*
X120000000Y-92000000D03*
X122000000Y-92000000D03*
%TO.N,+48V*%
X144000000Y-92000000D03*
X146000000Y-92000000D03*
X148000000Y-92000000D03*
X150000000Y-92000000D03*
X152000000Y-92000000D03*
X154000000Y-96000000D03*
%TO.N,GND*%
X168000000Y-96000000D03*
X166000000Y-96000000D03*
X164000000Y-96000000D03*
X162000000Y-96000000D03*
X160000000Y-96000000D03*
X159000000Y-94000000D03*
X161000000Y-94000000D03*
X163000000Y-94000000D03*
X165000000Y-94000000D03*
X167000000Y-94000000D03*
X168000000Y-92000000D03*
X166000000Y-92000000D03*
X164000000Y-92000000D03*
X162000000Y-92000000D03*
X160000000Y-92000000D03*
%TO.N,+48V*%
X152000000Y-96000000D03*
X150000000Y-96000000D03*
X148000000Y-96000000D03*
X146000000Y-96000000D03*
X145000000Y-94000000D03*
X147000000Y-94000000D03*
X149000000Y-94000000D03*
X151000000Y-94000000D03*
X153000000Y-94000000D03*
%TD*%
%TO.N,Earth*%
G36*
X138079801Y-80252488D02*
G01*
X138171972Y-80328278D01*
X138290198Y-80472695D01*
X138377932Y-80637422D01*
X138431797Y-80816121D01*
X138449947Y-81004311D01*
X138422485Y-93696062D01*
X138405637Y-93873342D01*
X138357069Y-94042301D01*
X138278222Y-94199434D01*
X138170409Y-94341182D01*
X131393599Y-101721002D01*
X131392120Y-101722772D01*
X131276465Y-101875319D01*
X131274035Y-101879243D01*
X131188458Y-102051772D01*
X131186805Y-102056081D01*
X131135027Y-102241578D01*
X131134209Y-102246120D01*
X131118156Y-102436878D01*
X131118071Y-102439183D01*
X131149473Y-105527006D01*
X131132625Y-105716419D01*
X131079578Y-105896493D01*
X130992184Y-106062632D01*
X130873847Y-106208365D01*
X130729186Y-106328004D01*
X130563841Y-106416886D01*
X130384246Y-106471550D01*
X130194999Y-106490099D01*
X123635698Y-106482330D01*
X123447585Y-106463553D01*
X123269085Y-106409101D01*
X123104662Y-106320830D01*
X122960646Y-106202139D01*
X122842591Y-106057605D01*
X122755040Y-105892790D01*
X122701374Y-105714057D01*
X122683425Y-105525863D01*
X122694359Y-102119782D01*
X122717185Y-101914421D01*
X122782447Y-101721157D01*
X122888794Y-101543998D01*
X128330847Y-94357273D01*
X128332327Y-94355082D01*
X128445142Y-94166969D01*
X128447359Y-94162164D01*
X128517701Y-93953004D01*
X128518838Y-93947835D01*
X128542617Y-93729781D01*
X128542761Y-93727140D01*
X128551956Y-81001561D01*
X128570581Y-80813767D01*
X128624765Y-80635523D01*
X128712666Y-80471267D01*
X128830912Y-80327304D01*
X128923170Y-80251639D01*
X138079801Y-80252488D01*
G37*
D14*
X138079801Y-80252488D02*
X138171972Y-80328278D01*
X138290198Y-80472695D01*
X138377932Y-80637422D01*
X138431797Y-80816121D01*
X138449947Y-81004311D01*
X138422485Y-93696062D01*
X138405637Y-93873342D01*
X138357069Y-94042301D01*
X138278222Y-94199434D01*
X138170409Y-94341182D01*
X131393599Y-101721002D01*
X131392120Y-101722772D01*
X131276465Y-101875319D01*
X131274035Y-101879243D01*
X131188458Y-102051772D01*
X131186805Y-102056081D01*
X131135027Y-102241578D01*
X131134209Y-102246120D01*
X131118156Y-102436878D01*
X131118071Y-102439183D01*
X131149473Y-105527006D01*
X131132625Y-105716419D01*
X131079578Y-105896493D01*
X130992184Y-106062632D01*
X130873847Y-106208365D01*
X130729186Y-106328004D01*
X130563841Y-106416886D01*
X130384246Y-106471550D01*
X130194999Y-106490099D01*
X123635698Y-106482330D01*
X123447585Y-106463553D01*
X123269085Y-106409101D01*
X123104662Y-106320830D01*
X122960646Y-106202139D01*
X122842591Y-106057605D01*
X122755040Y-105892790D01*
X122701374Y-105714057D01*
X122683425Y-105525863D01*
X122694359Y-102119782D01*
X122717185Y-101914421D01*
X122782447Y-101721157D01*
X122888794Y-101543998D01*
X128330847Y-94357273D01*
X128332327Y-94355082D01*
X128445142Y-94166969D01*
X128447359Y-94162164D01*
X128517701Y-93953004D01*
X128518838Y-93947835D01*
X128542617Y-93729781D01*
X128542761Y-93727140D01*
X128551956Y-81001561D01*
X128570581Y-80813767D01*
X128624765Y-80635523D01*
X128712666Y-80471267D01*
X128830912Y-80327304D01*
X128923170Y-80251639D01*
X138079801Y-80252488D01*
%TO.N,LINE*%
G36*
X107541034Y-80249653D02*
G01*
X107673091Y-80358029D01*
X107791332Y-80502107D01*
X107879190Y-80666478D01*
X107933294Y-80844836D01*
X107951800Y-81032727D01*
X107951800Y-96627283D01*
X107951904Y-96629540D01*
X107969179Y-96816327D01*
X107970009Y-96820773D01*
X108021559Y-97002310D01*
X108023190Y-97006528D01*
X108107161Y-97175531D01*
X108109538Y-97179379D01*
X108222401Y-97329210D01*
X108223843Y-97330951D01*
X110444940Y-99774158D01*
X110552073Y-99916499D01*
X110630145Y-100074093D01*
X110677855Y-100243370D01*
X110693775Y-100420803D01*
X110677817Y-105511709D01*
X110658768Y-105699313D01*
X110604234Y-105877303D01*
X110516065Y-106041253D01*
X110397633Y-106184886D01*
X110253485Y-106302687D01*
X110089155Y-106390137D01*
X109910925Y-106443893D01*
X109723229Y-106462122D01*
X103510543Y-106454438D01*
X103322829Y-106435731D01*
X103144665Y-106381489D01*
X102980493Y-106293558D01*
X102836612Y-106175309D01*
X102718545Y-106031286D01*
X102630816Y-105867004D01*
X102576797Y-105688777D01*
X102558320Y-105501035D01*
X102558320Y-100306455D01*
X102558202Y-100304057D01*
X102538703Y-100105721D01*
X102537767Y-100101007D01*
X102479667Y-99909118D01*
X102477831Y-99904676D01*
X102384039Y-99728835D01*
X102382807Y-99726774D01*
X100717764Y-97229212D01*
X100629099Y-97063003D01*
X100575187Y-96885038D01*
X100556708Y-96697568D01*
X100552020Y-81033008D01*
X100570476Y-80845085D01*
X100624548Y-80666675D01*
X100712391Y-80502252D01*
X100830631Y-80358127D01*
X100963515Y-80249043D01*
X107541034Y-80249653D01*
G37*
X107541034Y-80249653D02*
X107673091Y-80358029D01*
X107791332Y-80502107D01*
X107879190Y-80666478D01*
X107933294Y-80844836D01*
X107951800Y-81032727D01*
X107951800Y-96627283D01*
X107951904Y-96629540D01*
X107969179Y-96816327D01*
X107970009Y-96820773D01*
X108021559Y-97002310D01*
X108023190Y-97006528D01*
X108107161Y-97175531D01*
X108109538Y-97179379D01*
X108222401Y-97329210D01*
X108223843Y-97330951D01*
X110444940Y-99774158D01*
X110552073Y-99916499D01*
X110630145Y-100074093D01*
X110677855Y-100243370D01*
X110693775Y-100420803D01*
X110677817Y-105511709D01*
X110658768Y-105699313D01*
X110604234Y-105877303D01*
X110516065Y-106041253D01*
X110397633Y-106184886D01*
X110253485Y-106302687D01*
X110089155Y-106390137D01*
X109910925Y-106443893D01*
X109723229Y-106462122D01*
X103510543Y-106454438D01*
X103322829Y-106435731D01*
X103144665Y-106381489D01*
X102980493Y-106293558D01*
X102836612Y-106175309D01*
X102718545Y-106031286D01*
X102630816Y-105867004D01*
X102576797Y-105688777D01*
X102558320Y-105501035D01*
X102558320Y-100306455D01*
X102558202Y-100304057D01*
X102538703Y-100105721D01*
X102537767Y-100101007D01*
X102479667Y-99909118D01*
X102477831Y-99904676D01*
X102384039Y-99728835D01*
X102382807Y-99726774D01*
X100717764Y-97229212D01*
X100629099Y-97063003D01*
X100575187Y-96885038D01*
X100556708Y-96697568D01*
X100552020Y-81033008D01*
X100570476Y-80845085D01*
X100624548Y-80666675D01*
X100712391Y-80502252D01*
X100830631Y-80358127D01*
X100963515Y-80249043D01*
X107541034Y-80249653D01*
%TO.N,NEUT*%
G36*
X122077030Y-80251002D02*
G01*
X122176488Y-80332626D01*
X122294732Y-80476707D01*
X122382590Y-80641078D01*
X122436694Y-80819436D01*
X122455200Y-81007327D01*
X122455200Y-96767180D01*
X122440476Y-96934943D01*
X122397310Y-97095508D01*
X122325927Y-97248040D01*
X120839026Y-99813587D01*
X120838029Y-99815497D01*
X120762270Y-99977544D01*
X120760794Y-99981595D01*
X120714279Y-100155438D01*
X120713535Y-100159685D01*
X120698246Y-100337912D01*
X120698157Y-100340064D01*
X120710379Y-105510310D01*
X120692206Y-105698814D01*
X120638198Y-105877794D01*
X120550210Y-106042747D01*
X120431642Y-106187298D01*
X120287089Y-106305845D01*
X120122128Y-106393817D01*
X119943140Y-106447808D01*
X119754639Y-106465964D01*
X113495090Y-106450575D01*
X113307729Y-106431704D01*
X113129913Y-106377433D01*
X112966071Y-106289605D01*
X112822441Y-106171563D01*
X112704535Y-106027838D01*
X112616845Y-105863907D01*
X112562736Y-105686057D01*
X112544030Y-105498663D01*
X112536016Y-100402016D01*
X112561614Y-100179933D01*
X112636749Y-99972435D01*
X112759275Y-99785449D01*
X114806917Y-97336552D01*
X114808611Y-97334270D01*
X114937853Y-97137188D01*
X114940401Y-97132102D01*
X115021369Y-96909252D01*
X115022680Y-96903717D01*
X115050089Y-96669636D01*
X115050255Y-96666799D01*
X115059603Y-81006755D01*
X115078205Y-80818950D01*
X115132375Y-80640687D01*
X115220271Y-80476409D01*
X115338513Y-80332428D01*
X115438534Y-80250387D01*
X122077030Y-80251002D01*
G37*
X122077030Y-80251002D02*
X122176488Y-80332626D01*
X122294732Y-80476707D01*
X122382590Y-80641078D01*
X122436694Y-80819436D01*
X122455200Y-81007327D01*
X122455200Y-96767180D01*
X122440476Y-96934943D01*
X122397310Y-97095508D01*
X122325927Y-97248040D01*
X120839026Y-99813587D01*
X120838029Y-99815497D01*
X120762270Y-99977544D01*
X120760794Y-99981595D01*
X120714279Y-100155438D01*
X120713535Y-100159685D01*
X120698246Y-100337912D01*
X120698157Y-100340064D01*
X120710379Y-105510310D01*
X120692206Y-105698814D01*
X120638198Y-105877794D01*
X120550210Y-106042747D01*
X120431642Y-106187298D01*
X120287089Y-106305845D01*
X120122128Y-106393817D01*
X119943140Y-106447808D01*
X119754639Y-106465964D01*
X113495090Y-106450575D01*
X113307729Y-106431704D01*
X113129913Y-106377433D01*
X112966071Y-106289605D01*
X112822441Y-106171563D01*
X112704535Y-106027838D01*
X112616845Y-105863907D01*
X112562736Y-105686057D01*
X112544030Y-105498663D01*
X112536016Y-100402016D01*
X112561614Y-100179933D01*
X112636749Y-99972435D01*
X112759275Y-99785449D01*
X114806917Y-97336552D01*
X114808611Y-97334270D01*
X114937853Y-97137188D01*
X114940401Y-97132102D01*
X115021369Y-96909252D01*
X115022680Y-96903717D01*
X115050089Y-96669636D01*
X115050255Y-96666799D01*
X115059603Y-81006755D01*
X115078205Y-80818950D01*
X115132375Y-80640687D01*
X115220271Y-80476409D01*
X115338513Y-80332428D01*
X115438534Y-80250387D01*
X122077030Y-80251002D01*
%TO.N,+48V*%
G36*
X153101930Y-80253883D02*
G01*
X153174361Y-80313205D01*
X153292814Y-80457289D01*
X153380856Y-80621726D01*
X153435099Y-80800185D01*
X153453696Y-80988210D01*
X153458273Y-94684416D01*
X153458380Y-94686688D01*
X153475948Y-94874699D01*
X153476790Y-94879173D01*
X153529080Y-95061803D01*
X153530734Y-95066045D01*
X153615841Y-95235881D01*
X153618250Y-95239744D01*
X153733249Y-95390950D01*
X153736329Y-95394302D01*
X153876423Y-95520913D01*
X153878180Y-95522358D01*
X157004781Y-97860232D01*
X157136581Y-97979222D01*
X157242912Y-98118568D01*
X157321859Y-98275073D01*
X157370734Y-98443409D01*
X157388098Y-98620119D01*
X157430352Y-106116176D01*
X157412592Y-106305788D01*
X157358569Y-106485861D01*
X157270169Y-106651786D01*
X157150849Y-106797069D01*
X157005269Y-106916040D01*
X156839136Y-107004031D01*
X156658924Y-107057616D01*
X156469272Y-107074912D01*
X149676154Y-107020034D01*
X149489370Y-107000209D01*
X149312281Y-106945217D01*
X149149240Y-106856902D01*
X149006436Y-106738617D01*
X148889310Y-106594865D01*
X148802316Y-106431118D01*
X148748755Y-106253585D01*
X148730440Y-106066656D01*
X148730440Y-100577009D01*
X148730336Y-100574758D01*
X148713167Y-100388544D01*
X148712343Y-100384111D01*
X148661107Y-100203090D01*
X148659486Y-100198883D01*
X148576014Y-100030282D01*
X148573651Y-100026443D01*
X148461435Y-99876849D01*
X148460002Y-99875111D01*
X143755712Y-94676595D01*
X143649539Y-94535045D01*
X143572061Y-94378497D01*
X143524526Y-94210415D01*
X143508337Y-94034228D01*
X143512927Y-81000393D01*
X143531455Y-80812728D01*
X143585495Y-80634585D01*
X143673215Y-80470381D01*
X143791242Y-80326427D01*
X143880552Y-80253027D01*
X153101930Y-80253883D01*
G37*
X153101930Y-80253883D02*
X153174361Y-80313205D01*
X153292814Y-80457289D01*
X153380856Y-80621726D01*
X153435099Y-80800185D01*
X153453696Y-80988210D01*
X153458273Y-94684416D01*
X153458380Y-94686688D01*
X153475948Y-94874699D01*
X153476790Y-94879173D01*
X153529080Y-95061803D01*
X153530734Y-95066045D01*
X153615841Y-95235881D01*
X153618250Y-95239744D01*
X153733249Y-95390950D01*
X153736329Y-95394302D01*
X153876423Y-95520913D01*
X153878180Y-95522358D01*
X157004781Y-97860232D01*
X157136581Y-97979222D01*
X157242912Y-98118568D01*
X157321859Y-98275073D01*
X157370734Y-98443409D01*
X157388098Y-98620119D01*
X157430352Y-106116176D01*
X157412592Y-106305788D01*
X157358569Y-106485861D01*
X157270169Y-106651786D01*
X157150849Y-106797069D01*
X157005269Y-106916040D01*
X156839136Y-107004031D01*
X156658924Y-107057616D01*
X156469272Y-107074912D01*
X149676154Y-107020034D01*
X149489370Y-107000209D01*
X149312281Y-106945217D01*
X149149240Y-106856902D01*
X149006436Y-106738617D01*
X148889310Y-106594865D01*
X148802316Y-106431118D01*
X148748755Y-106253585D01*
X148730440Y-106066656D01*
X148730440Y-100577009D01*
X148730336Y-100574758D01*
X148713167Y-100388544D01*
X148712343Y-100384111D01*
X148661107Y-100203090D01*
X148659486Y-100198883D01*
X148576014Y-100030282D01*
X148573651Y-100026443D01*
X148461435Y-99876849D01*
X148460002Y-99875111D01*
X143755712Y-94676595D01*
X143649539Y-94535045D01*
X143572061Y-94378497D01*
X143524526Y-94210415D01*
X143508337Y-94034228D01*
X143512927Y-81000393D01*
X143531455Y-80812728D01*
X143585495Y-80634585D01*
X143673215Y-80470381D01*
X143791242Y-80326427D01*
X143880552Y-80253027D01*
X153101930Y-80253883D01*
%TO.N,GND*%
G36*
X168051746Y-80262880D02*
G01*
X168195251Y-80381666D01*
X168312837Y-80526154D01*
X168399992Y-80690795D01*
X168453370Y-80869270D01*
X168471150Y-81057134D01*
X168377115Y-106037542D01*
X168357767Y-106226024D01*
X168302609Y-106404753D01*
X168213528Y-106569223D01*
X168093975Y-106713064D01*
X167948563Y-106830727D01*
X167782941Y-106917638D01*
X167603500Y-106970443D01*
X167414787Y-106987312D01*
X159664356Y-106914651D01*
X159477497Y-106894562D01*
X159300397Y-106839284D01*
X159137394Y-106750659D01*
X158994715Y-106632070D01*
X158877780Y-106488026D01*
X158791047Y-106324018D01*
X158737815Y-106146284D01*
X158719886Y-105959211D01*
X158737612Y-97813932D01*
X158737396Y-97810628D01*
X158711189Y-97614635D01*
X158709434Y-97608242D01*
X158632511Y-97427874D01*
X158632508Y-97427867D01*
X158559426Y-97256658D01*
X158535018Y-97075459D01*
X158549192Y-81016144D01*
X158567950Y-80827832D01*
X158622462Y-80649142D01*
X158710860Y-80484568D01*
X158829738Y-80340448D01*
X158930098Y-80258580D01*
X168026923Y-80249473D01*
X168051746Y-80262880D01*
G37*
X168051746Y-80262880D02*
X168195251Y-80381666D01*
X168312837Y-80526154D01*
X168399992Y-80690795D01*
X168453370Y-80869270D01*
X168471150Y-81057134D01*
X168377115Y-106037542D01*
X168357767Y-106226024D01*
X168302609Y-106404753D01*
X168213528Y-106569223D01*
X168093975Y-106713064D01*
X167948563Y-106830727D01*
X167782941Y-106917638D01*
X167603500Y-106970443D01*
X167414787Y-106987312D01*
X159664356Y-106914651D01*
X159477497Y-106894562D01*
X159300397Y-106839284D01*
X159137394Y-106750659D01*
X158994715Y-106632070D01*
X158877780Y-106488026D01*
X158791047Y-106324018D01*
X158737815Y-106146284D01*
X158719886Y-105959211D01*
X158737612Y-97813932D01*
X158737396Y-97810628D01*
X158711189Y-97614635D01*
X158709434Y-97608242D01*
X158632511Y-97427874D01*
X158632508Y-97427867D01*
X158559426Y-97256658D01*
X158535018Y-97075459D01*
X158549192Y-81016144D01*
X158567950Y-80827832D01*
X158622462Y-80649142D01*
X158710860Y-80484568D01*
X158829738Y-80340448D01*
X158930098Y-80258580D01*
X168026923Y-80249473D01*
X168051746Y-80262880D01*
%TD*%
M02*
