%TF.GenerationSoftware,KiCad,Pcbnew,5.99.0-unknown-r18419-5b078893*%
%TF.CreationDate,2020-05-18T11:47:00+06:00*%
%TF.ProjectId,Flatpack,466c6174-7061-4636-9b2e-6b696361645f,rev?*%
%TF.SameCoordinates,Original*%
%TF.FileFunction,Legend,Bot*%
%TF.FilePolarity,Positive*%
%FSLAX46Y46*%
G04 Gerber Fmt 4.6, Leading zero omitted, Abs format (unit mm)*
G04 Created by KiCad (PCBNEW 5.99.0-unknown-r18419-5b078893) date 2020-05-18 11:47:00*
%MOMM*%
%LPD*%
G01*
G04 APERTURE LIST*
%ADD10C,0.150000*%
%ADD11C,0.010000*%
G04 APERTURE END LIST*
D10*
X168455336Y-108224011D02*
X168122002Y-108224011D01*
X167979145Y-108747820D02*
X168455336Y-108747820D01*
X168455336Y-107747820D01*
X167979145Y-107747820D01*
X167407717Y-108747820D02*
X167502955Y-108700201D01*
X167550574Y-108604963D01*
X167550574Y-107747820D01*
X167169621Y-108081154D02*
X166788669Y-108081154D01*
X167026764Y-107747820D02*
X167026764Y-108604963D01*
X166979145Y-108700201D01*
X166883907Y-108747820D01*
X166788669Y-108747820D01*
X166074383Y-108700201D02*
X166169621Y-108747820D01*
X166360098Y-108747820D01*
X166455336Y-108700201D01*
X166502955Y-108604963D01*
X166502955Y-108224011D01*
X166455336Y-108128773D01*
X166360098Y-108081154D01*
X166169621Y-108081154D01*
X166074383Y-108128773D01*
X166026764Y-108224011D01*
X166026764Y-108319249D01*
X166502955Y-108414487D01*
X165598193Y-108747820D02*
X165598193Y-107747820D01*
X165502955Y-108366868D02*
X165217240Y-108747820D01*
X165217240Y-108081154D02*
X165598193Y-108462106D01*
X163693431Y-108224011D02*
X164026764Y-108224011D01*
X164026764Y-108747820D02*
X164026764Y-107747820D01*
X163550574Y-107747820D01*
X163026764Y-108747820D02*
X163122002Y-108700201D01*
X163169621Y-108604963D01*
X163169621Y-107747820D01*
X162217240Y-108747820D02*
X162217240Y-108224011D01*
X162264860Y-108128773D01*
X162360098Y-108081154D01*
X162550574Y-108081154D01*
X162645812Y-108128773D01*
X162217240Y-108700201D02*
X162312479Y-108747820D01*
X162550574Y-108747820D01*
X162645812Y-108700201D01*
X162693431Y-108604963D01*
X162693431Y-108509725D01*
X162645812Y-108414487D01*
X162550574Y-108366868D01*
X162312479Y-108366868D01*
X162217240Y-108319249D01*
X161883907Y-108081154D02*
X161502955Y-108081154D01*
X161741050Y-107747820D02*
X161741050Y-108604963D01*
X161693431Y-108700201D01*
X161598193Y-108747820D01*
X161502955Y-108747820D01*
X161169621Y-108081154D02*
X161169621Y-109081154D01*
X161169621Y-108128773D02*
X161074383Y-108081154D01*
X160883907Y-108081154D01*
X160788669Y-108128773D01*
X160741050Y-108176392D01*
X160693431Y-108271630D01*
X160693431Y-108557344D01*
X160741050Y-108652582D01*
X160788669Y-108700201D01*
X160883907Y-108747820D01*
X161074383Y-108747820D01*
X161169621Y-108700201D01*
X159836288Y-108747820D02*
X159836288Y-108224011D01*
X159883907Y-108128773D01*
X159979145Y-108081154D01*
X160169621Y-108081154D01*
X160264860Y-108128773D01*
X159836288Y-108700201D02*
X159931526Y-108747820D01*
X160169621Y-108747820D01*
X160264860Y-108700201D01*
X160312479Y-108604963D01*
X160312479Y-108509725D01*
X160264860Y-108414487D01*
X160169621Y-108366868D01*
X159931526Y-108366868D01*
X159836288Y-108319249D01*
X158931526Y-108700201D02*
X159026764Y-108747820D01*
X159217240Y-108747820D01*
X159312479Y-108700201D01*
X159360098Y-108652582D01*
X159407717Y-108557344D01*
X159407717Y-108271630D01*
X159360098Y-108176392D01*
X159312479Y-108128773D01*
X159217240Y-108081154D01*
X159026764Y-108081154D01*
X158931526Y-108128773D01*
X158502955Y-108747820D02*
X158502955Y-107747820D01*
X158407717Y-108366868D02*
X158122002Y-108747820D01*
X158122002Y-108081154D02*
X158502955Y-108462106D01*
X157741050Y-107843059D02*
X157693431Y-107795440D01*
X157598193Y-107747820D01*
X157360098Y-107747820D01*
X157264860Y-107795440D01*
X157217240Y-107843059D01*
X157169621Y-107938297D01*
X157169621Y-108033535D01*
X157217240Y-108176392D01*
X157788669Y-108747820D01*
X157169621Y-108747820D01*
X155979145Y-108747820D02*
X155979145Y-107747820D01*
X155979145Y-108224011D02*
X155407717Y-108224011D01*
X155407717Y-108747820D02*
X155407717Y-107747820D01*
X154931526Y-108224011D02*
X154598193Y-108224011D01*
X154455336Y-108747820D02*
X154931526Y-108747820D01*
X154931526Y-107747820D01*
X154455336Y-107747820D01*
X152836288Y-108747820D02*
X152836288Y-108224011D01*
X152883907Y-108128773D01*
X152979145Y-108081154D01*
X153169621Y-108081154D01*
X153264860Y-108128773D01*
X152836288Y-108700201D02*
X152931526Y-108747820D01*
X153169621Y-108747820D01*
X153264860Y-108700201D01*
X153312479Y-108604963D01*
X153312479Y-108509725D01*
X153264860Y-108414487D01*
X153169621Y-108366868D01*
X152931526Y-108366868D01*
X152836288Y-108319249D01*
X151931526Y-108747820D02*
X151931526Y-107747820D01*
X151931526Y-108700201D02*
X152026764Y-108747820D01*
X152217240Y-108747820D01*
X152312479Y-108700201D01*
X152360098Y-108652582D01*
X152407717Y-108557344D01*
X152407717Y-108271630D01*
X152360098Y-108176392D01*
X152312479Y-108128773D01*
X152217240Y-108081154D01*
X152026764Y-108081154D01*
X151931526Y-108128773D01*
X151026764Y-108747820D02*
X151026764Y-108224011D01*
X151074383Y-108128773D01*
X151169621Y-108081154D01*
X151360098Y-108081154D01*
X151455336Y-108128773D01*
X151026764Y-108700201D02*
X151122002Y-108747820D01*
X151360098Y-108747820D01*
X151455336Y-108700201D01*
X151502955Y-108604963D01*
X151502955Y-108509725D01*
X151455336Y-108414487D01*
X151360098Y-108366868D01*
X151122002Y-108366868D01*
X151026764Y-108319249D01*
X150550574Y-108081154D02*
X150550574Y-109081154D01*
X150550574Y-108128773D02*
X150455336Y-108081154D01*
X150264860Y-108081154D01*
X150169621Y-108128773D01*
X150122002Y-108176392D01*
X150074383Y-108271630D01*
X150074383Y-108557344D01*
X150122002Y-108652582D01*
X150169621Y-108700201D01*
X150264860Y-108747820D01*
X150455336Y-108747820D01*
X150550574Y-108700201D01*
X149788669Y-108081154D02*
X149407717Y-108081154D01*
X149645812Y-107747820D02*
X149645812Y-108604963D01*
X149598193Y-108700201D01*
X149502955Y-108747820D01*
X149407717Y-108747820D01*
X148693431Y-108700201D02*
X148788669Y-108747820D01*
X148979145Y-108747820D01*
X149074383Y-108700201D01*
X149122002Y-108604963D01*
X149122002Y-108224011D01*
X149074383Y-108128773D01*
X148979145Y-108081154D01*
X148788669Y-108081154D01*
X148693431Y-108128773D01*
X148645812Y-108224011D01*
X148645812Y-108319249D01*
X149122002Y-108414487D01*
X148217240Y-108747820D02*
X148217240Y-108081154D01*
X148217240Y-108271630D02*
X148169621Y-108176392D01*
X148122002Y-108128773D01*
X148026764Y-108081154D01*
X147931526Y-108081154D01*
X166640164Y-99786961D02*
X166640164Y-97786961D01*
X166163974Y-97786961D01*
X165878260Y-97882200D01*
X165687783Y-98072676D01*
X165592545Y-98263152D01*
X165497307Y-98644104D01*
X165497307Y-98929819D01*
X165592545Y-99310771D01*
X165687783Y-99501247D01*
X165878260Y-99691723D01*
X166163974Y-99786961D01*
X166640164Y-99786961D01*
X163497307Y-99596485D02*
X163592545Y-99691723D01*
X163878260Y-99786961D01*
X164068736Y-99786961D01*
X164354450Y-99691723D01*
X164544926Y-99501247D01*
X164640164Y-99310771D01*
X164735402Y-98929819D01*
X164735402Y-98644104D01*
X164640164Y-98263152D01*
X164544926Y-98072676D01*
X164354450Y-97882200D01*
X164068736Y-97786961D01*
X163878260Y-97786961D01*
X163592545Y-97882200D01*
X163497307Y-97977438D01*
X162640164Y-99025057D02*
X161116355Y-99025057D01*
X155895964Y-100079061D02*
X155895964Y-98079061D01*
X155419774Y-98079061D01*
X155134060Y-98174300D01*
X154943583Y-98364776D01*
X154848345Y-98555252D01*
X154753107Y-98936204D01*
X154753107Y-99221919D01*
X154848345Y-99602871D01*
X154943583Y-99793347D01*
X155134060Y-99983823D01*
X155419774Y-100079061D01*
X155895964Y-100079061D01*
X152753107Y-99888585D02*
X152848345Y-99983823D01*
X153134060Y-100079061D01*
X153324536Y-100079061D01*
X153610250Y-99983823D01*
X153800726Y-99793347D01*
X153895964Y-99602871D01*
X153991202Y-99221919D01*
X153991202Y-98936204D01*
X153895964Y-98555252D01*
X153800726Y-98364776D01*
X153610250Y-98174300D01*
X153324536Y-98079061D01*
X153134060Y-98079061D01*
X152848345Y-98174300D01*
X152753107Y-98269538D01*
X151895964Y-99317157D02*
X150372155Y-99317157D01*
X151134060Y-100079061D02*
X151134060Y-98555252D01*
X129068651Y-99929201D02*
X129068651Y-97929201D01*
X128306746Y-97929201D01*
X128116270Y-98024440D01*
X128021032Y-98119678D01*
X127925794Y-98310154D01*
X127925794Y-98595868D01*
X128021032Y-98786344D01*
X128116270Y-98881582D01*
X128306746Y-98976820D01*
X129068651Y-98976820D01*
X127068651Y-98881582D02*
X126401984Y-98881582D01*
X126116270Y-99929201D02*
X127068651Y-99929201D01*
X127068651Y-97929201D01*
X126116270Y-97929201D01*
X116756251Y-98063798D02*
X116756251Y-100063798D01*
X117899108Y-98063798D01*
X117899108Y-100063798D01*
X105141472Y-99964761D02*
X106093853Y-99964761D01*
X106093853Y-97964761D01*
X114423770Y-94332086D02*
X113947580Y-94332086D01*
X114519008Y-94617800D02*
X114185675Y-93617800D01*
X113852341Y-94617800D01*
X112947580Y-94522562D02*
X112995199Y-94570181D01*
X113138056Y-94617800D01*
X113233294Y-94617800D01*
X113376151Y-94570181D01*
X113471389Y-94474943D01*
X113519008Y-94379705D01*
X113566627Y-94189229D01*
X113566627Y-94046372D01*
X113519008Y-93855896D01*
X113471389Y-93760658D01*
X113376151Y-93665420D01*
X113233294Y-93617800D01*
X113138056Y-93617800D01*
X112995199Y-93665420D01*
X112947580Y-93713039D01*
X111804722Y-93713039D02*
X111757103Y-93665420D01*
X111661865Y-93617800D01*
X111423770Y-93617800D01*
X111328532Y-93665420D01*
X111280913Y-93713039D01*
X111233294Y-93808277D01*
X111233294Y-93903515D01*
X111280913Y-94046372D01*
X111852341Y-94617800D01*
X111233294Y-94617800D01*
X110899960Y-93617800D02*
X110280913Y-93617800D01*
X110614246Y-93998753D01*
X110471389Y-93998753D01*
X110376151Y-94046372D01*
X110328532Y-94093991D01*
X110280913Y-94189229D01*
X110280913Y-94427324D01*
X110328532Y-94522562D01*
X110376151Y-94570181D01*
X110471389Y-94617800D01*
X110757103Y-94617800D01*
X110852341Y-94570181D01*
X110899960Y-94522562D01*
X109661865Y-93617800D02*
X109566627Y-93617800D01*
X109471389Y-93665420D01*
X109423770Y-93713039D01*
X109376151Y-93808277D01*
X109328532Y-93998753D01*
X109328532Y-94236848D01*
X109376151Y-94427324D01*
X109423770Y-94522562D01*
X109471389Y-94570181D01*
X109566627Y-94617800D01*
X109661865Y-94617800D01*
X109757103Y-94570181D01*
X109804722Y-94522562D01*
X109852341Y-94427324D01*
X109899960Y-94236848D01*
X109899960Y-93998753D01*
X109852341Y-93808277D01*
X109804722Y-93713039D01*
X109757103Y-93665420D01*
X109661865Y-93617800D01*
X109042818Y-93617800D02*
X108709484Y-94617800D01*
X108376151Y-93617800D01*
X147369371Y-101949204D02*
X147369371Y-101149204D01*
X147026514Y-101949204D02*
X147026514Y-101530157D01*
X147064609Y-101453966D01*
X147140800Y-101415871D01*
X147255085Y-101415871D01*
X147331276Y-101453966D01*
X147369371Y-101492061D01*
X146759847Y-101415871D02*
X146455085Y-101415871D01*
X146645561Y-101149204D02*
X146645561Y-101834919D01*
X146607466Y-101911109D01*
X146531276Y-101949204D01*
X146455085Y-101949204D01*
X146302704Y-101415871D02*
X145997942Y-101415871D01*
X146188419Y-101149204D02*
X146188419Y-101834919D01*
X146150323Y-101911109D01*
X146074133Y-101949204D01*
X145997942Y-101949204D01*
X145731276Y-101415871D02*
X145731276Y-102215871D01*
X145731276Y-101453966D02*
X145655085Y-101415871D01*
X145502704Y-101415871D01*
X145426514Y-101453966D01*
X145388419Y-101492061D01*
X145350323Y-101568252D01*
X145350323Y-101796823D01*
X145388419Y-101873014D01*
X145426514Y-101911109D01*
X145502704Y-101949204D01*
X145655085Y-101949204D01*
X145731276Y-101911109D01*
X145045561Y-101911109D02*
X144969371Y-101949204D01*
X144816990Y-101949204D01*
X144740800Y-101911109D01*
X144702704Y-101834919D01*
X144702704Y-101796823D01*
X144740800Y-101720633D01*
X144816990Y-101682538D01*
X144931276Y-101682538D01*
X145007466Y-101644442D01*
X145045561Y-101568252D01*
X145045561Y-101530157D01*
X145007466Y-101453966D01*
X144931276Y-101415871D01*
X144816990Y-101415871D01*
X144740800Y-101453966D01*
X144359847Y-101873014D02*
X144321752Y-101911109D01*
X144359847Y-101949204D01*
X144397942Y-101911109D01*
X144359847Y-101873014D01*
X144359847Y-101949204D01*
X144359847Y-101453966D02*
X144321752Y-101492061D01*
X144359847Y-101530157D01*
X144397942Y-101492061D01*
X144359847Y-101453966D01*
X144359847Y-101530157D01*
X143407466Y-101111109D02*
X144093180Y-102139680D01*
X142569371Y-101111109D02*
X143255085Y-102139680D01*
X141959847Y-101415871D02*
X141959847Y-102063490D01*
X141997942Y-102139680D01*
X142036038Y-102177776D01*
X142112228Y-102215871D01*
X142226514Y-102215871D01*
X142302704Y-102177776D01*
X141959847Y-101911109D02*
X142036038Y-101949204D01*
X142188419Y-101949204D01*
X142264609Y-101911109D01*
X142302704Y-101873014D01*
X142340800Y-101796823D01*
X142340800Y-101568252D01*
X142302704Y-101492061D01*
X142264609Y-101453966D01*
X142188419Y-101415871D01*
X142036038Y-101415871D01*
X141959847Y-101453966D01*
X141578895Y-101949204D02*
X141578895Y-101415871D01*
X141578895Y-101149204D02*
X141616990Y-101187300D01*
X141578895Y-101225395D01*
X141540800Y-101187300D01*
X141578895Y-101149204D01*
X141578895Y-101225395D01*
X141312228Y-101415871D02*
X141007466Y-101415871D01*
X141197942Y-101149204D02*
X141197942Y-101834919D01*
X141159847Y-101911109D01*
X141083657Y-101949204D01*
X141007466Y-101949204D01*
X140740800Y-101949204D02*
X140740800Y-101149204D01*
X140397942Y-101949204D02*
X140397942Y-101530157D01*
X140436038Y-101453966D01*
X140512228Y-101415871D01*
X140626514Y-101415871D01*
X140702704Y-101453966D01*
X140740800Y-101492061D01*
X139674133Y-101415871D02*
X139674133Y-101949204D01*
X140016990Y-101415871D02*
X140016990Y-101834919D01*
X139978895Y-101911109D01*
X139902704Y-101949204D01*
X139788419Y-101949204D01*
X139712228Y-101911109D01*
X139674133Y-101873014D01*
X139293180Y-101949204D02*
X139293180Y-101149204D01*
X139293180Y-101453966D02*
X139216990Y-101415871D01*
X139064609Y-101415871D01*
X138988419Y-101453966D01*
X138950323Y-101492061D01*
X138912228Y-101568252D01*
X138912228Y-101796823D01*
X138950323Y-101873014D01*
X138988419Y-101911109D01*
X139064609Y-101949204D01*
X139216990Y-101949204D01*
X139293180Y-101911109D01*
X138569371Y-101873014D02*
X138531276Y-101911109D01*
X138569371Y-101949204D01*
X138607466Y-101911109D01*
X138569371Y-101873014D01*
X138569371Y-101949204D01*
X137845561Y-101911109D02*
X137921752Y-101949204D01*
X138074133Y-101949204D01*
X138150323Y-101911109D01*
X138188419Y-101873014D01*
X138226514Y-101796823D01*
X138226514Y-101568252D01*
X138188419Y-101492061D01*
X138150323Y-101453966D01*
X138074133Y-101415871D01*
X137921752Y-101415871D01*
X137845561Y-101453966D01*
X137388419Y-101949204D02*
X137464609Y-101911109D01*
X137502704Y-101873014D01*
X137540800Y-101796823D01*
X137540800Y-101568252D01*
X137502704Y-101492061D01*
X137464609Y-101453966D01*
X137388419Y-101415871D01*
X137274133Y-101415871D01*
X137197942Y-101453966D01*
X137159847Y-101492061D01*
X137121752Y-101568252D01*
X137121752Y-101796823D01*
X137159847Y-101873014D01*
X137197942Y-101911109D01*
X137274133Y-101949204D01*
X137388419Y-101949204D01*
X136778895Y-101949204D02*
X136778895Y-101415871D01*
X136778895Y-101492061D02*
X136740800Y-101453966D01*
X136664609Y-101415871D01*
X136550323Y-101415871D01*
X136474133Y-101453966D01*
X136436038Y-101530157D01*
X136436038Y-101949204D01*
X136436038Y-101530157D02*
X136397942Y-101453966D01*
X136321752Y-101415871D01*
X136207466Y-101415871D01*
X136131276Y-101453966D01*
X136093180Y-101530157D01*
X136093180Y-101949204D01*
X135140800Y-101111109D02*
X135826514Y-102139680D01*
X134950323Y-101415871D02*
X134531276Y-101415871D01*
X134950323Y-101949204D01*
X134531276Y-101949204D01*
X134340800Y-101415871D02*
X134036038Y-101415871D01*
X134226514Y-101149204D02*
X134226514Y-101834919D01*
X134188419Y-101911109D01*
X134112228Y-101949204D01*
X134036038Y-101949204D01*
X133426514Y-101949204D02*
X133426514Y-101530157D01*
X133464609Y-101453966D01*
X133540800Y-101415871D01*
X133693180Y-101415871D01*
X133769371Y-101453966D01*
X133426514Y-101911109D02*
X133502704Y-101949204D01*
X133693180Y-101949204D01*
X133769371Y-101911109D01*
X133807466Y-101834919D01*
X133807466Y-101758728D01*
X133769371Y-101682538D01*
X133693180Y-101644442D01*
X133502704Y-101644442D01*
X133426514Y-101606347D01*
X133045561Y-101949204D02*
X133045561Y-101415871D01*
X133045561Y-101568252D02*
X133007466Y-101492061D01*
X132969371Y-101453966D01*
X132893180Y-101415871D01*
X132816990Y-101415871D01*
X132207466Y-101949204D02*
X132207466Y-101149204D01*
X132207466Y-101911109D02*
X132283657Y-101949204D01*
X132436038Y-101949204D01*
X132512228Y-101911109D01*
X132550323Y-101873014D01*
X132588419Y-101796823D01*
X132588419Y-101568252D01*
X132550323Y-101492061D01*
X132512228Y-101453966D01*
X132436038Y-101415871D01*
X132283657Y-101415871D01*
X132207466Y-101453966D01*
X131826514Y-101949204D02*
X131826514Y-101415871D01*
X131826514Y-101149204D02*
X131864609Y-101187300D01*
X131826514Y-101225395D01*
X131788419Y-101187300D01*
X131826514Y-101149204D01*
X131826514Y-101225395D01*
X131445561Y-101949204D02*
X131445561Y-101149204D01*
X131369371Y-101644442D02*
X131140800Y-101949204D01*
X131140800Y-101415871D02*
X131445561Y-101720633D01*
X130226514Y-101111109D02*
X130912228Y-102139680D01*
X129693180Y-101530157D02*
X129959847Y-101530157D01*
X129959847Y-101949204D02*
X129959847Y-101149204D01*
X129578895Y-101149204D01*
X129159847Y-101949204D02*
X129236038Y-101911109D01*
X129274133Y-101834919D01*
X129274133Y-101149204D01*
X128512228Y-101949204D02*
X128512228Y-101530157D01*
X128550323Y-101453966D01*
X128626514Y-101415871D01*
X128778895Y-101415871D01*
X128855085Y-101453966D01*
X128512228Y-101911109D02*
X128588419Y-101949204D01*
X128778895Y-101949204D01*
X128855085Y-101911109D01*
X128893180Y-101834919D01*
X128893180Y-101758728D01*
X128855085Y-101682538D01*
X128778895Y-101644442D01*
X128588419Y-101644442D01*
X128512228Y-101606347D01*
X128245561Y-101415871D02*
X127940800Y-101415871D01*
X128131276Y-101149204D02*
X128131276Y-101834919D01*
X128093180Y-101911109D01*
X128016990Y-101949204D01*
X127940800Y-101949204D01*
X127674133Y-101415871D02*
X127674133Y-102215871D01*
X127674133Y-101453966D02*
X127597942Y-101415871D01*
X127445561Y-101415871D01*
X127369371Y-101453966D01*
X127331276Y-101492061D01*
X127293180Y-101568252D01*
X127293180Y-101796823D01*
X127331276Y-101873014D01*
X127369371Y-101911109D01*
X127445561Y-101949204D01*
X127597942Y-101949204D01*
X127674133Y-101911109D01*
X126607466Y-101949204D02*
X126607466Y-101530157D01*
X126645561Y-101453966D01*
X126721752Y-101415871D01*
X126874133Y-101415871D01*
X126950323Y-101453966D01*
X126607466Y-101911109D02*
X126683657Y-101949204D01*
X126874133Y-101949204D01*
X126950323Y-101911109D01*
X126988419Y-101834919D01*
X126988419Y-101758728D01*
X126950323Y-101682538D01*
X126874133Y-101644442D01*
X126683657Y-101644442D01*
X126607466Y-101606347D01*
X125883657Y-101911109D02*
X125959847Y-101949204D01*
X126112228Y-101949204D01*
X126188419Y-101911109D01*
X126226514Y-101873014D01*
X126264609Y-101796823D01*
X126264609Y-101568252D01*
X126226514Y-101492061D01*
X126188419Y-101453966D01*
X126112228Y-101415871D01*
X125959847Y-101415871D01*
X125883657Y-101453966D01*
X125540800Y-101949204D02*
X125540800Y-101149204D01*
X125464609Y-101644442D02*
X125236038Y-101949204D01*
X125236038Y-101415871D02*
X125540800Y-101720633D01*
X124931276Y-101225395D02*
X124893180Y-101187300D01*
X124816990Y-101149204D01*
X124626514Y-101149204D01*
X124550323Y-101187300D01*
X124512228Y-101225395D01*
X124474133Y-101301585D01*
X124474133Y-101377776D01*
X124512228Y-101492061D01*
X124969371Y-101949204D01*
X124474133Y-101949204D01*
%TO.C,REF\u002A\u002A*%
G36*
X133135794Y-99670165D02*
G01*
X133141426Y-99676355D01*
X133146516Y-99684561D01*
X133150603Y-99696337D01*
X133153781Y-99713796D01*
X133156147Y-99739050D01*
X133157798Y-99774210D01*
X133158829Y-99821389D01*
X133159337Y-99882697D01*
X133159419Y-99960247D01*
X133159169Y-100056151D01*
X133158685Y-100172520D01*
X133158617Y-100186695D01*
X133158031Y-100248457D01*
X133156708Y-100292140D01*
X133154163Y-100321521D01*
X133149908Y-100340375D01*
X133143456Y-100352479D01*
X133134322Y-100361609D01*
X133100864Y-100379026D01*
X133065916Y-100376124D01*
X133035013Y-100351620D01*
X133026004Y-100338417D01*
X133018552Y-100319881D01*
X133014184Y-100293853D01*
X133012129Y-100255307D01*
X133011616Y-100199220D01*
X133011616Y-100076565D01*
X132514905Y-100076565D01*
X132514905Y-100211391D01*
X132514832Y-100247182D01*
X132514069Y-100293512D01*
X132511893Y-100324046D01*
X132507596Y-100343077D01*
X132500472Y-100354894D01*
X132489815Y-100363791D01*
X132457564Y-100378861D01*
X132422277Y-100376193D01*
X132391546Y-100351620D01*
X132386891Y-100345365D01*
X132380955Y-100334841D01*
X132376424Y-100320911D01*
X132373108Y-100300837D01*
X132370819Y-100271880D01*
X132369368Y-100231300D01*
X132368565Y-100176360D01*
X132368222Y-100104319D01*
X132368149Y-100012440D01*
X132368149Y-99703005D01*
X132395858Y-99675296D01*
X132427237Y-99653053D01*
X132460466Y-99650364D01*
X132492327Y-99670165D01*
X132500613Y-99679935D01*
X132508025Y-99695827D01*
X132512362Y-99719795D01*
X132514398Y-99756668D01*
X132514905Y-99811276D01*
X132514905Y-99929809D01*
X133011616Y-99929809D01*
X133011616Y-99814296D01*
X133012054Y-99762598D01*
X133014018Y-99728074D01*
X133018534Y-99705498D01*
X133026627Y-99689646D01*
X133039325Y-99675296D01*
X133070703Y-99653053D01*
X133103932Y-99650364D01*
X133135794Y-99670165D01*
G37*
D11*
X133135794Y-99670165D02*
X133141426Y-99676355D01*
X133146516Y-99684561D01*
X133150603Y-99696337D01*
X133153781Y-99713796D01*
X133156147Y-99739050D01*
X133157798Y-99774210D01*
X133158829Y-99821389D01*
X133159337Y-99882697D01*
X133159419Y-99960247D01*
X133159169Y-100056151D01*
X133158685Y-100172520D01*
X133158617Y-100186695D01*
X133158031Y-100248457D01*
X133156708Y-100292140D01*
X133154163Y-100321521D01*
X133149908Y-100340375D01*
X133143456Y-100352479D01*
X133134322Y-100361609D01*
X133100864Y-100379026D01*
X133065916Y-100376124D01*
X133035013Y-100351620D01*
X133026004Y-100338417D01*
X133018552Y-100319881D01*
X133014184Y-100293853D01*
X133012129Y-100255307D01*
X133011616Y-100199220D01*
X133011616Y-100076565D01*
X132514905Y-100076565D01*
X132514905Y-100211391D01*
X132514832Y-100247182D01*
X132514069Y-100293512D01*
X132511893Y-100324046D01*
X132507596Y-100343077D01*
X132500472Y-100354894D01*
X132489815Y-100363791D01*
X132457564Y-100378861D01*
X132422277Y-100376193D01*
X132391546Y-100351620D01*
X132386891Y-100345365D01*
X132380955Y-100334841D01*
X132376424Y-100320911D01*
X132373108Y-100300837D01*
X132370819Y-100271880D01*
X132369368Y-100231300D01*
X132368565Y-100176360D01*
X132368222Y-100104319D01*
X132368149Y-100012440D01*
X132368149Y-99703005D01*
X132395858Y-99675296D01*
X132427237Y-99653053D01*
X132460466Y-99650364D01*
X132492327Y-99670165D01*
X132500613Y-99679935D01*
X132508025Y-99695827D01*
X132512362Y-99719795D01*
X132514398Y-99756668D01*
X132514905Y-99811276D01*
X132514905Y-99929809D01*
X133011616Y-99929809D01*
X133011616Y-99814296D01*
X133012054Y-99762598D01*
X133014018Y-99728074D01*
X133018534Y-99705498D01*
X133026627Y-99689646D01*
X133039325Y-99675296D01*
X133070703Y-99653053D01*
X133103932Y-99650364D01*
X133135794Y-99670165D01*
G36*
X133811827Y-99647588D02*
G01*
X133905950Y-99647678D01*
X133980465Y-99648018D01*
X134037871Y-99648759D01*
X134080671Y-99650055D01*
X134111364Y-99652057D01*
X134132451Y-99654916D01*
X134146433Y-99658786D01*
X134155810Y-99663818D01*
X134163082Y-99670165D01*
X134181888Y-99702882D01*
X134183335Y-99740459D01*
X134166977Y-99773698D01*
X134165617Y-99775151D01*
X134154414Y-99783512D01*
X134137312Y-99789067D01*
X134110142Y-99792360D01*
X134068738Y-99793938D01*
X134008933Y-99794342D01*
X133869571Y-99794342D01*
X133869571Y-100058109D01*
X133869496Y-100133937D01*
X133869088Y-100200603D01*
X133868106Y-100250387D01*
X133866310Y-100286304D01*
X133863459Y-100311370D01*
X133859313Y-100328601D01*
X133853631Y-100341012D01*
X133846174Y-100351620D01*
X133843884Y-100354426D01*
X133812706Y-100377068D01*
X133778326Y-100378632D01*
X133745394Y-100358787D01*
X133738415Y-100350711D01*
X133732943Y-100340113D01*
X133728923Y-100324269D01*
X133726132Y-100300293D01*
X133724348Y-100265294D01*
X133723349Y-100216384D01*
X133722912Y-100150674D01*
X133722816Y-100065276D01*
X133722816Y-99794342D01*
X133576880Y-99794342D01*
X133565780Y-99794341D01*
X133509262Y-99794116D01*
X133470418Y-99792977D01*
X133445025Y-99790177D01*
X133428864Y-99784970D01*
X133417712Y-99776609D01*
X133407349Y-99764346D01*
X133391501Y-99733658D01*
X133394603Y-99699878D01*
X133420247Y-99667342D01*
X133425189Y-99663625D01*
X133435398Y-99658789D01*
X133450824Y-99655026D01*
X133473946Y-99652203D01*
X133507243Y-99650190D01*
X133553197Y-99648853D01*
X133614288Y-99648062D01*
X133692995Y-99647683D01*
X133791800Y-99647587D01*
X133811827Y-99647588D01*
G37*
X133811827Y-99647588D02*
X133905950Y-99647678D01*
X133980465Y-99648018D01*
X134037871Y-99648759D01*
X134080671Y-99650055D01*
X134111364Y-99652057D01*
X134132451Y-99654916D01*
X134146433Y-99658786D01*
X134155810Y-99663818D01*
X134163082Y-99670165D01*
X134181888Y-99702882D01*
X134183335Y-99740459D01*
X134166977Y-99773698D01*
X134165617Y-99775151D01*
X134154414Y-99783512D01*
X134137312Y-99789067D01*
X134110142Y-99792360D01*
X134068738Y-99793938D01*
X134008933Y-99794342D01*
X133869571Y-99794342D01*
X133869571Y-100058109D01*
X133869496Y-100133937D01*
X133869088Y-100200603D01*
X133868106Y-100250387D01*
X133866310Y-100286304D01*
X133863459Y-100311370D01*
X133859313Y-100328601D01*
X133853631Y-100341012D01*
X133846174Y-100351620D01*
X133843884Y-100354426D01*
X133812706Y-100377068D01*
X133778326Y-100378632D01*
X133745394Y-100358787D01*
X133738415Y-100350711D01*
X133732943Y-100340113D01*
X133728923Y-100324269D01*
X133726132Y-100300293D01*
X133724348Y-100265294D01*
X133723349Y-100216384D01*
X133722912Y-100150674D01*
X133722816Y-100065276D01*
X133722816Y-99794342D01*
X133576880Y-99794342D01*
X133565780Y-99794341D01*
X133509262Y-99794116D01*
X133470418Y-99792977D01*
X133445025Y-99790177D01*
X133428864Y-99784970D01*
X133417712Y-99776609D01*
X133407349Y-99764346D01*
X133391501Y-99733658D01*
X133394603Y-99699878D01*
X133420247Y-99667342D01*
X133425189Y-99663625D01*
X133435398Y-99658789D01*
X133450824Y-99655026D01*
X133473946Y-99652203D01*
X133507243Y-99650190D01*
X133553197Y-99648853D01*
X133614288Y-99648062D01*
X133692995Y-99647683D01*
X133791800Y-99647587D01*
X133811827Y-99647588D01*
G36*
X134511466Y-99653469D02*
G01*
X134537187Y-99669167D01*
X134563838Y-99690747D01*
X134563838Y-100338204D01*
X134537187Y-100359784D01*
X134505827Y-100377259D01*
X134470026Y-100378095D01*
X134438588Y-100357602D01*
X134434712Y-100352936D01*
X134429246Y-100343469D01*
X134425039Y-100329787D01*
X134421927Y-100309268D01*
X134419747Y-100279288D01*
X134418336Y-100237224D01*
X134417531Y-100180452D01*
X134417167Y-100106350D01*
X134417082Y-100012293D01*
X134417082Y-99690747D01*
X134443733Y-99669167D01*
X134467446Y-99654397D01*
X134490460Y-99647587D01*
X134511466Y-99653469D01*
G37*
X134511466Y-99653469D02*
X134537187Y-99669167D01*
X134563838Y-99690747D01*
X134563838Y-100338204D01*
X134537187Y-100359784D01*
X134505827Y-100377259D01*
X134470026Y-100378095D01*
X134438588Y-100357602D01*
X134434712Y-100352936D01*
X134429246Y-100343469D01*
X134425039Y-100329787D01*
X134421927Y-100309268D01*
X134419747Y-100279288D01*
X134418336Y-100237224D01*
X134417531Y-100180452D01*
X134417167Y-100106350D01*
X134417082Y-100012293D01*
X134417082Y-99690747D01*
X134443733Y-99669167D01*
X134467446Y-99654397D01*
X134490460Y-99647587D01*
X134511466Y-99653469D01*
G36*
X134945762Y-99656998D02*
G01*
X134963723Y-99675509D01*
X134984323Y-99706591D01*
X135009155Y-99752276D01*
X135039810Y-99814598D01*
X135077880Y-99895591D01*
X135092514Y-99926974D01*
X135122263Y-99990158D01*
X135148357Y-100044764D01*
X135169352Y-100087810D01*
X135183799Y-100116313D01*
X135190251Y-100127290D01*
X135191610Y-100126709D01*
X135201602Y-100112762D01*
X135218893Y-100083224D01*
X135241490Y-100041607D01*
X135267398Y-99991423D01*
X135283371Y-99959934D01*
X135312321Y-99904581D01*
X135334809Y-99865564D01*
X135353025Y-99840086D01*
X135369156Y-99825351D01*
X135385390Y-99818562D01*
X135403917Y-99816920D01*
X135414420Y-99817395D01*
X135430536Y-99821602D01*
X135445850Y-99832466D01*
X135462448Y-99852739D01*
X135482417Y-99885174D01*
X135507843Y-99932524D01*
X135540812Y-99997542D01*
X135550545Y-100016797D01*
X135575003Y-100063466D01*
X135595238Y-100099629D01*
X135609371Y-100122017D01*
X135615520Y-100127365D01*
X135616887Y-100124093D01*
X135626262Y-100103184D01*
X135643122Y-100066245D01*
X135666039Y-100016394D01*
X135693580Y-99956746D01*
X135724315Y-99890418D01*
X135751030Y-99833197D01*
X135780653Y-99771208D01*
X135803724Y-99725469D01*
X135821703Y-99693428D01*
X135836050Y-99672534D01*
X135848226Y-99660238D01*
X135859692Y-99653986D01*
X135869102Y-99651094D01*
X135894207Y-99650945D01*
X135921350Y-99666288D01*
X135922650Y-99667273D01*
X135944734Y-99689908D01*
X135955783Y-99712133D01*
X135955829Y-99712773D01*
X135951288Y-99730435D01*
X135938424Y-99765001D01*
X135918665Y-99813346D01*
X135893441Y-99872345D01*
X135864179Y-99938875D01*
X135832310Y-100009811D01*
X135799261Y-100082027D01*
X135766461Y-100152400D01*
X135735340Y-100217805D01*
X135707325Y-100275117D01*
X135683846Y-100321212D01*
X135666332Y-100352966D01*
X135656211Y-100367253D01*
X135621803Y-100380622D01*
X135580106Y-100374261D01*
X135574741Y-100369564D01*
X135558912Y-100347413D01*
X135536710Y-100310652D01*
X135510293Y-100262935D01*
X135481820Y-100207913D01*
X135402046Y-100048670D01*
X135328859Y-100195262D01*
X135319163Y-100214552D01*
X135292185Y-100266900D01*
X135268156Y-100311690D01*
X135249392Y-100344674D01*
X135238206Y-100361609D01*
X135237060Y-100362852D01*
X135208939Y-100378139D01*
X135173877Y-100379822D01*
X135142836Y-100367253D01*
X135140410Y-100364404D01*
X135128150Y-100343779D01*
X135108412Y-100306228D01*
X135082508Y-100254400D01*
X135051745Y-100190943D01*
X135017435Y-100118505D01*
X134980885Y-100039736D01*
X134960645Y-99995613D01*
X134923872Y-99914885D01*
X134895415Y-99851207D01*
X134874391Y-99802272D01*
X134859914Y-99765777D01*
X134851099Y-99739415D01*
X134847064Y-99720881D01*
X134846922Y-99707872D01*
X134849790Y-99698081D01*
X134864447Y-99677198D01*
X134891050Y-99656897D01*
X134891805Y-99656555D01*
X134911395Y-99649554D01*
X134928850Y-99649024D01*
X134945762Y-99656998D01*
G37*
X134945762Y-99656998D02*
X134963723Y-99675509D01*
X134984323Y-99706591D01*
X135009155Y-99752276D01*
X135039810Y-99814598D01*
X135077880Y-99895591D01*
X135092514Y-99926974D01*
X135122263Y-99990158D01*
X135148357Y-100044764D01*
X135169352Y-100087810D01*
X135183799Y-100116313D01*
X135190251Y-100127290D01*
X135191610Y-100126709D01*
X135201602Y-100112762D01*
X135218893Y-100083224D01*
X135241490Y-100041607D01*
X135267398Y-99991423D01*
X135283371Y-99959934D01*
X135312321Y-99904581D01*
X135334809Y-99865564D01*
X135353025Y-99840086D01*
X135369156Y-99825351D01*
X135385390Y-99818562D01*
X135403917Y-99816920D01*
X135414420Y-99817395D01*
X135430536Y-99821602D01*
X135445850Y-99832466D01*
X135462448Y-99852739D01*
X135482417Y-99885174D01*
X135507843Y-99932524D01*
X135540812Y-99997542D01*
X135550545Y-100016797D01*
X135575003Y-100063466D01*
X135595238Y-100099629D01*
X135609371Y-100122017D01*
X135615520Y-100127365D01*
X135616887Y-100124093D01*
X135626262Y-100103184D01*
X135643122Y-100066245D01*
X135666039Y-100016394D01*
X135693580Y-99956746D01*
X135724315Y-99890418D01*
X135751030Y-99833197D01*
X135780653Y-99771208D01*
X135803724Y-99725469D01*
X135821703Y-99693428D01*
X135836050Y-99672534D01*
X135848226Y-99660238D01*
X135859692Y-99653986D01*
X135869102Y-99651094D01*
X135894207Y-99650945D01*
X135921350Y-99666288D01*
X135922650Y-99667273D01*
X135944734Y-99689908D01*
X135955783Y-99712133D01*
X135955829Y-99712773D01*
X135951288Y-99730435D01*
X135938424Y-99765001D01*
X135918665Y-99813346D01*
X135893441Y-99872345D01*
X135864179Y-99938875D01*
X135832310Y-100009811D01*
X135799261Y-100082027D01*
X135766461Y-100152400D01*
X135735340Y-100217805D01*
X135707325Y-100275117D01*
X135683846Y-100321212D01*
X135666332Y-100352966D01*
X135656211Y-100367253D01*
X135621803Y-100380622D01*
X135580106Y-100374261D01*
X135574741Y-100369564D01*
X135558912Y-100347413D01*
X135536710Y-100310652D01*
X135510293Y-100262935D01*
X135481820Y-100207913D01*
X135402046Y-100048670D01*
X135328859Y-100195262D01*
X135319163Y-100214552D01*
X135292185Y-100266900D01*
X135268156Y-100311690D01*
X135249392Y-100344674D01*
X135238206Y-100361609D01*
X135237060Y-100362852D01*
X135208939Y-100378139D01*
X135173877Y-100379822D01*
X135142836Y-100367253D01*
X135140410Y-100364404D01*
X135128150Y-100343779D01*
X135108412Y-100306228D01*
X135082508Y-100254400D01*
X135051745Y-100190943D01*
X135017435Y-100118505D01*
X134980885Y-100039736D01*
X134960645Y-99995613D01*
X134923872Y-99914885D01*
X134895415Y-99851207D01*
X134874391Y-99802272D01*
X134859914Y-99765777D01*
X134851099Y-99739415D01*
X134847064Y-99720881D01*
X134846922Y-99707872D01*
X134849790Y-99698081D01*
X134864447Y-99677198D01*
X134891050Y-99656897D01*
X134891805Y-99656555D01*
X134911395Y-99649554D01*
X134928850Y-99649024D01*
X134945762Y-99656998D01*
G36*
X137839223Y-100291695D02*
G01*
X137836295Y-100314615D01*
X137832218Y-100330417D01*
X137826803Y-100341839D01*
X137819863Y-100351620D01*
X137796466Y-100381365D01*
X137630774Y-100380771D01*
X137595978Y-100380473D01*
X137497495Y-100377042D01*
X137416533Y-100369359D01*
X137349439Y-100356802D01*
X137292556Y-100338747D01*
X137242229Y-100314572D01*
X137238870Y-100312655D01*
X137181058Y-100275937D01*
X137138704Y-100238971D01*
X137105888Y-100195486D01*
X137076688Y-100139209D01*
X137072406Y-100129593D01*
X137049829Y-100066407D01*
X137044094Y-100020853D01*
X137193339Y-100020853D01*
X137198952Y-100045581D01*
X137204678Y-100061459D01*
X137237608Y-100121367D01*
X137284946Y-100167120D01*
X137348712Y-100200256D01*
X137430921Y-100222310D01*
X137433715Y-100222812D01*
X137480000Y-100228775D01*
X137536396Y-100233003D01*
X137591334Y-100234609D01*
X137685216Y-100234609D01*
X137685216Y-99794342D01*
X137597727Y-99794790D01*
X137530807Y-99797266D01*
X137438409Y-99808518D01*
X137359094Y-99828057D01*
X137297120Y-99855031D01*
X137266180Y-99875760D01*
X137238060Y-99905526D01*
X137214720Y-99947954D01*
X137207593Y-99963920D01*
X137195769Y-99996422D01*
X137193339Y-100020853D01*
X137044094Y-100020853D01*
X137042857Y-100011029D01*
X137051459Y-99956003D01*
X137075601Y-99893871D01*
X137076397Y-99892178D01*
X137116848Y-99822756D01*
X137167533Y-99766158D01*
X137230258Y-99721590D01*
X137306834Y-99688261D01*
X137399069Y-99665381D01*
X137508772Y-99652156D01*
X137637751Y-99647795D01*
X137641323Y-99647790D01*
X137701343Y-99647930D01*
X137743274Y-99648966D01*
X137771388Y-99651560D01*
X137789957Y-99656373D01*
X137803254Y-99664064D01*
X137815551Y-99675296D01*
X137843260Y-99703005D01*
X137843260Y-100012440D01*
X137843235Y-100074046D01*
X137843010Y-100152831D01*
X137842392Y-100213541D01*
X137841835Y-100234609D01*
X137841193Y-100258916D01*
X137839223Y-100291695D01*
G37*
X137839223Y-100291695D02*
X137836295Y-100314615D01*
X137832218Y-100330417D01*
X137826803Y-100341839D01*
X137819863Y-100351620D01*
X137796466Y-100381365D01*
X137630774Y-100380771D01*
X137595978Y-100380473D01*
X137497495Y-100377042D01*
X137416533Y-100369359D01*
X137349439Y-100356802D01*
X137292556Y-100338747D01*
X137242229Y-100314572D01*
X137238870Y-100312655D01*
X137181058Y-100275937D01*
X137138704Y-100238971D01*
X137105888Y-100195486D01*
X137076688Y-100139209D01*
X137072406Y-100129593D01*
X137049829Y-100066407D01*
X137044094Y-100020853D01*
X137193339Y-100020853D01*
X137198952Y-100045581D01*
X137204678Y-100061459D01*
X137237608Y-100121367D01*
X137284946Y-100167120D01*
X137348712Y-100200256D01*
X137430921Y-100222310D01*
X137433715Y-100222812D01*
X137480000Y-100228775D01*
X137536396Y-100233003D01*
X137591334Y-100234609D01*
X137685216Y-100234609D01*
X137685216Y-99794342D01*
X137597727Y-99794790D01*
X137530807Y-99797266D01*
X137438409Y-99808518D01*
X137359094Y-99828057D01*
X137297120Y-99855031D01*
X137266180Y-99875760D01*
X137238060Y-99905526D01*
X137214720Y-99947954D01*
X137207593Y-99963920D01*
X137195769Y-99996422D01*
X137193339Y-100020853D01*
X137044094Y-100020853D01*
X137042857Y-100011029D01*
X137051459Y-99956003D01*
X137075601Y-99893871D01*
X137076397Y-99892178D01*
X137116848Y-99822756D01*
X137167533Y-99766158D01*
X137230258Y-99721590D01*
X137306834Y-99688261D01*
X137399069Y-99665381D01*
X137508772Y-99652156D01*
X137637751Y-99647795D01*
X137641323Y-99647790D01*
X137701343Y-99647930D01*
X137743274Y-99648966D01*
X137771388Y-99651560D01*
X137789957Y-99656373D01*
X137803254Y-99664064D01*
X137815551Y-99675296D01*
X137843260Y-99703005D01*
X137843260Y-100012440D01*
X137843235Y-100074046D01*
X137843010Y-100152831D01*
X137842392Y-100213541D01*
X137841835Y-100234609D01*
X137841193Y-100258916D01*
X137839223Y-100291695D01*
G36*
X138835863Y-99677331D02*
G01*
X138840812Y-99684015D01*
X138846656Y-99694586D01*
X138851117Y-99708673D01*
X138854381Y-99728998D01*
X138856634Y-99758285D01*
X138858062Y-99799257D01*
X138858852Y-99854637D01*
X138859189Y-99927148D01*
X138859260Y-100019514D01*
X138859231Y-100085431D01*
X138858999Y-100163748D01*
X138858379Y-100224016D01*
X138857186Y-100268913D01*
X138855239Y-100301122D01*
X138852354Y-100323320D01*
X138848348Y-100338189D01*
X138843039Y-100348409D01*
X138836243Y-100356658D01*
X138831728Y-100361315D01*
X138823498Y-100367802D01*
X138812138Y-100372714D01*
X138794870Y-100376269D01*
X138768915Y-100378687D01*
X138731496Y-100380187D01*
X138679833Y-100380987D01*
X138611149Y-100381307D01*
X138522666Y-100381365D01*
X138502991Y-100381358D01*
X138415966Y-100381092D01*
X138348314Y-100380326D01*
X138297359Y-100378912D01*
X138260427Y-100376700D01*
X138234843Y-100373542D01*
X138217931Y-100369289D01*
X138207017Y-100363791D01*
X138196524Y-100353805D01*
X138183263Y-100322688D01*
X138184446Y-100286800D01*
X138200610Y-100255253D01*
X138202799Y-100252977D01*
X138211487Y-100246709D01*
X138224829Y-100242043D01*
X138245812Y-100238747D01*
X138277423Y-100236588D01*
X138322650Y-100235334D01*
X138384480Y-100234751D01*
X138465899Y-100234609D01*
X138712505Y-100234609D01*
X138712505Y-100076565D01*
X138550066Y-100076565D01*
X138514398Y-100076484D01*
X138458628Y-100075687D01*
X138419490Y-100073682D01*
X138393036Y-100070041D01*
X138375319Y-100064332D01*
X138362389Y-100056127D01*
X138358746Y-100052943D01*
X138340338Y-100021968D01*
X138339704Y-99985632D01*
X138357243Y-99952013D01*
X138357305Y-99951944D01*
X138366976Y-99943318D01*
X138380269Y-99937262D01*
X138400977Y-99933331D01*
X138432888Y-99931076D01*
X138479794Y-99930051D01*
X138545484Y-99929809D01*
X138713631Y-99929809D01*
X138710246Y-99864898D01*
X138706860Y-99799987D01*
X138464783Y-99796934D01*
X138439767Y-99796606D01*
X138358147Y-99795126D01*
X138295828Y-99792742D01*
X138250214Y-99788747D01*
X138218712Y-99782433D01*
X138198727Y-99773094D01*
X138187664Y-99760023D01*
X138182929Y-99742512D01*
X138181927Y-99719855D01*
X138181933Y-99717490D01*
X138183087Y-99697459D01*
X138187884Y-99681666D01*
X138198692Y-99669610D01*
X138217877Y-99660787D01*
X138247805Y-99654695D01*
X138290843Y-99650831D01*
X138349359Y-99648694D01*
X138425717Y-99647780D01*
X138522286Y-99647587D01*
X138812466Y-99647587D01*
X138835863Y-99677331D01*
G37*
X138835863Y-99677331D02*
X138840812Y-99684015D01*
X138846656Y-99694586D01*
X138851117Y-99708673D01*
X138854381Y-99728998D01*
X138856634Y-99758285D01*
X138858062Y-99799257D01*
X138858852Y-99854637D01*
X138859189Y-99927148D01*
X138859260Y-100019514D01*
X138859231Y-100085431D01*
X138858999Y-100163748D01*
X138858379Y-100224016D01*
X138857186Y-100268913D01*
X138855239Y-100301122D01*
X138852354Y-100323320D01*
X138848348Y-100338189D01*
X138843039Y-100348409D01*
X138836243Y-100356658D01*
X138831728Y-100361315D01*
X138823498Y-100367802D01*
X138812138Y-100372714D01*
X138794870Y-100376269D01*
X138768915Y-100378687D01*
X138731496Y-100380187D01*
X138679833Y-100380987D01*
X138611149Y-100381307D01*
X138522666Y-100381365D01*
X138502991Y-100381358D01*
X138415966Y-100381092D01*
X138348314Y-100380326D01*
X138297359Y-100378912D01*
X138260427Y-100376700D01*
X138234843Y-100373542D01*
X138217931Y-100369289D01*
X138207017Y-100363791D01*
X138196524Y-100353805D01*
X138183263Y-100322688D01*
X138184446Y-100286800D01*
X138200610Y-100255253D01*
X138202799Y-100252977D01*
X138211487Y-100246709D01*
X138224829Y-100242043D01*
X138245812Y-100238747D01*
X138277423Y-100236588D01*
X138322650Y-100235334D01*
X138384480Y-100234751D01*
X138465899Y-100234609D01*
X138712505Y-100234609D01*
X138712505Y-100076565D01*
X138550066Y-100076565D01*
X138514398Y-100076484D01*
X138458628Y-100075687D01*
X138419490Y-100073682D01*
X138393036Y-100070041D01*
X138375319Y-100064332D01*
X138362389Y-100056127D01*
X138358746Y-100052943D01*
X138340338Y-100021968D01*
X138339704Y-99985632D01*
X138357243Y-99952013D01*
X138357305Y-99951944D01*
X138366976Y-99943318D01*
X138380269Y-99937262D01*
X138400977Y-99933331D01*
X138432888Y-99931076D01*
X138479794Y-99930051D01*
X138545484Y-99929809D01*
X138713631Y-99929809D01*
X138710246Y-99864898D01*
X138706860Y-99799987D01*
X138464783Y-99796934D01*
X138439767Y-99796606D01*
X138358147Y-99795126D01*
X138295828Y-99792742D01*
X138250214Y-99788747D01*
X138218712Y-99782433D01*
X138198727Y-99773094D01*
X138187664Y-99760023D01*
X138182929Y-99742512D01*
X138181927Y-99719855D01*
X138181933Y-99717490D01*
X138183087Y-99697459D01*
X138187884Y-99681666D01*
X138198692Y-99669610D01*
X138217877Y-99660787D01*
X138247805Y-99654695D01*
X138290843Y-99650831D01*
X138349359Y-99648694D01*
X138425717Y-99647780D01*
X138522286Y-99647587D01*
X138812466Y-99647587D01*
X138835863Y-99677331D01*
G36*
X139987953Y-99646412D02*
G01*
X139999361Y-99652549D01*
X140009910Y-99663211D01*
X140021196Y-99677331D01*
X140025649Y-99683292D01*
X140031648Y-99693788D01*
X140036227Y-99707613D01*
X140039579Y-99727518D01*
X140041893Y-99756252D01*
X140043361Y-99796565D01*
X140044173Y-99851207D01*
X140044520Y-99922927D01*
X140044594Y-100014476D01*
X140044571Y-100073006D01*
X140044352Y-100152093D01*
X140043743Y-100213036D01*
X140042552Y-100258582D01*
X140040589Y-100291483D01*
X140037663Y-100314488D01*
X140033583Y-100330346D01*
X140028157Y-100341806D01*
X140021196Y-100351620D01*
X139990768Y-100376013D01*
X139955825Y-100378892D01*
X139918844Y-100359802D01*
X139914660Y-100356327D01*
X139906484Y-100347799D01*
X139900424Y-100336248D01*
X139896041Y-100318416D01*
X139892899Y-100291044D01*
X139890562Y-100250874D01*
X139888591Y-100194648D01*
X139886549Y-100119109D01*
X139880905Y-99899978D01*
X139615616Y-100140619D01*
X139541782Y-100207395D01*
X139476602Y-100265511D01*
X139424408Y-100310469D01*
X139383333Y-100343391D01*
X139351515Y-100365399D01*
X139327086Y-100377614D01*
X139308184Y-100381159D01*
X139292943Y-100377156D01*
X139279499Y-100366727D01*
X139265987Y-100350994D01*
X139259742Y-100342511D01*
X139254110Y-100331933D01*
X139249899Y-100317775D01*
X139246947Y-100297323D01*
X139245092Y-100267862D01*
X139244173Y-100226681D01*
X139244028Y-100171064D01*
X139244495Y-100098299D01*
X139245412Y-100005671D01*
X139248727Y-99690719D01*
X139275378Y-99669153D01*
X139301443Y-99652961D01*
X139334301Y-99650190D01*
X139368832Y-99669143D01*
X139373144Y-99672728D01*
X139381276Y-99681257D01*
X139387305Y-99692849D01*
X139391666Y-99710755D01*
X139394794Y-99738226D01*
X139397123Y-99778514D01*
X139399089Y-99834871D01*
X139401127Y-99910549D01*
X139406771Y-100130398D01*
X139587394Y-99966604D01*
X139674132Y-99887971D01*
X139749903Y-99819578D01*
X139812040Y-99764228D01*
X139862138Y-99720858D01*
X139901795Y-99688401D01*
X139932608Y-99665793D01*
X139956174Y-99651968D01*
X139974090Y-99645863D01*
X139987953Y-99646412D01*
G37*
X139987953Y-99646412D02*
X139999361Y-99652549D01*
X140009910Y-99663211D01*
X140021196Y-99677331D01*
X140025649Y-99683292D01*
X140031648Y-99693788D01*
X140036227Y-99707613D01*
X140039579Y-99727518D01*
X140041893Y-99756252D01*
X140043361Y-99796565D01*
X140044173Y-99851207D01*
X140044520Y-99922927D01*
X140044594Y-100014476D01*
X140044571Y-100073006D01*
X140044352Y-100152093D01*
X140043743Y-100213036D01*
X140042552Y-100258582D01*
X140040589Y-100291483D01*
X140037663Y-100314488D01*
X140033583Y-100330346D01*
X140028157Y-100341806D01*
X140021196Y-100351620D01*
X139990768Y-100376013D01*
X139955825Y-100378892D01*
X139918844Y-100359802D01*
X139914660Y-100356327D01*
X139906484Y-100347799D01*
X139900424Y-100336248D01*
X139896041Y-100318416D01*
X139892899Y-100291044D01*
X139890562Y-100250874D01*
X139888591Y-100194648D01*
X139886549Y-100119109D01*
X139880905Y-99899978D01*
X139615616Y-100140619D01*
X139541782Y-100207395D01*
X139476602Y-100265511D01*
X139424408Y-100310469D01*
X139383333Y-100343391D01*
X139351515Y-100365399D01*
X139327086Y-100377614D01*
X139308184Y-100381159D01*
X139292943Y-100377156D01*
X139279499Y-100366727D01*
X139265987Y-100350994D01*
X139259742Y-100342511D01*
X139254110Y-100331933D01*
X139249899Y-100317775D01*
X139246947Y-100297323D01*
X139245092Y-100267862D01*
X139244173Y-100226681D01*
X139244028Y-100171064D01*
X139244495Y-100098299D01*
X139245412Y-100005671D01*
X139248727Y-99690719D01*
X139275378Y-99669153D01*
X139301443Y-99652961D01*
X139334301Y-99650190D01*
X139368832Y-99669143D01*
X139373144Y-99672728D01*
X139381276Y-99681257D01*
X139387305Y-99692849D01*
X139391666Y-99710755D01*
X139394794Y-99738226D01*
X139397123Y-99778514D01*
X139399089Y-99834871D01*
X139401127Y-99910549D01*
X139406771Y-100130398D01*
X139587394Y-99966604D01*
X139674132Y-99887971D01*
X139749903Y-99819578D01*
X139812040Y-99764228D01*
X139862138Y-99720858D01*
X139901795Y-99688401D01*
X139932608Y-99665793D01*
X139956174Y-99651968D01*
X139974090Y-99645863D01*
X139987953Y-99646412D01*
G36*
X140785210Y-99652699D02*
G01*
X140891217Y-99669014D01*
X140985029Y-99697065D01*
X141063825Y-99735972D01*
X141124779Y-99784854D01*
X141150849Y-99817715D01*
X141180357Y-99866914D01*
X141205628Y-99920772D01*
X141223278Y-99971939D01*
X141229918Y-100013064D01*
X141228358Y-100032779D01*
X141215417Y-100084112D01*
X141192254Y-100140638D01*
X141162362Y-100194555D01*
X141129233Y-100238059D01*
X141119037Y-100248407D01*
X141051952Y-100300182D01*
X140971826Y-100340074D01*
X140885616Y-100364476D01*
X140830652Y-100372588D01*
X140737199Y-100379193D01*
X140647418Y-100377106D01*
X140564929Y-100366860D01*
X140493346Y-100348990D01*
X140436288Y-100324028D01*
X140397371Y-100292508D01*
X140395996Y-100290532D01*
X140388908Y-100265306D01*
X140384669Y-100218055D01*
X140383260Y-100148591D01*
X140384120Y-100086358D01*
X140388840Y-100038976D01*
X140400530Y-100006873D01*
X140422299Y-99987320D01*
X140457258Y-99977590D01*
X140508516Y-99974953D01*
X140579183Y-99976681D01*
X140627803Y-99979693D01*
X140677999Y-99987886D01*
X140710493Y-100001939D01*
X140727952Y-100023174D01*
X140733043Y-100052914D01*
X140732937Y-100057456D01*
X140724235Y-100092250D01*
X140700225Y-100115667D01*
X140658960Y-100128867D01*
X140598491Y-100133009D01*
X140530016Y-100133009D01*
X140530016Y-100171361D01*
X140530066Y-100180496D01*
X140532287Y-100197747D01*
X140541554Y-100208041D01*
X140562935Y-100214979D01*
X140601496Y-100222161D01*
X140606970Y-100223095D01*
X140703920Y-100232998D01*
X140793912Y-100230079D01*
X140874820Y-100215349D01*
X140944519Y-100189819D01*
X141000884Y-100154498D01*
X141041789Y-100110399D01*
X141065111Y-100058532D01*
X141068723Y-99999908D01*
X141063205Y-99971014D01*
X141036521Y-99915124D01*
X140990333Y-99869465D01*
X140925351Y-99834628D01*
X140842289Y-99811210D01*
X140817615Y-99806761D01*
X140728286Y-99796262D01*
X140648479Y-99797491D01*
X140570386Y-99810426D01*
X140535243Y-99817216D01*
X140489805Y-99818233D01*
X140458490Y-99805702D01*
X140438337Y-99778915D01*
X140431953Y-99750668D01*
X140441439Y-99719444D01*
X140450768Y-99706019D01*
X140485003Y-99682487D01*
X140537625Y-99664615D01*
X140606141Y-99653119D01*
X140688060Y-99648712D01*
X140785210Y-99652699D01*
G37*
X140785210Y-99652699D02*
X140891217Y-99669014D01*
X140985029Y-99697065D01*
X141063825Y-99735972D01*
X141124779Y-99784854D01*
X141150849Y-99817715D01*
X141180357Y-99866914D01*
X141205628Y-99920772D01*
X141223278Y-99971939D01*
X141229918Y-100013064D01*
X141228358Y-100032779D01*
X141215417Y-100084112D01*
X141192254Y-100140638D01*
X141162362Y-100194555D01*
X141129233Y-100238059D01*
X141119037Y-100248407D01*
X141051952Y-100300182D01*
X140971826Y-100340074D01*
X140885616Y-100364476D01*
X140830652Y-100372588D01*
X140737199Y-100379193D01*
X140647418Y-100377106D01*
X140564929Y-100366860D01*
X140493346Y-100348990D01*
X140436288Y-100324028D01*
X140397371Y-100292508D01*
X140395996Y-100290532D01*
X140388908Y-100265306D01*
X140384669Y-100218055D01*
X140383260Y-100148591D01*
X140384120Y-100086358D01*
X140388840Y-100038976D01*
X140400530Y-100006873D01*
X140422299Y-99987320D01*
X140457258Y-99977590D01*
X140508516Y-99974953D01*
X140579183Y-99976681D01*
X140627803Y-99979693D01*
X140677999Y-99987886D01*
X140710493Y-100001939D01*
X140727952Y-100023174D01*
X140733043Y-100052914D01*
X140732937Y-100057456D01*
X140724235Y-100092250D01*
X140700225Y-100115667D01*
X140658960Y-100128867D01*
X140598491Y-100133009D01*
X140530016Y-100133009D01*
X140530016Y-100171361D01*
X140530066Y-100180496D01*
X140532287Y-100197747D01*
X140541554Y-100208041D01*
X140562935Y-100214979D01*
X140601496Y-100222161D01*
X140606970Y-100223095D01*
X140703920Y-100232998D01*
X140793912Y-100230079D01*
X140874820Y-100215349D01*
X140944519Y-100189819D01*
X141000884Y-100154498D01*
X141041789Y-100110399D01*
X141065111Y-100058532D01*
X141068723Y-99999908D01*
X141063205Y-99971014D01*
X141036521Y-99915124D01*
X140990333Y-99869465D01*
X140925351Y-99834628D01*
X140842289Y-99811210D01*
X140817615Y-99806761D01*
X140728286Y-99796262D01*
X140648479Y-99797491D01*
X140570386Y-99810426D01*
X140535243Y-99817216D01*
X140489805Y-99818233D01*
X140458490Y-99805702D01*
X140438337Y-99778915D01*
X140431953Y-99750668D01*
X140441439Y-99719444D01*
X140450768Y-99706019D01*
X140485003Y-99682487D01*
X140537625Y-99664615D01*
X140606141Y-99653119D01*
X140688060Y-99648712D01*
X140785210Y-99652699D01*
G36*
X141642197Y-99651983D02*
G01*
X141676351Y-99675296D01*
X141704060Y-99703005D01*
X141704060Y-100016057D01*
X141704019Y-100100087D01*
X141703761Y-100174309D01*
X141703090Y-100231061D01*
X141701812Y-100273032D01*
X141699733Y-100302909D01*
X141696659Y-100323381D01*
X141692394Y-100337134D01*
X141686744Y-100346857D01*
X141679515Y-100355237D01*
X141648051Y-100376701D01*
X141612886Y-100378467D01*
X141579882Y-100358787D01*
X141574576Y-100352918D01*
X141569126Y-100343834D01*
X141564960Y-100330493D01*
X141561906Y-100310277D01*
X141559792Y-100280569D01*
X141558446Y-100238752D01*
X141557698Y-100182209D01*
X141557374Y-100108322D01*
X141557305Y-100014476D01*
X141557344Y-99938814D01*
X141557599Y-99860905D01*
X141558243Y-99800895D01*
X141559447Y-99756168D01*
X141561384Y-99724105D01*
X141564224Y-99702091D01*
X141568139Y-99687507D01*
X141573302Y-99677738D01*
X141579882Y-99670165D01*
X141609066Y-99651143D01*
X141642197Y-99651983D01*
G37*
X141642197Y-99651983D02*
X141676351Y-99675296D01*
X141704060Y-99703005D01*
X141704060Y-100016057D01*
X141704019Y-100100087D01*
X141703761Y-100174309D01*
X141703090Y-100231061D01*
X141701812Y-100273032D01*
X141699733Y-100302909D01*
X141696659Y-100323381D01*
X141692394Y-100337134D01*
X141686744Y-100346857D01*
X141679515Y-100355237D01*
X141648051Y-100376701D01*
X141612886Y-100378467D01*
X141579882Y-100358787D01*
X141574576Y-100352918D01*
X141569126Y-100343834D01*
X141564960Y-100330493D01*
X141561906Y-100310277D01*
X141559792Y-100280569D01*
X141558446Y-100238752D01*
X141557698Y-100182209D01*
X141557374Y-100108322D01*
X141557305Y-100014476D01*
X141557344Y-99938814D01*
X141557599Y-99860905D01*
X141558243Y-99800895D01*
X141559447Y-99756168D01*
X141561384Y-99724105D01*
X141564224Y-99702091D01*
X141568139Y-99687507D01*
X141573302Y-99677738D01*
X141579882Y-99670165D01*
X141609066Y-99651143D01*
X141642197Y-99651983D01*
G36*
X142496913Y-99648456D02*
G01*
X142563160Y-99653886D01*
X142618460Y-99663484D01*
X142669343Y-99678345D01*
X142740655Y-99711478D01*
X142791812Y-99754160D01*
X142822635Y-99806225D01*
X142832949Y-99867503D01*
X142832012Y-99898752D01*
X142826220Y-99923549D01*
X142811413Y-99945219D01*
X142783440Y-99972569D01*
X142775462Y-99979898D01*
X142751752Y-100000801D01*
X142729358Y-100017771D01*
X142705325Y-100031725D01*
X142676697Y-100043576D01*
X142640520Y-100054240D01*
X142593840Y-100064631D01*
X142533701Y-100075666D01*
X142457150Y-100088258D01*
X142361231Y-100103324D01*
X142342868Y-100106358D01*
X142280538Y-100119978D01*
X142235320Y-100135712D01*
X142209036Y-100152783D01*
X142203507Y-100170417D01*
X142206128Y-100174688D01*
X142224060Y-100189753D01*
X142252186Y-100206387D01*
X142264986Y-100212377D01*
X142286284Y-100219570D01*
X142312670Y-100224347D01*
X142348514Y-100227166D01*
X142398188Y-100228484D01*
X142466060Y-100228757D01*
X142483845Y-100228684D01*
X142551466Y-100227573D01*
X142616405Y-100225348D01*
X142672030Y-100222282D01*
X142711711Y-100218647D01*
X142747222Y-100214579D01*
X142776475Y-100213796D01*
X142795375Y-100218396D01*
X142810489Y-100229071D01*
X142814145Y-100232664D01*
X142830487Y-100264438D01*
X142829167Y-100300092D01*
X142810210Y-100330710D01*
X142789840Y-100342316D01*
X142753856Y-100355011D01*
X142711432Y-100365061D01*
X142707982Y-100365660D01*
X142665312Y-100370876D01*
X142607926Y-100375250D01*
X142542909Y-100378338D01*
X142477349Y-100379697D01*
X142461117Y-100379738D01*
X142362804Y-100377261D01*
X142282752Y-100369255D01*
X142217573Y-100354723D01*
X142163877Y-100332669D01*
X142118276Y-100302096D01*
X142077383Y-100262006D01*
X142057262Y-100235779D01*
X142045636Y-100206232D01*
X142042727Y-100166515D01*
X142042868Y-100154546D01*
X142046741Y-100121865D01*
X142059125Y-100095339D01*
X142084290Y-100064491D01*
X142105502Y-100042351D01*
X142131898Y-100019805D01*
X142161615Y-100001437D01*
X142197845Y-99986181D01*
X142243777Y-99972969D01*
X142302604Y-99960734D01*
X142377516Y-99948409D01*
X142471705Y-99934926D01*
X142517017Y-99927916D01*
X142584971Y-99913357D01*
X142634107Y-99896857D01*
X142663674Y-99878959D01*
X142672924Y-99860205D01*
X142661108Y-99841135D01*
X142627476Y-99822291D01*
X142624430Y-99821077D01*
X142578071Y-99808999D01*
X142515421Y-99800799D01*
X142441987Y-99796639D01*
X142363277Y-99796681D01*
X142284799Y-99801089D01*
X142212060Y-99810025D01*
X142208133Y-99810674D01*
X142159317Y-99818381D01*
X142127065Y-99821993D01*
X142106068Y-99821396D01*
X142091014Y-99816474D01*
X142076594Y-99807116D01*
X142075424Y-99806245D01*
X142050907Y-99775871D01*
X142046114Y-99740370D01*
X142061920Y-99705789D01*
X142066466Y-99701333D01*
X142096080Y-99686193D01*
X142143062Y-99673070D01*
X142203366Y-99662270D01*
X142272948Y-99654101D01*
X142347763Y-99648871D01*
X142423766Y-99646887D01*
X142496913Y-99648456D01*
G37*
X142496913Y-99648456D02*
X142563160Y-99653886D01*
X142618460Y-99663484D01*
X142669343Y-99678345D01*
X142740655Y-99711478D01*
X142791812Y-99754160D01*
X142822635Y-99806225D01*
X142832949Y-99867503D01*
X142832012Y-99898752D01*
X142826220Y-99923549D01*
X142811413Y-99945219D01*
X142783440Y-99972569D01*
X142775462Y-99979898D01*
X142751752Y-100000801D01*
X142729358Y-100017771D01*
X142705325Y-100031725D01*
X142676697Y-100043576D01*
X142640520Y-100054240D01*
X142593840Y-100064631D01*
X142533701Y-100075666D01*
X142457150Y-100088258D01*
X142361231Y-100103324D01*
X142342868Y-100106358D01*
X142280538Y-100119978D01*
X142235320Y-100135712D01*
X142209036Y-100152783D01*
X142203507Y-100170417D01*
X142206128Y-100174688D01*
X142224060Y-100189753D01*
X142252186Y-100206387D01*
X142264986Y-100212377D01*
X142286284Y-100219570D01*
X142312670Y-100224347D01*
X142348514Y-100227166D01*
X142398188Y-100228484D01*
X142466060Y-100228757D01*
X142483845Y-100228684D01*
X142551466Y-100227573D01*
X142616405Y-100225348D01*
X142672030Y-100222282D01*
X142711711Y-100218647D01*
X142747222Y-100214579D01*
X142776475Y-100213796D01*
X142795375Y-100218396D01*
X142810489Y-100229071D01*
X142814145Y-100232664D01*
X142830487Y-100264438D01*
X142829167Y-100300092D01*
X142810210Y-100330710D01*
X142789840Y-100342316D01*
X142753856Y-100355011D01*
X142711432Y-100365061D01*
X142707982Y-100365660D01*
X142665312Y-100370876D01*
X142607926Y-100375250D01*
X142542909Y-100378338D01*
X142477349Y-100379697D01*
X142461117Y-100379738D01*
X142362804Y-100377261D01*
X142282752Y-100369255D01*
X142217573Y-100354723D01*
X142163877Y-100332669D01*
X142118276Y-100302096D01*
X142077383Y-100262006D01*
X142057262Y-100235779D01*
X142045636Y-100206232D01*
X142042727Y-100166515D01*
X142042868Y-100154546D01*
X142046741Y-100121865D01*
X142059125Y-100095339D01*
X142084290Y-100064491D01*
X142105502Y-100042351D01*
X142131898Y-100019805D01*
X142161615Y-100001437D01*
X142197845Y-99986181D01*
X142243777Y-99972969D01*
X142302604Y-99960734D01*
X142377516Y-99948409D01*
X142471705Y-99934926D01*
X142517017Y-99927916D01*
X142584971Y-99913357D01*
X142634107Y-99896857D01*
X142663674Y-99878959D01*
X142672924Y-99860205D01*
X142661108Y-99841135D01*
X142627476Y-99822291D01*
X142624430Y-99821077D01*
X142578071Y-99808999D01*
X142515421Y-99800799D01*
X142441987Y-99796639D01*
X142363277Y-99796681D01*
X142284799Y-99801089D01*
X142212060Y-99810025D01*
X142208133Y-99810674D01*
X142159317Y-99818381D01*
X142127065Y-99821993D01*
X142106068Y-99821396D01*
X142091014Y-99816474D01*
X142076594Y-99807116D01*
X142075424Y-99806245D01*
X142050907Y-99775871D01*
X142046114Y-99740370D01*
X142061920Y-99705789D01*
X142066466Y-99701333D01*
X142096080Y-99686193D01*
X142143062Y-99673070D01*
X142203366Y-99662270D01*
X142272948Y-99654101D01*
X142347763Y-99648871D01*
X142423766Y-99646887D01*
X142496913Y-99648456D01*
G36*
X143512794Y-99647603D02*
G01*
X143589891Y-99647795D01*
X143648837Y-99648380D01*
X143692424Y-99649571D01*
X143723443Y-99651584D01*
X143744685Y-99654632D01*
X143758942Y-99658929D01*
X143769005Y-99664692D01*
X143777666Y-99672132D01*
X143779451Y-99673813D01*
X143786695Y-99681352D01*
X143792337Y-99690370D01*
X143796577Y-99703504D01*
X143799616Y-99723392D01*
X143801654Y-99752671D01*
X143802890Y-99793978D01*
X143803525Y-99849951D01*
X143803760Y-99923227D01*
X143803794Y-100016443D01*
X143803757Y-100089233D01*
X143803508Y-100167409D01*
X143802872Y-100227623D01*
X143801675Y-100272502D01*
X143799744Y-100304672D01*
X143796906Y-100326759D01*
X143792987Y-100341390D01*
X143787815Y-100351190D01*
X143781216Y-100358787D01*
X143777882Y-100361964D01*
X143769360Y-100368074D01*
X143757358Y-100372749D01*
X143739147Y-100376179D01*
X143712000Y-100378556D01*
X143673189Y-100380072D01*
X143619984Y-100380918D01*
X143549658Y-100381285D01*
X143459482Y-100381365D01*
X143417374Y-100381353D01*
X143336227Y-100381171D01*
X143273735Y-100380618D01*
X143227169Y-100379502D01*
X143193801Y-100377633D01*
X143170904Y-100374818D01*
X143155748Y-100370866D01*
X143145606Y-100365586D01*
X143137749Y-100358787D01*
X143123023Y-100337187D01*
X143115171Y-100307987D01*
X143120670Y-100284080D01*
X143137749Y-100257187D01*
X143142728Y-100252579D01*
X143152503Y-100246292D01*
X143166619Y-100241666D01*
X143188114Y-100238450D01*
X143220028Y-100236390D01*
X143265402Y-100235232D01*
X143327273Y-100234722D01*
X143408682Y-100234609D01*
X143657038Y-100234609D01*
X143657038Y-100076565D01*
X143495861Y-100076565D01*
X143460043Y-100076419D01*
X143394419Y-100074696D01*
X143347178Y-100070261D01*
X143315443Y-100062157D01*
X143296337Y-100049426D01*
X143286983Y-100031112D01*
X143284505Y-100006258D01*
X143285302Y-99986002D01*
X143290554Y-99964176D01*
X143303348Y-99948824D01*
X143326688Y-99938829D01*
X143363577Y-99933073D01*
X143417019Y-99930439D01*
X143490018Y-99929809D01*
X143658165Y-99929809D01*
X143654779Y-99864898D01*
X143651394Y-99799987D01*
X143403677Y-99796938D01*
X143341086Y-99796059D01*
X143272625Y-99794615D01*
X143221721Y-99792684D01*
X143185468Y-99790034D01*
X143160961Y-99786430D01*
X143145295Y-99781641D01*
X143135566Y-99775433D01*
X143129551Y-99769030D01*
X143116542Y-99737348D01*
X143120103Y-99701662D01*
X143139878Y-99670604D01*
X143143129Y-99667681D01*
X143152109Y-99661330D01*
X143164213Y-99656477D01*
X143182219Y-99652923D01*
X143208907Y-99650466D01*
X143247057Y-99648905D01*
X143299446Y-99648038D01*
X143368854Y-99647666D01*
X143458061Y-99647587D01*
X143512794Y-99647603D01*
G37*
X143512794Y-99647603D02*
X143589891Y-99647795D01*
X143648837Y-99648380D01*
X143692424Y-99649571D01*
X143723443Y-99651584D01*
X143744685Y-99654632D01*
X143758942Y-99658929D01*
X143769005Y-99664692D01*
X143777666Y-99672132D01*
X143779451Y-99673813D01*
X143786695Y-99681352D01*
X143792337Y-99690370D01*
X143796577Y-99703504D01*
X143799616Y-99723392D01*
X143801654Y-99752671D01*
X143802890Y-99793978D01*
X143803525Y-99849951D01*
X143803760Y-99923227D01*
X143803794Y-100016443D01*
X143803757Y-100089233D01*
X143803508Y-100167409D01*
X143802872Y-100227623D01*
X143801675Y-100272502D01*
X143799744Y-100304672D01*
X143796906Y-100326759D01*
X143792987Y-100341390D01*
X143787815Y-100351190D01*
X143781216Y-100358787D01*
X143777882Y-100361964D01*
X143769360Y-100368074D01*
X143757358Y-100372749D01*
X143739147Y-100376179D01*
X143712000Y-100378556D01*
X143673189Y-100380072D01*
X143619984Y-100380918D01*
X143549658Y-100381285D01*
X143459482Y-100381365D01*
X143417374Y-100381353D01*
X143336227Y-100381171D01*
X143273735Y-100380618D01*
X143227169Y-100379502D01*
X143193801Y-100377633D01*
X143170904Y-100374818D01*
X143155748Y-100370866D01*
X143145606Y-100365586D01*
X143137749Y-100358787D01*
X143123023Y-100337187D01*
X143115171Y-100307987D01*
X143120670Y-100284080D01*
X143137749Y-100257187D01*
X143142728Y-100252579D01*
X143152503Y-100246292D01*
X143166619Y-100241666D01*
X143188114Y-100238450D01*
X143220028Y-100236390D01*
X143265402Y-100235232D01*
X143327273Y-100234722D01*
X143408682Y-100234609D01*
X143657038Y-100234609D01*
X143657038Y-100076565D01*
X143495861Y-100076565D01*
X143460043Y-100076419D01*
X143394419Y-100074696D01*
X143347178Y-100070261D01*
X143315443Y-100062157D01*
X143296337Y-100049426D01*
X143286983Y-100031112D01*
X143284505Y-100006258D01*
X143285302Y-99986002D01*
X143290554Y-99964176D01*
X143303348Y-99948824D01*
X143326688Y-99938829D01*
X143363577Y-99933073D01*
X143417019Y-99930439D01*
X143490018Y-99929809D01*
X143658165Y-99929809D01*
X143654779Y-99864898D01*
X143651394Y-99799987D01*
X143403677Y-99796938D01*
X143341086Y-99796059D01*
X143272625Y-99794615D01*
X143221721Y-99792684D01*
X143185468Y-99790034D01*
X143160961Y-99786430D01*
X143145295Y-99781641D01*
X143135566Y-99775433D01*
X143129551Y-99769030D01*
X143116542Y-99737348D01*
X143120103Y-99701662D01*
X143139878Y-99670604D01*
X143143129Y-99667681D01*
X143152109Y-99661330D01*
X143164213Y-99656477D01*
X143182219Y-99652923D01*
X143208907Y-99650466D01*
X143247057Y-99648905D01*
X143299446Y-99648038D01*
X143368854Y-99647666D01*
X143458061Y-99647587D01*
X143512794Y-99647603D01*
G36*
X144932930Y-99913561D02*
G01*
X144932682Y-100014476D01*
X144932643Y-100090137D01*
X144932388Y-100168046D01*
X144931744Y-100228056D01*
X144930540Y-100272784D01*
X144928603Y-100304846D01*
X144925763Y-100326860D01*
X144921848Y-100341444D01*
X144916686Y-100351214D01*
X144910105Y-100358787D01*
X144903137Y-100365021D01*
X144890139Y-100372321D01*
X144870991Y-100377074D01*
X144841588Y-100379812D01*
X144797822Y-100381065D01*
X144735588Y-100381365D01*
X144686642Y-100380989D01*
X144579782Y-100376561D01*
X144490554Y-100366473D01*
X144415756Y-100349885D01*
X144352185Y-100325955D01*
X144296639Y-100293841D01*
X144245914Y-100252702D01*
X144239926Y-100246850D01*
X144203059Y-100198341D01*
X144171959Y-100137533D01*
X144150477Y-100073289D01*
X144145196Y-100034546D01*
X144292413Y-100034546D01*
X144310695Y-100085481D01*
X144340365Y-100131398D01*
X144387062Y-100173807D01*
X144448452Y-100203610D01*
X144527598Y-100222746D01*
X144529088Y-100222984D01*
X144578059Y-100228776D01*
X144636753Y-100232916D01*
X144692794Y-100234524D01*
X144785927Y-100234609D01*
X144785927Y-99794342D01*
X144709727Y-99794328D01*
X144706699Y-99794337D01*
X144655579Y-99796302D01*
X144595476Y-99801027D01*
X144538768Y-99807555D01*
X144488810Y-99816851D01*
X144414058Y-99843120D01*
X144356549Y-99882419D01*
X144315048Y-99935453D01*
X144293831Y-99986720D01*
X144292413Y-100034546D01*
X144145196Y-100034546D01*
X144142460Y-100014476D01*
X144143739Y-99993259D01*
X144156051Y-99935843D01*
X144178580Y-99875933D01*
X144207810Y-99821883D01*
X144240227Y-99782052D01*
X144259768Y-99765030D01*
X144314480Y-99725842D01*
X144374783Y-99695713D01*
X144443979Y-99673752D01*
X144525371Y-99659070D01*
X144622260Y-99650779D01*
X144737949Y-99647987D01*
X144777431Y-99647586D01*
X144823142Y-99647173D01*
X144858943Y-99648977D01*
X144886034Y-99655259D01*
X144905616Y-99668279D01*
X144918890Y-99690298D01*
X144927058Y-99723575D01*
X144931320Y-99770371D01*
X144931917Y-99794342D01*
X144932877Y-99832947D01*
X144932930Y-99913561D01*
G37*
X144932930Y-99913561D02*
X144932682Y-100014476D01*
X144932643Y-100090137D01*
X144932388Y-100168046D01*
X144931744Y-100228056D01*
X144930540Y-100272784D01*
X144928603Y-100304846D01*
X144925763Y-100326860D01*
X144921848Y-100341444D01*
X144916686Y-100351214D01*
X144910105Y-100358787D01*
X144903137Y-100365021D01*
X144890139Y-100372321D01*
X144870991Y-100377074D01*
X144841588Y-100379812D01*
X144797822Y-100381065D01*
X144735588Y-100381365D01*
X144686642Y-100380989D01*
X144579782Y-100376561D01*
X144490554Y-100366473D01*
X144415756Y-100349885D01*
X144352185Y-100325955D01*
X144296639Y-100293841D01*
X144245914Y-100252702D01*
X144239926Y-100246850D01*
X144203059Y-100198341D01*
X144171959Y-100137533D01*
X144150477Y-100073289D01*
X144145196Y-100034546D01*
X144292413Y-100034546D01*
X144310695Y-100085481D01*
X144340365Y-100131398D01*
X144387062Y-100173807D01*
X144448452Y-100203610D01*
X144527598Y-100222746D01*
X144529088Y-100222984D01*
X144578059Y-100228776D01*
X144636753Y-100232916D01*
X144692794Y-100234524D01*
X144785927Y-100234609D01*
X144785927Y-99794342D01*
X144709727Y-99794328D01*
X144706699Y-99794337D01*
X144655579Y-99796302D01*
X144595476Y-99801027D01*
X144538768Y-99807555D01*
X144488810Y-99816851D01*
X144414058Y-99843120D01*
X144356549Y-99882419D01*
X144315048Y-99935453D01*
X144293831Y-99986720D01*
X144292413Y-100034546D01*
X144145196Y-100034546D01*
X144142460Y-100014476D01*
X144143739Y-99993259D01*
X144156051Y-99935843D01*
X144178580Y-99875933D01*
X144207810Y-99821883D01*
X144240227Y-99782052D01*
X144259768Y-99765030D01*
X144314480Y-99725842D01*
X144374783Y-99695713D01*
X144443979Y-99673752D01*
X144525371Y-99659070D01*
X144622260Y-99650779D01*
X144737949Y-99647987D01*
X144777431Y-99647586D01*
X144823142Y-99647173D01*
X144858943Y-99648977D01*
X144886034Y-99655259D01*
X144905616Y-99668279D01*
X144918890Y-99690298D01*
X144927058Y-99723575D01*
X144931320Y-99770371D01*
X144931917Y-99794342D01*
X144932877Y-99832947D01*
X144932930Y-99913561D01*
G36*
X141110622Y-94411370D02*
G01*
X141193373Y-94438573D01*
X141268466Y-94484004D01*
X141340358Y-94549822D01*
X141378906Y-94594087D01*
X141418316Y-94652481D01*
X141443506Y-94713106D01*
X141456921Y-94782385D01*
X141461008Y-94866742D01*
X141460729Y-94912827D01*
X141458520Y-94953970D01*
X141452954Y-94986102D01*
X141442646Y-95016642D01*
X141426208Y-95053009D01*
X141412260Y-95080248D01*
X141353725Y-95165949D01*
X141281679Y-95235137D01*
X141198007Y-95286261D01*
X141104591Y-95317770D01*
X141071494Y-95324745D01*
X141031020Y-95331614D01*
X140998059Y-95333439D01*
X140963758Y-95330467D01*
X140919260Y-95322946D01*
X140867994Y-95310522D01*
X140777494Y-95272632D01*
X140698405Y-95218356D01*
X140632588Y-95150290D01*
X140581900Y-95071031D01*
X140548200Y-94983174D01*
X140533346Y-94889315D01*
X140539196Y-94792050D01*
X140565459Y-94695740D01*
X140610478Y-94607014D01*
X140671433Y-94531939D01*
X140746244Y-94472161D01*
X140832828Y-94429329D01*
X140929103Y-94405091D01*
X141032988Y-94401096D01*
X141110622Y-94411370D01*
G37*
X141110622Y-94411370D02*
X141193373Y-94438573D01*
X141268466Y-94484004D01*
X141340358Y-94549822D01*
X141378906Y-94594087D01*
X141418316Y-94652481D01*
X141443506Y-94713106D01*
X141456921Y-94782385D01*
X141461008Y-94866742D01*
X141460729Y-94912827D01*
X141458520Y-94953970D01*
X141452954Y-94986102D01*
X141442646Y-95016642D01*
X141426208Y-95053009D01*
X141412260Y-95080248D01*
X141353725Y-95165949D01*
X141281679Y-95235137D01*
X141198007Y-95286261D01*
X141104591Y-95317770D01*
X141071494Y-95324745D01*
X141031020Y-95331614D01*
X140998059Y-95333439D01*
X140963758Y-95330467D01*
X140919260Y-95322946D01*
X140867994Y-95310522D01*
X140777494Y-95272632D01*
X140698405Y-95218356D01*
X140632588Y-95150290D01*
X140581900Y-95071031D01*
X140548200Y-94983174D01*
X140533346Y-94889315D01*
X140539196Y-94792050D01*
X140565459Y-94695740D01*
X140610478Y-94607014D01*
X140671433Y-94531939D01*
X140746244Y-94472161D01*
X140832828Y-94429329D01*
X140929103Y-94405091D01*
X141032988Y-94401096D01*
X141110622Y-94411370D01*
G36*
X134841328Y-97698678D02*
G01*
X134832749Y-97850114D01*
X134813893Y-97986803D01*
X134783897Y-98112796D01*
X134741896Y-98232145D01*
X134687029Y-98348901D01*
X134620227Y-98459699D01*
X134529423Y-98573259D01*
X134425768Y-98668731D01*
X134309947Y-98745593D01*
X134182646Y-98803317D01*
X134044549Y-98841378D01*
X134006853Y-98847186D01*
X133927812Y-98852916D01*
X133839689Y-98853103D01*
X133750296Y-98848059D01*
X133667444Y-98838098D01*
X133598947Y-98823532D01*
X133568095Y-98813884D01*
X133490790Y-98783643D01*
X133413739Y-98746137D01*
X133344260Y-98705134D01*
X133289675Y-98664399D01*
X133266976Y-98645025D01*
X133244261Y-98627182D01*
X133232839Y-98620298D01*
X133231597Y-98621944D01*
X133228788Y-98639725D01*
X133226836Y-98672890D01*
X133226105Y-98716253D01*
X133226105Y-98812209D01*
X132367956Y-98812209D01*
X132402221Y-98751494D01*
X132407415Y-98742388D01*
X132415775Y-98727769D01*
X132423348Y-98713693D01*
X132430172Y-98699060D01*
X132436287Y-98682769D01*
X132441733Y-98663718D01*
X132446547Y-98640806D01*
X132450768Y-98612933D01*
X132454437Y-98578998D01*
X132457591Y-98537899D01*
X132460271Y-98488535D01*
X132462514Y-98429806D01*
X132464359Y-98360610D01*
X132465847Y-98279846D01*
X132467015Y-98186414D01*
X132467904Y-98079212D01*
X132468551Y-97957140D01*
X132468996Y-97819096D01*
X132469278Y-97663979D01*
X132469435Y-97490688D01*
X132469508Y-97298123D01*
X132469534Y-97085182D01*
X132469545Y-96949050D01*
X133271260Y-96949050D01*
X133271260Y-98099241D01*
X133341816Y-98145609D01*
X133382477Y-98169311D01*
X133436606Y-98195159D01*
X133485749Y-98213349D01*
X133549225Y-98229071D01*
X133645391Y-98240061D01*
X133729960Y-98231885D01*
X133803279Y-98204325D01*
X133865697Y-98157162D01*
X133917562Y-98090178D01*
X133959220Y-98003153D01*
X133991022Y-97895870D01*
X133993605Y-97883529D01*
X134002060Y-97822292D01*
X134007723Y-97745212D01*
X134010636Y-97657522D01*
X134010843Y-97564454D01*
X134008390Y-97471240D01*
X134003321Y-97383114D01*
X133995679Y-97305308D01*
X133985508Y-97243053D01*
X133984227Y-97237186D01*
X133955186Y-97126641D01*
X133920670Y-97036095D01*
X133879516Y-96963473D01*
X133830559Y-96906701D01*
X133772634Y-96863704D01*
X133740680Y-96848135D01*
X133667844Y-96829242D01*
X133586503Y-96825985D01*
X133501379Y-96837909D01*
X133417193Y-96864560D01*
X133338668Y-96905482D01*
X133271260Y-96949050D01*
X132469545Y-96949050D01*
X132469553Y-96850765D01*
X132469749Y-95165898D01*
X133375077Y-95165898D01*
X133350645Y-95202587D01*
X133344378Y-95212167D01*
X133318268Y-95258501D01*
X133300529Y-95305622D01*
X133288968Y-95360771D01*
X133281391Y-95431187D01*
X133280899Y-95438170D01*
X133279122Y-95476161D01*
X133277504Y-95530096D01*
X133276059Y-95597223D01*
X133274800Y-95674791D01*
X133273740Y-95760048D01*
X133272889Y-95850244D01*
X133272263Y-95942627D01*
X133271872Y-96034445D01*
X133271730Y-96122947D01*
X133271850Y-96205382D01*
X133272243Y-96278999D01*
X133272922Y-96341046D01*
X133273901Y-96388771D01*
X133275192Y-96419424D01*
X133276807Y-96430253D01*
X133285017Y-96425853D01*
X133306707Y-96410882D01*
X133336074Y-96388968D01*
X133384939Y-96354756D01*
X133473185Y-96308234D01*
X133571976Y-96274566D01*
X133684570Y-96252751D01*
X133814224Y-96241785D01*
X133906730Y-96240739D01*
X134028071Y-96250534D01*
X134138159Y-96274694D01*
X134241449Y-96314305D01*
X134342398Y-96370452D01*
X134387563Y-96401403D01*
X134492971Y-96492635D01*
X134584598Y-96601626D01*
X134662392Y-96728246D01*
X134726301Y-96872365D01*
X134776274Y-97033852D01*
X134812258Y-97212579D01*
X134834203Y-97408415D01*
X134839960Y-97564454D01*
X134842054Y-97621231D01*
X134841328Y-97698678D01*
G37*
X134841328Y-97698678D02*
X134832749Y-97850114D01*
X134813893Y-97986803D01*
X134783897Y-98112796D01*
X134741896Y-98232145D01*
X134687029Y-98348901D01*
X134620227Y-98459699D01*
X134529423Y-98573259D01*
X134425768Y-98668731D01*
X134309947Y-98745593D01*
X134182646Y-98803317D01*
X134044549Y-98841378D01*
X134006853Y-98847186D01*
X133927812Y-98852916D01*
X133839689Y-98853103D01*
X133750296Y-98848059D01*
X133667444Y-98838098D01*
X133598947Y-98823532D01*
X133568095Y-98813884D01*
X133490790Y-98783643D01*
X133413739Y-98746137D01*
X133344260Y-98705134D01*
X133289675Y-98664399D01*
X133266976Y-98645025D01*
X133244261Y-98627182D01*
X133232839Y-98620298D01*
X133231597Y-98621944D01*
X133228788Y-98639725D01*
X133226836Y-98672890D01*
X133226105Y-98716253D01*
X133226105Y-98812209D01*
X132367956Y-98812209D01*
X132402221Y-98751494D01*
X132407415Y-98742388D01*
X132415775Y-98727769D01*
X132423348Y-98713693D01*
X132430172Y-98699060D01*
X132436287Y-98682769D01*
X132441733Y-98663718D01*
X132446547Y-98640806D01*
X132450768Y-98612933D01*
X132454437Y-98578998D01*
X132457591Y-98537899D01*
X132460271Y-98488535D01*
X132462514Y-98429806D01*
X132464359Y-98360610D01*
X132465847Y-98279846D01*
X132467015Y-98186414D01*
X132467904Y-98079212D01*
X132468551Y-97957140D01*
X132468996Y-97819096D01*
X132469278Y-97663979D01*
X132469435Y-97490688D01*
X132469508Y-97298123D01*
X132469534Y-97085182D01*
X132469545Y-96949050D01*
X133271260Y-96949050D01*
X133271260Y-98099241D01*
X133341816Y-98145609D01*
X133382477Y-98169311D01*
X133436606Y-98195159D01*
X133485749Y-98213349D01*
X133549225Y-98229071D01*
X133645391Y-98240061D01*
X133729960Y-98231885D01*
X133803279Y-98204325D01*
X133865697Y-98157162D01*
X133917562Y-98090178D01*
X133959220Y-98003153D01*
X133991022Y-97895870D01*
X133993605Y-97883529D01*
X134002060Y-97822292D01*
X134007723Y-97745212D01*
X134010636Y-97657522D01*
X134010843Y-97564454D01*
X134008390Y-97471240D01*
X134003321Y-97383114D01*
X133995679Y-97305308D01*
X133985508Y-97243053D01*
X133984227Y-97237186D01*
X133955186Y-97126641D01*
X133920670Y-97036095D01*
X133879516Y-96963473D01*
X133830559Y-96906701D01*
X133772634Y-96863704D01*
X133740680Y-96848135D01*
X133667844Y-96829242D01*
X133586503Y-96825985D01*
X133501379Y-96837909D01*
X133417193Y-96864560D01*
X133338668Y-96905482D01*
X133271260Y-96949050D01*
X132469545Y-96949050D01*
X132469553Y-96850765D01*
X132469749Y-95165898D01*
X133375077Y-95165898D01*
X133350645Y-95202587D01*
X133344378Y-95212167D01*
X133318268Y-95258501D01*
X133300529Y-95305622D01*
X133288968Y-95360771D01*
X133281391Y-95431187D01*
X133280899Y-95438170D01*
X133279122Y-95476161D01*
X133277504Y-95530096D01*
X133276059Y-95597223D01*
X133274800Y-95674791D01*
X133273740Y-95760048D01*
X133272889Y-95850244D01*
X133272263Y-95942627D01*
X133271872Y-96034445D01*
X133271730Y-96122947D01*
X133271850Y-96205382D01*
X133272243Y-96278999D01*
X133272922Y-96341046D01*
X133273901Y-96388771D01*
X133275192Y-96419424D01*
X133276807Y-96430253D01*
X133285017Y-96425853D01*
X133306707Y-96410882D01*
X133336074Y-96388968D01*
X133384939Y-96354756D01*
X133473185Y-96308234D01*
X133571976Y-96274566D01*
X133684570Y-96252751D01*
X133814224Y-96241785D01*
X133906730Y-96240739D01*
X134028071Y-96250534D01*
X134138159Y-96274694D01*
X134241449Y-96314305D01*
X134342398Y-96370452D01*
X134387563Y-96401403D01*
X134492971Y-96492635D01*
X134584598Y-96601626D01*
X134662392Y-96728246D01*
X134726301Y-96872365D01*
X134776274Y-97033852D01*
X134812258Y-97212579D01*
X134834203Y-97408415D01*
X134839960Y-97564454D01*
X134842054Y-97621231D01*
X134841328Y-97698678D01*
G36*
X137383321Y-98055883D02*
G01*
X137379692Y-98130722D01*
X137372082Y-98192921D01*
X137359748Y-98249504D01*
X137315373Y-98375596D01*
X137252460Y-98490199D01*
X137172298Y-98591088D01*
X137075800Y-98677444D01*
X136963882Y-98748452D01*
X136837457Y-98803296D01*
X136697438Y-98841158D01*
X136661209Y-98846871D01*
X136582215Y-98852833D01*
X136493901Y-98853166D01*
X136404135Y-98848179D01*
X136320782Y-98838186D01*
X136251711Y-98823498D01*
X136165247Y-98793269D01*
X136055346Y-98738577D01*
X135958016Y-98671063D01*
X135895927Y-98620076D01*
X135892665Y-98716142D01*
X135889403Y-98812209D01*
X135466510Y-98812209D01*
X135455603Y-98812206D01*
X135361116Y-98811900D01*
X135274391Y-98811136D01*
X135197897Y-98809971D01*
X135134103Y-98808462D01*
X135085478Y-98806667D01*
X135054493Y-98804641D01*
X135043616Y-98802442D01*
X135043638Y-98801983D01*
X135050674Y-98786430D01*
X135066494Y-98763591D01*
X135070794Y-98758158D01*
X135081837Y-98744126D01*
X135091371Y-98730706D01*
X135099521Y-98716242D01*
X135106412Y-98699076D01*
X135112171Y-98677554D01*
X135116922Y-98650018D01*
X135120791Y-98614812D01*
X135123904Y-98570280D01*
X135126385Y-98514766D01*
X135128360Y-98446613D01*
X135129954Y-98364165D01*
X135131294Y-98265766D01*
X135132504Y-98149759D01*
X135133709Y-98014488D01*
X135134654Y-97903106D01*
X135935438Y-97903106D01*
X135935438Y-98098982D01*
X135980108Y-98155493D01*
X135992845Y-98170732D01*
X136039664Y-98213364D01*
X136100315Y-98249192D01*
X136110957Y-98254370D01*
X136149736Y-98271265D01*
X136184752Y-98281429D01*
X136224782Y-98286845D01*
X136278601Y-98289498D01*
X136296708Y-98289903D01*
X136372071Y-98287060D01*
X136432803Y-98275140D01*
X136484512Y-98252557D01*
X136532806Y-98217731D01*
X136537863Y-98213318D01*
X136586332Y-98157680D01*
X136614519Y-98093853D01*
X136623812Y-98018802D01*
X136616580Y-97947213D01*
X136591856Y-97884165D01*
X136547309Y-97826278D01*
X136492379Y-97779328D01*
X136419954Y-97739481D01*
X136333400Y-97711783D01*
X136230730Y-97695616D01*
X136109954Y-97690362D01*
X136101067Y-97690377D01*
X136045720Y-97691175D01*
X135998796Y-97693008D01*
X135965013Y-97695631D01*
X135949088Y-97698794D01*
X135945003Y-97705261D01*
X135940632Y-97727395D01*
X135937664Y-97766508D01*
X135935974Y-97824459D01*
X135935438Y-97903106D01*
X135134654Y-97903106D01*
X135135035Y-97858298D01*
X135136288Y-97715532D01*
X135137711Y-97570462D01*
X135139236Y-97444547D01*
X135140993Y-97335956D01*
X135143111Y-97242854D01*
X135145720Y-97163411D01*
X135148950Y-97095793D01*
X135152929Y-97038169D01*
X135157788Y-96988705D01*
X135163657Y-96945570D01*
X135170664Y-96906930D01*
X135178940Y-96870954D01*
X135188614Y-96835809D01*
X135199816Y-96799662D01*
X135212676Y-96760681D01*
X135228150Y-96717611D01*
X135271054Y-96625391D01*
X135324795Y-96545619D01*
X135393636Y-96471485D01*
X135471245Y-96407925D01*
X135575821Y-96346245D01*
X135695304Y-96298722D01*
X135830568Y-96265087D01*
X135982486Y-96245072D01*
X136151932Y-96238409D01*
X136209950Y-96238807D01*
X136275458Y-96240855D01*
X136336753Y-96245224D01*
X136398157Y-96252555D01*
X136463992Y-96263489D01*
X136538580Y-96278667D01*
X136626244Y-96298729D01*
X136731305Y-96324317D01*
X136759866Y-96331340D01*
X136835114Y-96349296D01*
X136905448Y-96365340D01*
X136966627Y-96378548D01*
X137014414Y-96387994D01*
X137044571Y-96392751D01*
X137072843Y-96396430D01*
X137099120Y-96401707D01*
X137109119Y-96406462D01*
X137106012Y-96415301D01*
X137095254Y-96442592D01*
X137077924Y-96485426D01*
X137055186Y-96540945D01*
X137028207Y-96606292D01*
X136998150Y-96678609D01*
X136991553Y-96694399D01*
X136952967Y-96785004D01*
X136921828Y-96854737D01*
X136897977Y-96903925D01*
X136881258Y-96932894D01*
X136871514Y-96941972D01*
X136863826Y-96939925D01*
X136837475Y-96930280D01*
X136799042Y-96914710D01*
X136753882Y-96895335D01*
X136659353Y-96857334D01*
X136522540Y-96816300D01*
X136381349Y-96791132D01*
X136343374Y-96787131D01*
X136240119Y-96784967D01*
X136153012Y-96798142D01*
X136081189Y-96827276D01*
X136023791Y-96872986D01*
X135979956Y-96935892D01*
X135948822Y-97016612D01*
X135929530Y-97115765D01*
X135922110Y-97174744D01*
X136083996Y-97167965D01*
X136210555Y-97166333D01*
X136362011Y-97172714D01*
X136510456Y-97187297D01*
X136646638Y-97209402D01*
X136711305Y-97224341D01*
X136843550Y-97267261D01*
X136965822Y-97323860D01*
X137075745Y-97392537D01*
X137170943Y-97471690D01*
X137249040Y-97559716D01*
X137307659Y-97655013D01*
X137331655Y-97707384D01*
X137357292Y-97778110D01*
X137373538Y-97849332D01*
X137381882Y-97928232D01*
X137383750Y-98018802D01*
X137383815Y-98021987D01*
X137383321Y-98055883D01*
G37*
X137383321Y-98055883D02*
X137379692Y-98130722D01*
X137372082Y-98192921D01*
X137359748Y-98249504D01*
X137315373Y-98375596D01*
X137252460Y-98490199D01*
X137172298Y-98591088D01*
X137075800Y-98677444D01*
X136963882Y-98748452D01*
X136837457Y-98803296D01*
X136697438Y-98841158D01*
X136661209Y-98846871D01*
X136582215Y-98852833D01*
X136493901Y-98853166D01*
X136404135Y-98848179D01*
X136320782Y-98838186D01*
X136251711Y-98823498D01*
X136165247Y-98793269D01*
X136055346Y-98738577D01*
X135958016Y-98671063D01*
X135895927Y-98620076D01*
X135892665Y-98716142D01*
X135889403Y-98812209D01*
X135466510Y-98812209D01*
X135455603Y-98812206D01*
X135361116Y-98811900D01*
X135274391Y-98811136D01*
X135197897Y-98809971D01*
X135134103Y-98808462D01*
X135085478Y-98806667D01*
X135054493Y-98804641D01*
X135043616Y-98802442D01*
X135043638Y-98801983D01*
X135050674Y-98786430D01*
X135066494Y-98763591D01*
X135070794Y-98758158D01*
X135081837Y-98744126D01*
X135091371Y-98730706D01*
X135099521Y-98716242D01*
X135106412Y-98699076D01*
X135112171Y-98677554D01*
X135116922Y-98650018D01*
X135120791Y-98614812D01*
X135123904Y-98570280D01*
X135126385Y-98514766D01*
X135128360Y-98446613D01*
X135129954Y-98364165D01*
X135131294Y-98265766D01*
X135132504Y-98149759D01*
X135133709Y-98014488D01*
X135134654Y-97903106D01*
X135935438Y-97903106D01*
X135935438Y-98098982D01*
X135980108Y-98155493D01*
X135992845Y-98170732D01*
X136039664Y-98213364D01*
X136100315Y-98249192D01*
X136110957Y-98254370D01*
X136149736Y-98271265D01*
X136184752Y-98281429D01*
X136224782Y-98286845D01*
X136278601Y-98289498D01*
X136296708Y-98289903D01*
X136372071Y-98287060D01*
X136432803Y-98275140D01*
X136484512Y-98252557D01*
X136532806Y-98217731D01*
X136537863Y-98213318D01*
X136586332Y-98157680D01*
X136614519Y-98093853D01*
X136623812Y-98018802D01*
X136616580Y-97947213D01*
X136591856Y-97884165D01*
X136547309Y-97826278D01*
X136492379Y-97779328D01*
X136419954Y-97739481D01*
X136333400Y-97711783D01*
X136230730Y-97695616D01*
X136109954Y-97690362D01*
X136101067Y-97690377D01*
X136045720Y-97691175D01*
X135998796Y-97693008D01*
X135965013Y-97695631D01*
X135949088Y-97698794D01*
X135945003Y-97705261D01*
X135940632Y-97727395D01*
X135937664Y-97766508D01*
X135935974Y-97824459D01*
X135935438Y-97903106D01*
X135134654Y-97903106D01*
X135135035Y-97858298D01*
X135136288Y-97715532D01*
X135137711Y-97570462D01*
X135139236Y-97444547D01*
X135140993Y-97335956D01*
X135143111Y-97242854D01*
X135145720Y-97163411D01*
X135148950Y-97095793D01*
X135152929Y-97038169D01*
X135157788Y-96988705D01*
X135163657Y-96945570D01*
X135170664Y-96906930D01*
X135178940Y-96870954D01*
X135188614Y-96835809D01*
X135199816Y-96799662D01*
X135212676Y-96760681D01*
X135228150Y-96717611D01*
X135271054Y-96625391D01*
X135324795Y-96545619D01*
X135393636Y-96471485D01*
X135471245Y-96407925D01*
X135575821Y-96346245D01*
X135695304Y-96298722D01*
X135830568Y-96265087D01*
X135982486Y-96245072D01*
X136151932Y-96238409D01*
X136209950Y-96238807D01*
X136275458Y-96240855D01*
X136336753Y-96245224D01*
X136398157Y-96252555D01*
X136463992Y-96263489D01*
X136538580Y-96278667D01*
X136626244Y-96298729D01*
X136731305Y-96324317D01*
X136759866Y-96331340D01*
X136835114Y-96349296D01*
X136905448Y-96365340D01*
X136966627Y-96378548D01*
X137014414Y-96387994D01*
X137044571Y-96392751D01*
X137072843Y-96396430D01*
X137099120Y-96401707D01*
X137109119Y-96406462D01*
X137106012Y-96415301D01*
X137095254Y-96442592D01*
X137077924Y-96485426D01*
X137055186Y-96540945D01*
X137028207Y-96606292D01*
X136998150Y-96678609D01*
X136991553Y-96694399D01*
X136952967Y-96785004D01*
X136921828Y-96854737D01*
X136897977Y-96903925D01*
X136881258Y-96932894D01*
X136871514Y-96941972D01*
X136863826Y-96939925D01*
X136837475Y-96930280D01*
X136799042Y-96914710D01*
X136753882Y-96895335D01*
X136659353Y-96857334D01*
X136522540Y-96816300D01*
X136381349Y-96791132D01*
X136343374Y-96787131D01*
X136240119Y-96784967D01*
X136153012Y-96798142D01*
X136081189Y-96827276D01*
X136023791Y-96872986D01*
X135979956Y-96935892D01*
X135948822Y-97016612D01*
X135929530Y-97115765D01*
X135922110Y-97174744D01*
X136083996Y-97167965D01*
X136210555Y-97166333D01*
X136362011Y-97172714D01*
X136510456Y-97187297D01*
X136646638Y-97209402D01*
X136711305Y-97224341D01*
X136843550Y-97267261D01*
X136965822Y-97323860D01*
X137075745Y-97392537D01*
X137170943Y-97471690D01*
X137249040Y-97559716D01*
X137307659Y-97655013D01*
X137331655Y-97707384D01*
X137357292Y-97778110D01*
X137373538Y-97849332D01*
X137381882Y-97928232D01*
X137383750Y-98018802D01*
X137383815Y-98021987D01*
X137383321Y-98055883D01*
G36*
X138644771Y-95340553D02*
G01*
X138740328Y-95358043D01*
X138904618Y-95403084D01*
X139058649Y-95466176D01*
X139204569Y-95548435D01*
X139344526Y-95650977D01*
X139480668Y-95774919D01*
X139524533Y-95820181D01*
X139636818Y-95952385D01*
X139730032Y-96090352D01*
X139806779Y-96238270D01*
X139869663Y-96400323D01*
X139873480Y-96411911D01*
X139923567Y-96597912D01*
X139956959Y-96794041D01*
X139973644Y-96996088D01*
X139973611Y-97199845D01*
X139956851Y-97401101D01*
X139923352Y-97595648D01*
X139873104Y-97779276D01*
X139829250Y-97896573D01*
X139751408Y-98059471D01*
X139657888Y-98213386D01*
X139550882Y-98355191D01*
X139432579Y-98481759D01*
X139305171Y-98589961D01*
X139227666Y-98642640D01*
X139100785Y-98712270D01*
X138963303Y-98770988D01*
X138821776Y-98816107D01*
X138682762Y-98844942D01*
X138668657Y-98846626D01*
X138625213Y-98849954D01*
X138567783Y-98852795D01*
X138502182Y-98854893D01*
X138434227Y-98855988D01*
X138307438Y-98853660D01*
X138159733Y-98840656D01*
X138021839Y-98815653D01*
X137888074Y-98777838D01*
X137864622Y-98769409D01*
X137816672Y-98749928D01*
X137760200Y-98724993D01*
X137698439Y-98696242D01*
X137634623Y-98665310D01*
X137571986Y-98633835D01*
X137513763Y-98603454D01*
X137463187Y-98575803D01*
X137423493Y-98552519D01*
X137397914Y-98535238D01*
X137389685Y-98525599D01*
X137391136Y-98522504D01*
X137402310Y-98502599D01*
X137423194Y-98466940D01*
X137452325Y-98417979D01*
X137488241Y-98358166D01*
X137529480Y-98289953D01*
X137574577Y-98215791D01*
X137755845Y-97918528D01*
X137802375Y-97963059D01*
X137893783Y-98041385D01*
X138007394Y-98115959D01*
X138125182Y-98169994D01*
X138245619Y-98202810D01*
X138367177Y-98213731D01*
X138408645Y-98212388D01*
X138526140Y-98194132D01*
X138636149Y-98155137D01*
X138737490Y-98096190D01*
X138828981Y-98018077D01*
X138909440Y-97921584D01*
X138977687Y-97807498D01*
X138993968Y-97773244D01*
X139040042Y-97649760D01*
X139075166Y-97511438D01*
X139099257Y-97362081D01*
X139112233Y-97205493D01*
X139114009Y-97045476D01*
X139104503Y-96885834D01*
X139083632Y-96730370D01*
X139051312Y-96582886D01*
X139007459Y-96447187D01*
X138970042Y-96360596D01*
X138905245Y-96247208D01*
X138829832Y-96153590D01*
X138743478Y-96079479D01*
X138645855Y-96024614D01*
X138536637Y-95988732D01*
X138415499Y-95971571D01*
X138346098Y-95970400D01*
X138223228Y-95984661D01*
X138107724Y-96019761D01*
X138001013Y-96075202D01*
X137904524Y-96150484D01*
X137888780Y-96164960D01*
X137858210Y-96191482D01*
X137835869Y-96208658D01*
X137825751Y-96213307D01*
X137823766Y-96211117D01*
X137809301Y-96192241D01*
X137785460Y-96158917D01*
X137754089Y-96113900D01*
X137717034Y-96059945D01*
X137676143Y-95999805D01*
X137633262Y-95936238D01*
X137590238Y-95871996D01*
X137548917Y-95809835D01*
X137511146Y-95752511D01*
X137478772Y-95702777D01*
X137453642Y-95663388D01*
X137437602Y-95637100D01*
X137432499Y-95626667D01*
X137437110Y-95622461D01*
X137456327Y-95617453D01*
X137465898Y-95614906D01*
X137493869Y-95603769D01*
X137535508Y-95585322D01*
X137587055Y-95561245D01*
X137644750Y-95533219D01*
X137656017Y-95527674D01*
X137833747Y-95448409D01*
X138003550Y-95388905D01*
X138167490Y-95348765D01*
X138327631Y-95327591D01*
X138486037Y-95324986D01*
X138644771Y-95340553D01*
G37*
X138644771Y-95340553D02*
X138740328Y-95358043D01*
X138904618Y-95403084D01*
X139058649Y-95466176D01*
X139204569Y-95548435D01*
X139344526Y-95650977D01*
X139480668Y-95774919D01*
X139524533Y-95820181D01*
X139636818Y-95952385D01*
X139730032Y-96090352D01*
X139806779Y-96238270D01*
X139869663Y-96400323D01*
X139873480Y-96411911D01*
X139923567Y-96597912D01*
X139956959Y-96794041D01*
X139973644Y-96996088D01*
X139973611Y-97199845D01*
X139956851Y-97401101D01*
X139923352Y-97595648D01*
X139873104Y-97779276D01*
X139829250Y-97896573D01*
X139751408Y-98059471D01*
X139657888Y-98213386D01*
X139550882Y-98355191D01*
X139432579Y-98481759D01*
X139305171Y-98589961D01*
X139227666Y-98642640D01*
X139100785Y-98712270D01*
X138963303Y-98770988D01*
X138821776Y-98816107D01*
X138682762Y-98844942D01*
X138668657Y-98846626D01*
X138625213Y-98849954D01*
X138567783Y-98852795D01*
X138502182Y-98854893D01*
X138434227Y-98855988D01*
X138307438Y-98853660D01*
X138159733Y-98840656D01*
X138021839Y-98815653D01*
X137888074Y-98777838D01*
X137864622Y-98769409D01*
X137816672Y-98749928D01*
X137760200Y-98724993D01*
X137698439Y-98696242D01*
X137634623Y-98665310D01*
X137571986Y-98633835D01*
X137513763Y-98603454D01*
X137463187Y-98575803D01*
X137423493Y-98552519D01*
X137397914Y-98535238D01*
X137389685Y-98525599D01*
X137391136Y-98522504D01*
X137402310Y-98502599D01*
X137423194Y-98466940D01*
X137452325Y-98417979D01*
X137488241Y-98358166D01*
X137529480Y-98289953D01*
X137574577Y-98215791D01*
X137755845Y-97918528D01*
X137802375Y-97963059D01*
X137893783Y-98041385D01*
X138007394Y-98115959D01*
X138125182Y-98169994D01*
X138245619Y-98202810D01*
X138367177Y-98213731D01*
X138408645Y-98212388D01*
X138526140Y-98194132D01*
X138636149Y-98155137D01*
X138737490Y-98096190D01*
X138828981Y-98018077D01*
X138909440Y-97921584D01*
X138977687Y-97807498D01*
X138993968Y-97773244D01*
X139040042Y-97649760D01*
X139075166Y-97511438D01*
X139099257Y-97362081D01*
X139112233Y-97205493D01*
X139114009Y-97045476D01*
X139104503Y-96885834D01*
X139083632Y-96730370D01*
X139051312Y-96582886D01*
X139007459Y-96447187D01*
X138970042Y-96360596D01*
X138905245Y-96247208D01*
X138829832Y-96153590D01*
X138743478Y-96079479D01*
X138645855Y-96024614D01*
X138536637Y-95988732D01*
X138415499Y-95971571D01*
X138346098Y-95970400D01*
X138223228Y-95984661D01*
X138107724Y-96019761D01*
X138001013Y-96075202D01*
X137904524Y-96150484D01*
X137888780Y-96164960D01*
X137858210Y-96191482D01*
X137835869Y-96208658D01*
X137825751Y-96213307D01*
X137823766Y-96211117D01*
X137809301Y-96192241D01*
X137785460Y-96158917D01*
X137754089Y-96113900D01*
X137717034Y-96059945D01*
X137676143Y-95999805D01*
X137633262Y-95936238D01*
X137590238Y-95871996D01*
X137548917Y-95809835D01*
X137511146Y-95752511D01*
X137478772Y-95702777D01*
X137453642Y-95663388D01*
X137437602Y-95637100D01*
X137432499Y-95626667D01*
X137437110Y-95622461D01*
X137456327Y-95617453D01*
X137465898Y-95614906D01*
X137493869Y-95603769D01*
X137535508Y-95585322D01*
X137587055Y-95561245D01*
X137644750Y-95533219D01*
X137656017Y-95527674D01*
X137833747Y-95448409D01*
X138003550Y-95388905D01*
X138167490Y-95348765D01*
X138327631Y-95327591D01*
X138486037Y-95324986D01*
X138644771Y-95340553D01*
G36*
X144932119Y-95621531D02*
G01*
X144932422Y-95768736D01*
X144932608Y-95932869D01*
X144932702Y-96114872D01*
X144932731Y-96315685D01*
X144932721Y-96536252D01*
X144932696Y-96777512D01*
X144932682Y-97040409D01*
X144932682Y-97082560D01*
X144932706Y-97343188D01*
X144932745Y-97582316D01*
X144932768Y-97800880D01*
X144932747Y-97999815D01*
X144932653Y-98180055D01*
X144932455Y-98342535D01*
X144932123Y-98488190D01*
X144931629Y-98617954D01*
X144930943Y-98732763D01*
X144930036Y-98833550D01*
X144928877Y-98921250D01*
X144927438Y-98996799D01*
X144925689Y-99061131D01*
X144923600Y-99115181D01*
X144921143Y-99159883D01*
X144918287Y-99196172D01*
X144915003Y-99224983D01*
X144911262Y-99247251D01*
X144907034Y-99263910D01*
X144902289Y-99275895D01*
X144896999Y-99284141D01*
X144891133Y-99289582D01*
X144884662Y-99293154D01*
X144877557Y-99295790D01*
X144869788Y-99298426D01*
X144861326Y-99301997D01*
X144856968Y-99303665D01*
X144848455Y-99305631D01*
X144835754Y-99307431D01*
X144817945Y-99309075D01*
X144794109Y-99310567D01*
X144763326Y-99311917D01*
X144724677Y-99313131D01*
X144677242Y-99314217D01*
X144620103Y-99315181D01*
X144552339Y-99316031D01*
X144473031Y-99316773D01*
X144381259Y-99317417D01*
X144276104Y-99317967D01*
X144156647Y-99318433D01*
X144021968Y-99318820D01*
X143871148Y-99319136D01*
X143703266Y-99319389D01*
X143517405Y-99319586D01*
X143312643Y-99319733D01*
X143088062Y-99319838D01*
X142842742Y-99319909D01*
X142575764Y-99319952D01*
X142537381Y-99319957D01*
X142271982Y-99320000D01*
X142028110Y-99320045D01*
X141804843Y-99320068D01*
X141601256Y-99320044D01*
X141416427Y-99319950D01*
X141249433Y-99319763D01*
X141099350Y-99319459D01*
X140965256Y-99319014D01*
X140846226Y-99318405D01*
X140741339Y-99317609D01*
X140649670Y-99316600D01*
X140570297Y-99315357D01*
X140502297Y-99313855D01*
X140444746Y-99312071D01*
X140396722Y-99309981D01*
X140357300Y-99307562D01*
X140325559Y-99304790D01*
X140300574Y-99301641D01*
X140281424Y-99298092D01*
X140267183Y-99294118D01*
X140256931Y-99289698D01*
X140249742Y-99284806D01*
X140244695Y-99279420D01*
X140240865Y-99273516D01*
X140237331Y-99267069D01*
X140233168Y-99260057D01*
X140232085Y-99258207D01*
X140229873Y-99252700D01*
X140227846Y-99244388D01*
X140225998Y-99232329D01*
X140224321Y-99215583D01*
X140222805Y-99193207D01*
X140221443Y-99164260D01*
X140220227Y-99127800D01*
X140219149Y-99082887D01*
X140218200Y-99028577D01*
X140217372Y-98963930D01*
X140216657Y-98888004D01*
X140216047Y-98799858D01*
X140216003Y-98791013D01*
X140507438Y-98791013D01*
X140511320Y-98792285D01*
X140534580Y-98794311D01*
X140576934Y-98796146D01*
X140636192Y-98797747D01*
X140710167Y-98799069D01*
X140796670Y-98800068D01*
X140893512Y-98800700D01*
X140998505Y-98800920D01*
X141696711Y-98800920D01*
X142851150Y-98800920D01*
X142850516Y-98724720D01*
X142851634Y-98682680D01*
X142857364Y-98646854D01*
X142869950Y-98609292D01*
X142891628Y-98561097D01*
X142894849Y-98554417D01*
X142920248Y-98504879D01*
X142947056Y-98456889D01*
X142969977Y-98419986D01*
X142974545Y-98413354D01*
X142996576Y-98382113D01*
X143028753Y-98337174D01*
X143069517Y-98280667D01*
X143117305Y-98214724D01*
X143170558Y-98141477D01*
X143227715Y-98063056D01*
X143287215Y-97981592D01*
X143347497Y-97899218D01*
X143407000Y-97818064D01*
X143464165Y-97740262D01*
X143517430Y-97667943D01*
X143565234Y-97603238D01*
X143606017Y-97548279D01*
X143638218Y-97505196D01*
X143660276Y-97476122D01*
X143670631Y-97463187D01*
X143675104Y-97458871D01*
X143679296Y-97456832D01*
X143682703Y-97459446D01*
X143685385Y-97468506D01*
X143687401Y-97485805D01*
X143688808Y-97513134D01*
X143689665Y-97552285D01*
X143690030Y-97605053D01*
X143689963Y-97673227D01*
X143689520Y-97758602D01*
X143688762Y-97862969D01*
X143687745Y-97988120D01*
X143687368Y-98032820D01*
X143686229Y-98153915D01*
X143685032Y-98255208D01*
X143683696Y-98338782D01*
X143682137Y-98406724D01*
X143680275Y-98461119D01*
X143678026Y-98504052D01*
X143675308Y-98537609D01*
X143672039Y-98563875D01*
X143668138Y-98584936D01*
X143663521Y-98602877D01*
X143655252Y-98629290D01*
X143631643Y-98691292D01*
X143605745Y-98744093D01*
X143580595Y-98781165D01*
X143579399Y-98782595D01*
X143577228Y-98786944D01*
X143579388Y-98790546D01*
X143587704Y-98793471D01*
X143604000Y-98795789D01*
X143630101Y-98797571D01*
X143667831Y-98798887D01*
X143719016Y-98799806D01*
X143785480Y-98800398D01*
X143869047Y-98800735D01*
X143971543Y-98800885D01*
X144094792Y-98800920D01*
X144626356Y-98800920D01*
X144587583Y-98743303D01*
X144581492Y-98734413D01*
X144571036Y-98719589D01*
X144561639Y-98705942D01*
X144553243Y-98692285D01*
X144545793Y-98677431D01*
X144539233Y-98660190D01*
X144533506Y-98639375D01*
X144528555Y-98613800D01*
X144524326Y-98582275D01*
X144520761Y-98543613D01*
X144517804Y-98496627D01*
X144515400Y-98440128D01*
X144513491Y-98372929D01*
X144512022Y-98293842D01*
X144510936Y-98201680D01*
X144510178Y-98095254D01*
X144509690Y-97973377D01*
X144509418Y-97834861D01*
X144509303Y-97678519D01*
X144509291Y-97503162D01*
X144509325Y-97307602D01*
X144509349Y-97090653D01*
X144509340Y-96968033D01*
X144509303Y-96762967D01*
X144509287Y-96578636D01*
X144509348Y-96413854D01*
X144509544Y-96267436D01*
X144509930Y-96138194D01*
X144510565Y-96024942D01*
X144511504Y-95926495D01*
X144512805Y-95841664D01*
X144514524Y-95769264D01*
X144516719Y-95708109D01*
X144519445Y-95657012D01*
X144522761Y-95614787D01*
X144526722Y-95580247D01*
X144531385Y-95552206D01*
X144536807Y-95529478D01*
X144543046Y-95510876D01*
X144550157Y-95495213D01*
X144558198Y-95481304D01*
X144567226Y-95467961D01*
X144577296Y-95453999D01*
X144588467Y-95438231D01*
X144628257Y-95380387D01*
X143568374Y-95380387D01*
X143606371Y-95443486D01*
X143621053Y-95468525D01*
X143635591Y-95496106D01*
X143647687Y-95524220D01*
X143657592Y-95555071D01*
X143665554Y-95590864D01*
X143671821Y-95633803D01*
X143676642Y-95686094D01*
X143680266Y-95749939D01*
X143682941Y-95827545D01*
X143684917Y-95921114D01*
X143686442Y-96032853D01*
X143687764Y-96164965D01*
X143688673Y-96284954D01*
X143689080Y-96401583D01*
X143688827Y-96497051D01*
X143687917Y-96571076D01*
X143686353Y-96623375D01*
X143684139Y-96653669D01*
X143681280Y-96661676D01*
X143678221Y-96658378D01*
X143660066Y-96636928D01*
X143630335Y-96600409D01*
X143590699Y-96550962D01*
X143542831Y-96490727D01*
X143488403Y-96421847D01*
X143429087Y-96346463D01*
X143366555Y-96266716D01*
X143302481Y-96184748D01*
X143238535Y-96102700D01*
X143176391Y-96022714D01*
X143117721Y-95946931D01*
X143064197Y-95877493D01*
X143017490Y-95816541D01*
X142979274Y-95766216D01*
X142951221Y-95728660D01*
X142935003Y-95706015D01*
X142889695Y-95633732D01*
X142849721Y-95553983D01*
X142828190Y-95485708D01*
X142824887Y-95428364D01*
X142830176Y-95380387D01*
X141698416Y-95380637D01*
X141737927Y-95411242D01*
X141747308Y-95418609D01*
X141810243Y-95472958D01*
X141879057Y-95540779D01*
X141955656Y-95624036D01*
X142041948Y-95724698D01*
X142059112Y-95745367D01*
X142099893Y-95794929D01*
X142149648Y-95855846D01*
X142207015Y-95926418D01*
X142270629Y-96004944D01*
X142339129Y-96089724D01*
X142411150Y-96179057D01*
X142485330Y-96271242D01*
X142500577Y-96290222D01*
X142560306Y-96364580D01*
X142634713Y-96457368D01*
X142707191Y-96547908D01*
X142776374Y-96634498D01*
X142840901Y-96715438D01*
X142899407Y-96789026D01*
X142950530Y-96853564D01*
X142992907Y-96907349D01*
X143025175Y-96948682D01*
X143045970Y-96975862D01*
X143053929Y-96987188D01*
X143052171Y-96991291D01*
X143039290Y-97011854D01*
X143014945Y-97048081D01*
X142980307Y-97098344D01*
X142936546Y-97161012D01*
X142884835Y-97234456D01*
X142826344Y-97317047D01*
X142762244Y-97407156D01*
X142693706Y-97503151D01*
X142621903Y-97603405D01*
X142548004Y-97706288D01*
X142473181Y-97810170D01*
X142398605Y-97913421D01*
X142325447Y-98014412D01*
X142254879Y-98111514D01*
X142188071Y-98203097D01*
X142126195Y-98287531D01*
X142070421Y-98363187D01*
X142021922Y-98428436D01*
X141981867Y-98481648D01*
X141951429Y-98521193D01*
X141931004Y-98546546D01*
X141884959Y-98600815D01*
X141834672Y-98657295D01*
X141787875Y-98707189D01*
X141696711Y-98800920D01*
X140998505Y-98800920D01*
X141067416Y-98800869D01*
X141165667Y-98800611D01*
X141255090Y-98800157D01*
X141333393Y-98799530D01*
X141398283Y-98798755D01*
X141447471Y-98797855D01*
X141478664Y-98796854D01*
X141489571Y-98795777D01*
X141488382Y-98792557D01*
X141478236Y-98774972D01*
X141461100Y-98748678D01*
X141452600Y-98736211D01*
X141443389Y-98722142D01*
X141435293Y-98707871D01*
X141428245Y-98691999D01*
X141422177Y-98673129D01*
X141417021Y-98649861D01*
X141412711Y-98620798D01*
X141409179Y-98584541D01*
X141406357Y-98539690D01*
X141404178Y-98484848D01*
X141402574Y-98418617D01*
X141401479Y-98339597D01*
X141400825Y-98246391D01*
X141400544Y-98137599D01*
X141400569Y-98011823D01*
X141400832Y-97867665D01*
X141401266Y-97703727D01*
X141401805Y-97518609D01*
X141402339Y-97339752D01*
X141402865Y-97180894D01*
X141403410Y-97041836D01*
X141404005Y-96921185D01*
X141404679Y-96817548D01*
X141405463Y-96729531D01*
X141406386Y-96655743D01*
X141407479Y-96594789D01*
X141408772Y-96545277D01*
X141410295Y-96505813D01*
X141412079Y-96475004D01*
X141414152Y-96451458D01*
X141416546Y-96433780D01*
X141419290Y-96420579D01*
X141422416Y-96410460D01*
X141425952Y-96402031D01*
X141429851Y-96393895D01*
X141449498Y-96357064D01*
X141468285Y-96326911D01*
X141469332Y-96325428D01*
X141483662Y-96303179D01*
X141489571Y-96290222D01*
X141488564Y-96289769D01*
X141471365Y-96288323D01*
X141434716Y-96287000D01*
X141381022Y-96285836D01*
X141312690Y-96284867D01*
X141232124Y-96284131D01*
X141141730Y-96283662D01*
X141043913Y-96283498D01*
X140598255Y-96283498D01*
X140595180Y-97460365D01*
X140592105Y-98637231D01*
X140565467Y-98696142D01*
X140553545Y-98720703D01*
X140536306Y-98750954D01*
X140523134Y-98768080D01*
X140515136Y-98776111D01*
X140507438Y-98791013D01*
X140216003Y-98791013D01*
X140215534Y-98698549D01*
X140215110Y-98583137D01*
X140214766Y-98452680D01*
X140214494Y-98306236D01*
X140214287Y-98142864D01*
X140214136Y-97961621D01*
X140214032Y-97761568D01*
X140213968Y-97541761D01*
X140213936Y-97301259D01*
X140213927Y-97039122D01*
X140213927Y-94847551D01*
X140252309Y-94809169D01*
X140279415Y-94785431D01*
X140306313Y-94773631D01*
X140342620Y-94770787D01*
X140394549Y-94770787D01*
X140394549Y-94858726D01*
X140396487Y-94908622D01*
X140415259Y-95019043D01*
X140452277Y-95120507D01*
X140505429Y-95211672D01*
X140572606Y-95291193D01*
X140651698Y-95357725D01*
X140740594Y-95409926D01*
X140837185Y-95446450D01*
X140939360Y-95465954D01*
X141045010Y-95467093D01*
X141152024Y-95448525D01*
X141258292Y-95408904D01*
X141355279Y-95351036D01*
X141440353Y-95276204D01*
X141509075Y-95188135D01*
X141559978Y-95089136D01*
X141591595Y-94981513D01*
X141602460Y-94867574D01*
X141602460Y-94770787D01*
X143222813Y-94770787D01*
X143433957Y-94770800D01*
X143638080Y-94770850D01*
X143821746Y-94770950D01*
X143986051Y-94771112D01*
X144132089Y-94771349D01*
X144260954Y-94771673D01*
X144373743Y-94772095D01*
X144471548Y-94772629D01*
X144555464Y-94773287D01*
X144626587Y-94774081D01*
X144686010Y-94775024D01*
X144734828Y-94776128D01*
X144774137Y-94777404D01*
X144805029Y-94778867D01*
X144828601Y-94780527D01*
X144845946Y-94782398D01*
X144858159Y-94784492D01*
X144866335Y-94786820D01*
X144871568Y-94789396D01*
X144877564Y-94792965D01*
X144884339Y-94796498D01*
X144890538Y-94800008D01*
X144896186Y-94804438D01*
X144901307Y-94810728D01*
X144905929Y-94819821D01*
X144910075Y-94832659D01*
X144913773Y-94850182D01*
X144917047Y-94873333D01*
X144919923Y-94903054D01*
X144922427Y-94940285D01*
X144924584Y-94985969D01*
X144926420Y-95041047D01*
X144927960Y-95106461D01*
X144929230Y-95183153D01*
X144930255Y-95272064D01*
X144931061Y-95374137D01*
X144931094Y-95380387D01*
X144931674Y-95490312D01*
X144932119Y-95621531D01*
G37*
X144932119Y-95621531D02*
X144932422Y-95768736D01*
X144932608Y-95932869D01*
X144932702Y-96114872D01*
X144932731Y-96315685D01*
X144932721Y-96536252D01*
X144932696Y-96777512D01*
X144932682Y-97040409D01*
X144932682Y-97082560D01*
X144932706Y-97343188D01*
X144932745Y-97582316D01*
X144932768Y-97800880D01*
X144932747Y-97999815D01*
X144932653Y-98180055D01*
X144932455Y-98342535D01*
X144932123Y-98488190D01*
X144931629Y-98617954D01*
X144930943Y-98732763D01*
X144930036Y-98833550D01*
X144928877Y-98921250D01*
X144927438Y-98996799D01*
X144925689Y-99061131D01*
X144923600Y-99115181D01*
X144921143Y-99159883D01*
X144918287Y-99196172D01*
X144915003Y-99224983D01*
X144911262Y-99247251D01*
X144907034Y-99263910D01*
X144902289Y-99275895D01*
X144896999Y-99284141D01*
X144891133Y-99289582D01*
X144884662Y-99293154D01*
X144877557Y-99295790D01*
X144869788Y-99298426D01*
X144861326Y-99301997D01*
X144856968Y-99303665D01*
X144848455Y-99305631D01*
X144835754Y-99307431D01*
X144817945Y-99309075D01*
X144794109Y-99310567D01*
X144763326Y-99311917D01*
X144724677Y-99313131D01*
X144677242Y-99314217D01*
X144620103Y-99315181D01*
X144552339Y-99316031D01*
X144473031Y-99316773D01*
X144381259Y-99317417D01*
X144276104Y-99317967D01*
X144156647Y-99318433D01*
X144021968Y-99318820D01*
X143871148Y-99319136D01*
X143703266Y-99319389D01*
X143517405Y-99319586D01*
X143312643Y-99319733D01*
X143088062Y-99319838D01*
X142842742Y-99319909D01*
X142575764Y-99319952D01*
X142537381Y-99319957D01*
X142271982Y-99320000D01*
X142028110Y-99320045D01*
X141804843Y-99320068D01*
X141601256Y-99320044D01*
X141416427Y-99319950D01*
X141249433Y-99319763D01*
X141099350Y-99319459D01*
X140965256Y-99319014D01*
X140846226Y-99318405D01*
X140741339Y-99317609D01*
X140649670Y-99316600D01*
X140570297Y-99315357D01*
X140502297Y-99313855D01*
X140444746Y-99312071D01*
X140396722Y-99309981D01*
X140357300Y-99307562D01*
X140325559Y-99304790D01*
X140300574Y-99301641D01*
X140281424Y-99298092D01*
X140267183Y-99294118D01*
X140256931Y-99289698D01*
X140249742Y-99284806D01*
X140244695Y-99279420D01*
X140240865Y-99273516D01*
X140237331Y-99267069D01*
X140233168Y-99260057D01*
X140232085Y-99258207D01*
X140229873Y-99252700D01*
X140227846Y-99244388D01*
X140225998Y-99232329D01*
X140224321Y-99215583D01*
X140222805Y-99193207D01*
X140221443Y-99164260D01*
X140220227Y-99127800D01*
X140219149Y-99082887D01*
X140218200Y-99028577D01*
X140217372Y-98963930D01*
X140216657Y-98888004D01*
X140216047Y-98799858D01*
X140216003Y-98791013D01*
X140507438Y-98791013D01*
X140511320Y-98792285D01*
X140534580Y-98794311D01*
X140576934Y-98796146D01*
X140636192Y-98797747D01*
X140710167Y-98799069D01*
X140796670Y-98800068D01*
X140893512Y-98800700D01*
X140998505Y-98800920D01*
X141696711Y-98800920D01*
X142851150Y-98800920D01*
X142850516Y-98724720D01*
X142851634Y-98682680D01*
X142857364Y-98646854D01*
X142869950Y-98609292D01*
X142891628Y-98561097D01*
X142894849Y-98554417D01*
X142920248Y-98504879D01*
X142947056Y-98456889D01*
X142969977Y-98419986D01*
X142974545Y-98413354D01*
X142996576Y-98382113D01*
X143028753Y-98337174D01*
X143069517Y-98280667D01*
X143117305Y-98214724D01*
X143170558Y-98141477D01*
X143227715Y-98063056D01*
X143287215Y-97981592D01*
X143347497Y-97899218D01*
X143407000Y-97818064D01*
X143464165Y-97740262D01*
X143517430Y-97667943D01*
X143565234Y-97603238D01*
X143606017Y-97548279D01*
X143638218Y-97505196D01*
X143660276Y-97476122D01*
X143670631Y-97463187D01*
X143675104Y-97458871D01*
X143679296Y-97456832D01*
X143682703Y-97459446D01*
X143685385Y-97468506D01*
X143687401Y-97485805D01*
X143688808Y-97513134D01*
X143689665Y-97552285D01*
X143690030Y-97605053D01*
X143689963Y-97673227D01*
X143689520Y-97758602D01*
X143688762Y-97862969D01*
X143687745Y-97988120D01*
X143687368Y-98032820D01*
X143686229Y-98153915D01*
X143685032Y-98255208D01*
X143683696Y-98338782D01*
X143682137Y-98406724D01*
X143680275Y-98461119D01*
X143678026Y-98504052D01*
X143675308Y-98537609D01*
X143672039Y-98563875D01*
X143668138Y-98584936D01*
X143663521Y-98602877D01*
X143655252Y-98629290D01*
X143631643Y-98691292D01*
X143605745Y-98744093D01*
X143580595Y-98781165D01*
X143579399Y-98782595D01*
X143577228Y-98786944D01*
X143579388Y-98790546D01*
X143587704Y-98793471D01*
X143604000Y-98795789D01*
X143630101Y-98797571D01*
X143667831Y-98798887D01*
X143719016Y-98799806D01*
X143785480Y-98800398D01*
X143869047Y-98800735D01*
X143971543Y-98800885D01*
X144094792Y-98800920D01*
X144626356Y-98800920D01*
X144587583Y-98743303D01*
X144581492Y-98734413D01*
X144571036Y-98719589D01*
X144561639Y-98705942D01*
X144553243Y-98692285D01*
X144545793Y-98677431D01*
X144539233Y-98660190D01*
X144533506Y-98639375D01*
X144528555Y-98613800D01*
X144524326Y-98582275D01*
X144520761Y-98543613D01*
X144517804Y-98496627D01*
X144515400Y-98440128D01*
X144513491Y-98372929D01*
X144512022Y-98293842D01*
X144510936Y-98201680D01*
X144510178Y-98095254D01*
X144509690Y-97973377D01*
X144509418Y-97834861D01*
X144509303Y-97678519D01*
X144509291Y-97503162D01*
X144509325Y-97307602D01*
X144509349Y-97090653D01*
X144509340Y-96968033D01*
X144509303Y-96762967D01*
X144509287Y-96578636D01*
X144509348Y-96413854D01*
X144509544Y-96267436D01*
X144509930Y-96138194D01*
X144510565Y-96024942D01*
X144511504Y-95926495D01*
X144512805Y-95841664D01*
X144514524Y-95769264D01*
X144516719Y-95708109D01*
X144519445Y-95657012D01*
X144522761Y-95614787D01*
X144526722Y-95580247D01*
X144531385Y-95552206D01*
X144536807Y-95529478D01*
X144543046Y-95510876D01*
X144550157Y-95495213D01*
X144558198Y-95481304D01*
X144567226Y-95467961D01*
X144577296Y-95453999D01*
X144588467Y-95438231D01*
X144628257Y-95380387D01*
X143568374Y-95380387D01*
X143606371Y-95443486D01*
X143621053Y-95468525D01*
X143635591Y-95496106D01*
X143647687Y-95524220D01*
X143657592Y-95555071D01*
X143665554Y-95590864D01*
X143671821Y-95633803D01*
X143676642Y-95686094D01*
X143680266Y-95749939D01*
X143682941Y-95827545D01*
X143684917Y-95921114D01*
X143686442Y-96032853D01*
X143687764Y-96164965D01*
X143688673Y-96284954D01*
X143689080Y-96401583D01*
X143688827Y-96497051D01*
X143687917Y-96571076D01*
X143686353Y-96623375D01*
X143684139Y-96653669D01*
X143681280Y-96661676D01*
X143678221Y-96658378D01*
X143660066Y-96636928D01*
X143630335Y-96600409D01*
X143590699Y-96550962D01*
X143542831Y-96490727D01*
X143488403Y-96421847D01*
X143429087Y-96346463D01*
X143366555Y-96266716D01*
X143302481Y-96184748D01*
X143238535Y-96102700D01*
X143176391Y-96022714D01*
X143117721Y-95946931D01*
X143064197Y-95877493D01*
X143017490Y-95816541D01*
X142979274Y-95766216D01*
X142951221Y-95728660D01*
X142935003Y-95706015D01*
X142889695Y-95633732D01*
X142849721Y-95553983D01*
X142828190Y-95485708D01*
X142824887Y-95428364D01*
X142830176Y-95380387D01*
X141698416Y-95380637D01*
X141737927Y-95411242D01*
X141747308Y-95418609D01*
X141810243Y-95472958D01*
X141879057Y-95540779D01*
X141955656Y-95624036D01*
X142041948Y-95724698D01*
X142059112Y-95745367D01*
X142099893Y-95794929D01*
X142149648Y-95855846D01*
X142207015Y-95926418D01*
X142270629Y-96004944D01*
X142339129Y-96089724D01*
X142411150Y-96179057D01*
X142485330Y-96271242D01*
X142500577Y-96290222D01*
X142560306Y-96364580D01*
X142634713Y-96457368D01*
X142707191Y-96547908D01*
X142776374Y-96634498D01*
X142840901Y-96715438D01*
X142899407Y-96789026D01*
X142950530Y-96853564D01*
X142992907Y-96907349D01*
X143025175Y-96948682D01*
X143045970Y-96975862D01*
X143053929Y-96987188D01*
X143052171Y-96991291D01*
X143039290Y-97011854D01*
X143014945Y-97048081D01*
X142980307Y-97098344D01*
X142936546Y-97161012D01*
X142884835Y-97234456D01*
X142826344Y-97317047D01*
X142762244Y-97407156D01*
X142693706Y-97503151D01*
X142621903Y-97603405D01*
X142548004Y-97706288D01*
X142473181Y-97810170D01*
X142398605Y-97913421D01*
X142325447Y-98014412D01*
X142254879Y-98111514D01*
X142188071Y-98203097D01*
X142126195Y-98287531D01*
X142070421Y-98363187D01*
X142021922Y-98428436D01*
X141981867Y-98481648D01*
X141951429Y-98521193D01*
X141931004Y-98546546D01*
X141884959Y-98600815D01*
X141834672Y-98657295D01*
X141787875Y-98707189D01*
X141696711Y-98800920D01*
X140998505Y-98800920D01*
X141067416Y-98800869D01*
X141165667Y-98800611D01*
X141255090Y-98800157D01*
X141333393Y-98799530D01*
X141398283Y-98798755D01*
X141447471Y-98797855D01*
X141478664Y-98796854D01*
X141489571Y-98795777D01*
X141488382Y-98792557D01*
X141478236Y-98774972D01*
X141461100Y-98748678D01*
X141452600Y-98736211D01*
X141443389Y-98722142D01*
X141435293Y-98707871D01*
X141428245Y-98691999D01*
X141422177Y-98673129D01*
X141417021Y-98649861D01*
X141412711Y-98620798D01*
X141409179Y-98584541D01*
X141406357Y-98539690D01*
X141404178Y-98484848D01*
X141402574Y-98418617D01*
X141401479Y-98339597D01*
X141400825Y-98246391D01*
X141400544Y-98137599D01*
X141400569Y-98011823D01*
X141400832Y-97867665D01*
X141401266Y-97703727D01*
X141401805Y-97518609D01*
X141402339Y-97339752D01*
X141402865Y-97180894D01*
X141403410Y-97041836D01*
X141404005Y-96921185D01*
X141404679Y-96817548D01*
X141405463Y-96729531D01*
X141406386Y-96655743D01*
X141407479Y-96594789D01*
X141408772Y-96545277D01*
X141410295Y-96505813D01*
X141412079Y-96475004D01*
X141414152Y-96451458D01*
X141416546Y-96433780D01*
X141419290Y-96420579D01*
X141422416Y-96410460D01*
X141425952Y-96402031D01*
X141429851Y-96393895D01*
X141449498Y-96357064D01*
X141468285Y-96326911D01*
X141469332Y-96325428D01*
X141483662Y-96303179D01*
X141489571Y-96290222D01*
X141488564Y-96289769D01*
X141471365Y-96288323D01*
X141434716Y-96287000D01*
X141381022Y-96285836D01*
X141312690Y-96284867D01*
X141232124Y-96284131D01*
X141141730Y-96283662D01*
X141043913Y-96283498D01*
X140598255Y-96283498D01*
X140595180Y-97460365D01*
X140592105Y-98637231D01*
X140565467Y-98696142D01*
X140553545Y-98720703D01*
X140536306Y-98750954D01*
X140523134Y-98768080D01*
X140515136Y-98776111D01*
X140507438Y-98791013D01*
X140216003Y-98791013D01*
X140215534Y-98698549D01*
X140215110Y-98583137D01*
X140214766Y-98452680D01*
X140214494Y-98306236D01*
X140214287Y-98142864D01*
X140214136Y-97961621D01*
X140214032Y-97761568D01*
X140213968Y-97541761D01*
X140213936Y-97301259D01*
X140213927Y-97039122D01*
X140213927Y-94847551D01*
X140252309Y-94809169D01*
X140279415Y-94785431D01*
X140306313Y-94773631D01*
X140342620Y-94770787D01*
X140394549Y-94770787D01*
X140394549Y-94858726D01*
X140396487Y-94908622D01*
X140415259Y-95019043D01*
X140452277Y-95120507D01*
X140505429Y-95211672D01*
X140572606Y-95291193D01*
X140651698Y-95357725D01*
X140740594Y-95409926D01*
X140837185Y-95446450D01*
X140939360Y-95465954D01*
X141045010Y-95467093D01*
X141152024Y-95448525D01*
X141258292Y-95408904D01*
X141355279Y-95351036D01*
X141440353Y-95276204D01*
X141509075Y-95188135D01*
X141559978Y-95089136D01*
X141591595Y-94981513D01*
X141602460Y-94867574D01*
X141602460Y-94770787D01*
X143222813Y-94770787D01*
X143433957Y-94770800D01*
X143638080Y-94770850D01*
X143821746Y-94770950D01*
X143986051Y-94771112D01*
X144132089Y-94771349D01*
X144260954Y-94771673D01*
X144373743Y-94772095D01*
X144471548Y-94772629D01*
X144555464Y-94773287D01*
X144626587Y-94774081D01*
X144686010Y-94775024D01*
X144734828Y-94776128D01*
X144774137Y-94777404D01*
X144805029Y-94778867D01*
X144828601Y-94780527D01*
X144845946Y-94782398D01*
X144858159Y-94784492D01*
X144866335Y-94786820D01*
X144871568Y-94789396D01*
X144877564Y-94792965D01*
X144884339Y-94796498D01*
X144890538Y-94800008D01*
X144896186Y-94804438D01*
X144901307Y-94810728D01*
X144905929Y-94819821D01*
X144910075Y-94832659D01*
X144913773Y-94850182D01*
X144917047Y-94873333D01*
X144919923Y-94903054D01*
X144922427Y-94940285D01*
X144924584Y-94985969D01*
X144926420Y-95041047D01*
X144927960Y-95106461D01*
X144929230Y-95183153D01*
X144930255Y-95272064D01*
X144931061Y-95374137D01*
X144931094Y-95380387D01*
X144931674Y-95490312D01*
X144932119Y-95621531D01*
%TD*%
M02*
