M48
; DRILL file {KiCad 5.99.0-unknown-r18419-5b078893} date Mon May 18 11:46:52 2020
; FORMAT={-:-/ absolute / inch / decimal}
; #@! TF.CreationDate,2020-05-18T11:46:52+06:00
; #@! TF.GenerationSoftware,Kicad,Pcbnew,5.99.0-unknown-r18419-5b078893
; #@! TF.FileFunction,Plated,1,2,PTH
FMAT,2
INCH
T1C0.0157
T2C0.0374
T3C0.0512
%
G90
G05
T1
X3.9764Y-3.622
X3.9764Y-3.7795
X4.0157Y-3.7008
X4.0551Y-3.622
X4.0551Y-3.7795
X4.0945Y-3.7008
X4.1339Y-3.622
X4.1339Y-3.7795
X4.1732Y-3.7008
X4.2126Y-3.622
X4.2126Y-3.7795
X4.5669Y-3.622
X4.5669Y-3.7795
X4.6063Y-3.7008
X4.6457Y-3.622
X4.6457Y-3.7795
X4.685Y-3.7008
X4.7244Y-3.622
X4.7244Y-3.7795
X4.7638Y-3.7008
X4.8031Y-3.622
X4.8031Y-3.7795
X5.6693Y-3.622
X5.7087Y-3.7008
X5.748Y-3.622
X5.748Y-3.7795
X5.7874Y-3.7008
X5.8268Y-3.622
X5.8268Y-3.7795
X5.8661Y-3.7008
X5.9055Y-3.622
X5.9055Y-3.7795
X5.9449Y-3.7008
X5.9843Y-3.622
X5.9843Y-3.7795
X6.0236Y-3.7008
X6.063Y-3.7795
X6.2598Y-3.7008
X6.2992Y-3.622
X6.2992Y-3.7795
X6.3386Y-3.7008
X6.378Y-3.622
X6.378Y-3.7795
X6.4173Y-3.7008
X6.4567Y-3.622
X6.4567Y-3.7795
X6.4961Y-3.7008
X6.5354Y-3.622
X6.5354Y-3.7795
X6.5748Y-3.7008
X6.6142Y-3.622
X6.6142Y-3.7795
T2
X5.3524Y-4.1339
X5.4508Y-4.1339
X5.5492Y-4.1339
X5.6476Y-4.1339
T3
X5.928Y-4.0937
X6.128Y-4.0937
X6.328Y-4.0937
X6.528Y-4.0937
X4.0945Y-4.0945
X4.2945Y-4.0945
X4.4945Y-4.0945
X4.6945Y-4.0945
X4.8945Y-4.0945
X5.0945Y-4.0945
T0
M30
